<?xml version="1.0" standalone="no"?>
<!DOCTYPE svg PUBLIC "-//W3C//DTD SVG 1.1//EN" "http://www.w3.org/Graphics/SVG/1.1/DTD/svg11.dtd" >
<svg xmlns="http://www.w3.org/2000/svg" xmlns:xlink="http://www.w3.org/1999/xlink" version="1.1" viewBox="0 0 256 256">
  <g transform="matrix(1 0 0 -1 0 204)">
   <path fill="currentColor"
d="M110 186q21 -16 21 -30q0 -1 1 -1q3 -2 3 -4q-1 -18 0 -18q13 -1 24 10l6 6q7 0 18 -1q3 0 4 -3q2 -4 -2 -5q-33 -12 -50 -13q2 -37 -4 -77q22 1 65 1q14 17 14 10q0 -1 2 -3l10 -5t18 -16q1 -1 -1 -2q-7 -5 -15 3q-8 9 -28 9q-83 0 -156 -19q-23 -6 -36 0q-2 1 -1 2l2 1
q7 -1 17 1q10 1 28 5q42 7 72 11q-5 12 -8 14q-1 1 3 11q15 35 5 57q-14 31 -13 37q2 18 1 19z" />
  </g>

</svg>
