<?xml version="1.0" standalone="no"?>
<!DOCTYPE svg PUBLIC "-//W3C//DTD SVG 1.1//EN" "http://www.w3.org/Graphics/SVG/1.1/DTD/svg11.dtd" >
<svg xmlns="http://www.w3.org/2000/svg" xmlns:xlink="http://www.w3.org/1999/xlink" version="1.1" viewBox="0 0 256 256">
  <g transform="matrix(1 0 0 -1 0 204)">
   <path fill="currentColor"
d="M146 201q14 -2 11 -11v-15q10 3 13 7q2 1 4 1q4 -2 9 -1q6 0 9 -3q0 -3 -4 -3q-8 1 -17 -2q-3 -1 -7 -2q-4 -2 -6 -2q-1 -4 -1 -15q1 -3 1 -4q10 2 17 3q2 0 3 1q7 1 12 3q5 1 7 -1q3 -1 8 -6q4 -4 8 -6q1 -2 -1 -4q-10 -1 -13 -23q-6 -31 -16 -32q-13 -4 -21 2q-3 1 0 1
q20 -3 27 11q7 17 6 46q0 9 -9 8q-18 -5 -28 -9q-2 -7 0 -16q3 1 4 5l3 1q5 -1 8 1q8 0 7 -3q0 -2 -3 -3h-1q-6 -1 -17 -8h-1q0 -3 -1 -8t0 -7q17 6 21 6q5 0 5 -3l-1 -1q0 -4 -3 -3q-10 0 -22 -5q-2 -5 -2 -8l-3 -12q-3 -3 -2 0v7q2 8 2 12q-2 -1 -5 -2q-6 -1 -8 0v-2
q2 -3 -1 -5t-4 0q-1 1 -2 3q-2 1 -4 3q-3 4 -6 7q-5 2 1 9q-1 4 -3 13v2q-4 6 1 15q2 6 24 25q-19 -4 -30 0q-3 1 0 1h5q21 2 31 5q-1 21 -5 25q-2 1 0 2zM152 167q-8 -4 -20 -14l-3 -3q-5 -4 -4 -13q7 4 27 12v18zM152 143q-5 -2 -3 -1q-2 -1 -8 -3q-1 -2 -6 -1
q-2 -1 -6 -2h-4q1 -15 3 -19h1q4 3 6 3q4 1 14 5l4 2q0 6 -1 16zM153 120q-15 -6 -24 -7q0 -5 8 -13q7 1 15 5q1 3 1 15zM201 191q-3 1 0 1q20 -6 21 -11q0 -1 -1 -3q-2 -2 -3 -1q-6 0 -12 9q-3 4 -5 5zM115 50q-2 1 2 2q17 -4 32 -18q1 -4 0 -5q-2 -3 -5 -1q-7 3 -11 8
q-11 10 -18 14zM89 61q11 0 27 5q10 2 19 4l32 8q-1 1 -5 3q-3 2 0 2q1 1 4 0q4 -2 9 -3q13 2 35 5q2 0 4 1q-1 1 3 4q3 4 5 2q4 -3 14 -7q2 -1 3 -1q8 -4 13 -8q0 -3 -3 -5q-6 1 -14 8q-8 4 -26 2q-16 -1 -29 -4q3 -2 0 -5q-4 -5 -2 -13q8 -55 -2 -70l-3 -3q-2 -4 -3 -7
q-2 -1 -3 1q-1 1 -1 2q-1 0 -3 2t-4 3q-8 5 -10 8q-1 2 1 1q11 -5 19 -4q3 0 7 6q10 24 -7 76q-44 -11 -62 -16q-5 -4 -18 1q-5 1 0 2zM65 189q10 -11 8 -11q-2 -4 -3 -13v-4q-1 -7 -1 -20q-1 -13 -1 -19q3 1 8 3q5 1 9 3q1 7 4 6q0 -1 2 -1q9 -3 16 -3q2 -1 1 -2
q0 -2 -2 -2q-11 -1 -33 -6q-2 -1 -5 -1q-1 -33 1 -88q0 -4 1 -5q0 -10 9 -22l3 -3q4 -2 5 -7q0 -1 -3 -2l-1 -1q-6 0 -6 1q-4 4 -6 8q-7 8 -13 12q-5 2 1 7q2 3 8 4q-3 25 -2 95q-9 -4 -14 -6t-7 -2q-9 -3 -19 0q-3 0 0 2q16 1 40 9v18q1 9 1 28q1 14 -2 21q-3 2 1 1z" />
  </g>

</svg>
