<?xml version="1.0" encoding="UTF-8" standalone="no"?>
<!-- Created with Inkscape (http://www.inkscape.org/) -->

<svg
   xmlns:dc="http://purl.org/dc/elements/1.1/"
   xmlns:cc="http://creativecommons.org/ns#"
   xmlns:rdf="http://www.w3.org/1999/02/22-rdf-syntax-ns#"
   xmlns:svg="http://www.w3.org/2000/svg"
   xmlns="http://www.w3.org/2000/svg"
   xmlns:sodipodi="http://sodipodi.sourceforge.net/DTD/sodipodi-0.dtd"
   xmlns:inkscape="http://www.inkscape.org/namespaces/inkscape"
   version="1.1"
   id="svg3747"
   width="512"
   height="513"
   viewBox="0 0 512 513"
   sodipodi:docname="U+4FF6.svg"
   inkscape:version="0.92.4 (5da689c313, 2019-01-14)">
  <metadata
     id="metadata3753">
    <rdf:RDF>
      <cc:Work
         rdf:about="">
        <dc:format>image/svg+xml</dc:format>
        <dc:type
           rdf:resource="http://purl.org/dc/dcmitype/StillImage" />
        <dc:title></dc:title>
      </cc:Work>
    </rdf:RDF>
  </metadata>
  <defs
     id="defs3751" />
  <sodipodi:namedview
     pagecolor="#ffffff"
     bordercolor="#666666"
     borderopacity="1"
     objecttolerance="10"
     gridtolerance="10"
     guidetolerance="10"
     inkscape:pageopacity="0"
     inkscape:pageshadow="2"
     inkscape:window-width="1920"
     inkscape:window-height="1017"
     id="namedview3749"
     showgrid="false"
     inkscape:zoom="1.8401559"
     inkscape:cx="329.1072"
     inkscape:cy="280.05473"
     inkscape:window-x="-8"
     inkscape:window-y="-8"
     inkscape:window-maximized="1"
     inkscape:current-layer="svg3747" />
  <path
     style="fill:#000000;stroke:#000000;stroke-width:1px;stroke-linecap:butt;stroke-linejoin:miter;stroke-opacity:1"
     d="M 188.02754,172.81144 C 184.84666,176.63546 189.60731,182.64185 190.7447,187.48411 191.64935,191.33554 191.51054,195.82567 194.0053,198.89619 196.45786,201.91477 200.52665,203.51964 204.33051,204.33051 209.834,205.50368 216.05016,205.56338 221.17691,203.24364 223.74426,202.08197 226.7931,200.06054 227.15466,197.26589 227.47755,194.77016 224.88707,192.73777 223.35064,190.7447 221.47378,188.31003 219.2249,186.15017 216.82945,184.22352 212.63978,180.85378 208.04157,177.95519 203.24364,175.5286 200.99217,174.3899 198.65967,173.27204 196.17903,172.81144 193.50753,172.3154 189.76516,170.7225 188.02754,172.81144 Z"
     id="path3761"
     inkscape:connector-curvature="0"
     sodipodi:nodetypes="sssssssssss" />
  <path
     style="fill:#000000;stroke:#000000;stroke-width:1px;stroke-linecap:butt;stroke-linejoin:miter;stroke-opacity:1"
     d="M 286.9322,214.65572 C 286.34851,217.04941 289.44927,218.98419 291.27966,220.63347 294.23414,223.29562 299.36772,223.3232 301.60487,226.61123 303.66566,229.64005 303.0149,233.82309 303.23517,237.47987 303.61653,243.81103 302.09792,250.18523 302.69174,256.5 303.40363,264.07034 306.65166,271.23419 307.58263,278.78072 308.33703,284.89593 309.24549,291.1984 308.12606,297.25742 307.69823,299.5731 307.55221,302.80308 305.4089,303.7786 303.32344,304.72779 301.05145,302.35875 298.88771,301.60487 296.88552,300.90728 294.99804,299.79901 292.90996,299.43114 291.30439,299.14828 289.03401,298.1553 288.01907,299.43114 286.51451,301.32245 288.24612,304.5281 289.64936,306.49576 291.63384,309.27845 296.0672,309.38127 298.34428,311.93008 301.42115,315.37412 302.5052,320.18312 304.32203,324.42903 306.53229,329.5944 306.03782,336.5277 310.29979,340.18856 312.26722,341.8785 315.72502,343.21957 317.90784,341.81886 320.71897,340.01496 319.97988,335.37566 320.08157,332.03708 320.32728,323.97025 315.73411,310.84322 316.27754,308.12606 316.82097,305.4089 315.37347,287.46439 314.64725,277.15042 314.21298,270.98286 312.92699,264.8559 313.01695,258.67373 313.06206,255.57337 313.37298,252.44871 314.10381,249.43538 314.4686,247.93129 314.1922,245.22159 315.73411,245.08792 319.29348,244.77935 319.30337,251.279 321.16843,254.32627 324.86725,260.36969 328.21148,266.68138 332.58051,272.25953 335.97763,276.59679 339.36616,281.22366 343.99259,284.21504 346.7349,285.98818 348.88347,289.10593 353.23093,287.47564 357.57839,285.84534 350.87092,279.08532 349.42691,274.97669 347.16277,268.53455 345.79385,261.50877 341.81886,255.95657 338.9023,251.88278 334.54819,248.9945 330.40678,246.17479 327.52661,244.2138 324.29115,242.8297 321.16843,241.2839 318.84404,240.13329 315.03382,240.44441 314.10381,238.0233 313.11445,235.44768 316.93854,233.14129 317.36441,230.41525 317.95422,226.63981 318.40554,222.17705 316.27754,219.00318 314.11162,215.77276 309.5419,215.06615 305.95233,213.56886 302.62123,212.17939 299.22517,210.02384 295.62712,210.30826 292.39679,210.56361 287.69986,211.50756 286.9322,214.65572 Z"
     id="path3763"
     inkscape:connector-curvature="0"
     sodipodi:nodetypes="ssssssssssssssssssssssssssssssssssss" />
  <path
     style="fill:#000000;stroke:#000000;stroke-width:1px;stroke-linecap:butt;stroke-linejoin:miter;stroke-opacity:1"
     d="M 270.08581,254.8697 C 265.76402,256.02649 266.62621,263.12984 265.19492,267.36864 263.92924,271.11697 263.10357,275.0012 261.93432,278.78072 261.08784,281.51691 259.21716,284.75847 259.21716,286.9322 259.21716,289.10593 263.20502,293.22305 266.28178,295.08369 268.98882,296.72075 272.81878,298.90385 275.52013,297.25742 278.70892,295.31391 277.51188,290.05202 278.23729,286.38877 279.44654,280.28221 282.22957,274.00523 280.95445,267.91208 280.25437,264.56673 277.79255,261.77012 275.52013,259.21716 273.97777,257.48439 272.3267,254.26989 270.08581,254.8697 Z"
     id="path3765"
     inkscape:connector-curvature="0"
     sodipodi:nodetypes="ssssssssss" />
  <path
     style="fill:#000000;stroke:#000000;stroke-width:1px;stroke-linecap:butt;stroke-linejoin:miter;stroke-opacity:1"
     d="M 368.44703,61.951271 C 373.28289,59.775178 378.92481,60.25075 384.20657,59.777542 388.54044,59.389258 395.07521,58.690677 397.24894,59.23411 399.42267,59.777542 413.6307,64.025595 421.15996,67.929025 425.66571,70.264961 430.91404,72.354972 433.6589,76.62394 435.84954,80.030948 436.04053,84.534283 435.83263,88.579449 435.5325,94.419077 435.65245,99.217748 434.20233,104.88242 433.37399,108.11821 431.48517,116.83793 431.48517,116.83793 430.39831,128.25 430.9725,119.06305 430.39831,128.25 429.85487,136.94491 430.56604,134.12938 429.85487,136.94491 429.21971,139.45952 428.77895,142.61171 426.59428,144.00953 423.84777,145.76684 419.91127,145.02398 416.8125,144.00953 413.61026,142.96121 410.35736,140.9431 408.66102,138.03178 403.97797,129.99453 406.30075,119.57513 405.40042,110.31674 405.17182,107.966 405.42031,105.54579 404.85699,103.25212 404.19892,100.57264 403.20968,97.882369 401.5964,95.644067 400.32099,93.874534 397.84275,93.773895 396.16208,92.383474 393.87293,90.489655 391.63179,90.129899 389.09746,88.579449 385.84884,86.592015 382.36289,83.255677 379.31568,80.971398 377.57036,79.663053 376.49876,77.634652 374.96822,76.080508 372.89911,73.979488 370.44612,72.270499 368.44703,70.102754 367.04686,68.584458 364.43566,67.266788 364.64301,65.211864 364.81067,63.550237 366.92406,62.636595 368.44703,61.951271 Z"
     id="path3767"
     inkscape:connector-curvature="0"
     sodipodi:nodetypes="sssssssssssssssssssssss" />
  <path
     style="fill:#000000;stroke:#000000;stroke-width:1px;stroke-linecap:butt;stroke-linejoin:miter;stroke-opacity:1"
     d="M 354.86123,215.74258 C 353.44865,220.42854 362.69289,221.64413 366.27331,224.98093 368.99233,227.51495 371.53257,230.25187 373.88136,233.13241 378.23284,238.46904 381.48538,244.64218 385.83686,249.97881 388.18565,252.85936 390.29859,256.15167 393.44492,258.1303 396.01541,259.7468 399.42267,261.39089 402.13983,260.84746 404.85699,260.30403 408.83819,259.27559 409.74788,256.5 410.85915,253.10934 406.60576,250.07659 405.40042,246.71822 404.25727,243.5331 404.16083,239.98087 402.68326,236.93644 401.21205,233.90512 399.10293,231.1526 396.70551,228.78496 394.48807,226.59506 391.87464,224.76485 389.09746,223.35064 385.52427,221.53108 381.43342,220.97161 377.68538,219.54661 373.81689,218.07581 368.44703,214.65572 366.27331,214.65572 364.09958,214.65572 355.96412,212.08396 354.86123,215.74258 Z"
     id="path3769"
     inkscape:connector-curvature="0"
     sodipodi:nodetypes="ssssssssssssss" />
  <path
     style="fill:#000000;stroke:#000000;stroke-width:1px;stroke-linecap:butt;stroke-linejoin:miter;stroke-opacity:1"
     d="M 417.35593,253.78284 C 413.34727,258.22097 417.62602,265.74185 417.89936,271.7161 418.3058,280.59949 418.97222,289.46909 419.52966,298.34428 422.53362,346.17111 433.59855,394.13339 428.76801,441.81038 428.55982,443.86522 428.97369,446.84214 427.13771,447.78814 423.87719,449.46814 420.32734,445.03258 416.8125,443.98411 414.49658,443.29327 411.37376,440.56572 409.74788,442.35381 407.43565,444.89671 411.63124,448.98663 413.00848,452.13559 414.66531,455.92381 416.87896,459.44684 418.98623,463.00424 423.80112,471.1325 425.92076,482.36912 434.20233,486.91525 435.79025,487.78693 438.15702,487.96024 439.63665,486.91525 444.50372,483.47788 444.73707,475.96243 445.61441,470.06886 448.55134,450.33984 444.30512,430.18799 442.89725,410.29131 442.22933,400.85198 441.14028,391.44693 440.18009,382.03284 438.29441,363.54493 435.84264,345.11405 434.20233,326.60275 433.04837,313.58 432.42092,300.51589 431.48517,287.47564 430.78312,277.69222 433.13371,267.16349 429.31144,258.1303 428.46143,256.12147 426.9844,254.06148 424.96398,253.23941 422.60898,252.28121 419.06012,251.89607 417.35593,253.78284 Z"
     id="path3771"
     inkscape:connector-curvature="0"
     sodipodi:nodetypes="sssssssssssssssssss" />
  <path
     style="fill:#000000;stroke-width:0.54343218"
     d="M 153.94067,429.60023 C 151.77761,428.69324 148.91837,426.09846 147.41949,423.6822 146.85695,422.77537 145.31207,418.98493 143.98642,415.259 142.66077,411.53307 140.89768,406.65049 140.06845,404.40883 137.30405,396.93581 137.64607,388.88108 141.22218,377.23722 143.192,370.82348 143.55492,357.84681 142.31644,338.1101 141.57517,326.29707 141.44048,315.99422 141.56692,280.77801 141.73138,234.97627 141.23087,219.73409 139.43837,215.95667 137.45554,211.77818 131.5641,210.65228 127.41387,213.65869 124.14725,216.02502 120.74625,220.63856 117.22581,227.47904 112.80774,236.06372 110.76612,239.3986 106.72,244.63977 92.750588,262.73511 69.453111,286.34599 47.16387,304.99705 39.558169,311.3613 35.878144,313.75701 30.553683,315.81034 28.206155,316.71564 24.135849,318.74662 21.508558,320.32362 13.868292,324.90962 12.460846,325.32357 10.789156,323.47638 9.2537274,321.77975 10.212371,320.38789 15.278128,316.95883 18.874343,314.52452 24.05743,309.66285 37.134622,296.45775 55.718324,277.69227 57.378545,275.86621 66.212587,264.47504 75.410085,252.61521 77.187287,250.60912 90.04323,237.57515 96.676348,230.85017 104.14169,222.7802 106.63287,219.64188 113.05952,211.54578 122.87711,197.63796 130.45218,185.89892 134.02531,180.36165 139.87255,171.44385 143.44604,166.08159 157.48144,145.02053 170.04078,122.43137 171.44969,115.7144 173.00696,108.29003 166.75244,100.33118 155.33496,95.208507 151.13299,93.323217 150.01015,91.791817 149.70154,87.525367 149.43683,83.865817 150.2202,82.210627 153.02682,80.499327 156.96155,78.100167 161.46311,79.762707 166.83524,85.599117 168.26572,87.153227 171.51475,90.164167 174.05529,92.290087 176.59584,94.416017 179.33314,96.856567 180.13818,97.713537 182.56417,100.29599 184.43024,105.0706 184.77017,109.56513 185.12681,114.28084 183.7717,119.35917 179.71551,128.50759 174.86279,139.45251 159.05896,167.11185 151.00887,178.74898 141.61333,192.3311 140.31753,194.4181 138.67218,198.61851 136.41265,204.38682 136.25802,208.07144 138.18877,210.13674 138.93598,210.93603 141.01461,212.4514 142.80794,213.50421 147.46306,216.23711 152.60664,220.45991 153.97277,222.67036 154.64475,223.75763 155.33775,226.123 155.59716,228.21477 155.94325,231.00548 156.34637,232.11909 157.31231,232.95288 158.55144,234.02247 158.55579,234.062 157.54546,235.06863 156.63866,235.9721 156.55739,236.62008 156.86389,240.50295 158.77665,264.73465 158.65063,281.64599 156.40384,302.24358 154.7085,317.78561 154.23736,337.44048 155.47631,340.93716 156.79314,344.65361 160.25373,344.30997 164.79231,340.01208 166.44974,338.44254 171.22772,334.873 175.41003,332.07976 186.46666,324.69539 194.15927,316.9177 220.70296,286.28594 224.45737,281.95329 226.89823,278.05648 231.05451,269.75973 233.19095,265.495 235.56927,261.46084 236.33969,260.79492 238.38321,259.02857 238.99385,257.58196 241.44523,248.69976 243.87909,239.88107 244.15937,239.1979 246.40362,236.61417 247.25213,235.63731 248.09207,234.25751 248.27016,233.54797 248.70936,231.79805 247.21929,229.08608 245.2627,228.07428 241.2699,226.00952 238.14345,227.48197 223.47813,238.33404 205.35423,251.7454 202.03246,252.4239 186.0108,245.98711 181.97581,244.36603 177.2384,242.54668 175.48321,241.9441 172.44801,240.90208 161.6355,234.93529 161.58178,234.27272 161.56779,234.10027 163.56689,233.65139 166.0242,233.27522 178.44407,231.37395 197.07401,225.23408 211.59117,218.25771 218.88212,214.75397 223.48776,212.8813 226.23544,212.3033 232.14428,211.06034 252.06685,201.08259 253.79289,198.50181 256.45459,194.52202 256.72948,191.10732 255.7915,173.6753 255.30817,164.69269 255.24217,164.32518 253.76419,162.38745 252.92394,161.28583 249.99087,158.69685 247.24625,156.63416 238.26749,149.88627 234.99225,146.9101 233.30238,143.96349 231.0931,140.11122 231.09846,137.51723 233.32027,135.29541 234.88803,133.72767 235.16129,133.65055 238.17931,133.92421 239.93814,134.0837 242.71634,134.82727 244.35308,135.5766 247.26353,136.90905 258.94556,145.3129 262.5474,148.66529 265.97842,151.85866 268.59575,158.57708 268.60394,164.2118 268.60826,167.17583 266.66046,178.03003 265.09324,183.77536 264.11796,187.35069 264.03123,191.36255 264.88853,193.24413 265.67935,194.97977 268.55983,195.9603 271.6311,195.53934 272.91774,195.36299 276.49421,194.07779 279.57881,192.68334 283.60709,190.8623 288.24929,189.40438 296.05582,187.50862 302.03357,186.05697 311.20399,183.73252 316.43453,182.34318 329.52495,178.86608 335.18707,177.54119 342.79099,176.17594 346.37764,175.53198 354.9367,173.90823 361.81112,172.56761 379.6861,169.08171 383.96371,168.57698 400.3948,168.01496 409.14082,167.7158 417.00756,167.1648 419.87058,166.65084 424.89086,165.74962 444.11606,161.40398 447.3981,160.42855 452.67368,158.86065 460.88496,160.1206 472.12785,164.22312 491.21145,171.18671 507.8848,183.83157 507.07516,190.72671 506.74686,193.52264 496.94541,198.33561 490.51199,198.86 486.08931,199.22049 481.60863,197.59338 471.23222,191.85877 450.46454,180.38134 437.60976,174.72677 427.57176,172.65336 418.21082,170.7198 406.89827,171.03434 388.20958,173.7478 367.08824,176.81446 355.60456,179.75281 332.94655,187.88801 313.43641,194.89299 279.21749,206.23418 273.48209,207.59633 262.79838,210.13371 258.39753,213.07792 257.26471,218.44591 256.93046,220.02978 256.65699,222.01818 256.65699,222.86457 256.65699,224.79725 250.48569,246.3417 247.20086,255.87658 243.07676,267.84764 238.83758,276.55125 230.7487,289.65512 226.02737,297.3036 220.46776,305.42378 216.73479,310.12335 210.74018,317.67017 195.9734,331.76021 192.90909,332.85715 192.36928,333.05039 187.35611,335.87056 181.76873,339.12419 169.42851,346.31013 167.10227,347.48918 162.91493,348.68024 153.34231,351.40309 151.73443,355.41488 154.9961,368.43824 156.85692,375.86823 157.7452,388.49114 157.76309,407.75867 157.76901,414.13567 158.01119,420.9942 158.30126,422.99984 159.14422,428.82829 157.61608,431.14136 153.94067,429.60023 Z"
     id="path3773"
     inkscape:connector-curvature="0" />
</svg>
