<?xml version="1.0" encoding="UTF-8" standalone="no"?>
<!-- Created with Inkscape (http://www.inkscape.org/) -->

<svg
   xmlns:dc="http://purl.org/dc/elements/1.1/"
   xmlns:cc="http://creativecommons.org/ns#"
   xmlns:rdf="http://www.w3.org/1999/02/22-rdf-syntax-ns#"
   xmlns:svg="http://www.w3.org/2000/svg"
   xmlns="http://www.w3.org/2000/svg"
   xmlns:sodipodi="http://sodipodi.sourceforge.net/DTD/sodipodi-0.dtd"
   xmlns:inkscape="http://www.inkscape.org/namespaces/inkscape"
   version="1.1"
   id="svg3799"
   width="512"
   height="513"
   viewBox="0 0 512 513"
   sodipodi:docname="U+5357.svg"
   inkscape:version="0.92.4 (5da689c313, 2019-01-14)">
  <metadata
     id="metadata3805">
    <rdf:RDF>
      <cc:Work
         rdf:about="">
        <dc:format>image/svg+xml</dc:format>
        <dc:type
           rdf:resource="http://purl.org/dc/dcmitype/StillImage" />
        <dc:title></dc:title>
      </cc:Work>
    </rdf:RDF>
  </metadata>
  <defs
     id="defs3803" />
  <sodipodi:namedview
     pagecolor="#ffffff"
     bordercolor="#666666"
     borderopacity="1"
     objecttolerance="10"
     gridtolerance="10"
     guidetolerance="10"
     inkscape:pageopacity="0"
     inkscape:pageshadow="2"
     inkscape:window-width="1920"
     inkscape:window-height="1017"
     id="namedview3801"
     showgrid="false"
     inkscape:zoom="1.8401559"
     inkscape:cx="244.09521"
     inkscape:cy="273.37218"
     inkscape:window-x="-8"
     inkscape:window-y="-8"
     inkscape:window-maximized="1"
     inkscape:current-layer="svg3799" />
  <path
     style="fill:#000000;stroke:#000000;stroke-width:1px;stroke-linecap:butt;stroke-linejoin:miter;stroke-opacity:1"
     d="M 182.59322,28.801906 C 180.99923,33.429304 188.69196,36.459456 191.83157,40.213983 195.20944,44.253431 199.04985,47.918128 202.15678,52.169491 206.04293,57.48709 210.69397,62.676961 212.48199,69.015889 213.56387,72.851396 213.54576,77.13083 212.48199,80.971398 211.9181,83.007231 210.86061,85.073209 209.2214,86.40572 205.79852,89.18818 200.96088,89.530878 196.72246,90.753178 189.75607,92.762186 182.64765,94.270807 175.5286,95.644067 167.42841,97.206588 153.79131,99.448093 151.07415,99.448093 148.35699,99.448093 136.67822,102.79024 129.33686,103.25212 125.53604,103.49125 121.70219,103.19309 117.92479,102.70869 114.43618,102.26133 110.40868,102.65144 107.59958,100.53496 104.81668,98.438219 105.69377,93.093873 102.70869,91.29661 100.2257,89.801645 96.834545,90.630716 94.013771,91.29661 89.283192,92.413348 83.672531,93.776835 80.971398,97.817796 79.558493,99.931537 78.768525,102.90628 78.427966,105.42585 78.180523,107.25652 78.634166,109.15347 79.341102,110.86017 80.590801,113.87721 85.003198,114.18091 87.492585,116.29449 90.32588,118.70006 92.926909,121.72881 95.100636,124.44597 97.274367,127.16314 104.67575,132.97813 109.22987,137.48835 112.23456,140.46408 114.49822,144.24843 117.92479,146.72669 120.3544,148.4839 123.08868,150.2756 126.07627,150.53072 128.13414,150.70645 130.33861,150.05067 132.05403,148.90042 134.52162,147.24581 135.42274,143.97121 137.48835,141.8358 140.26195,138.96847 143.45118,136.50488 146.7267,134.22775 152.05834,130.52121 158.28851,128.21931 163.57309,124.44597 166.49931,122.35657 168.58842,119.14001 171.72458,117.38136 175.37224,115.33588 179.68121,114.80142 183.68008,113.57733 186.74938,112.63779 189.74132,111.3177 192.91843,110.86017 195.78714,110.44705 198.86377,109.94365 201.61335,110.86017 203.33183,111.433 204.33051,111.94703 205.96081,114.12076 207.5911,116.29449 205.46837,121.49247 204.50424,124.98941 203.28909,129.39683 201.19093,132.44723 198.89619,136.40148 195.6433,142.0068 193.25096,148.07289 190.20127,153.79131 186.57475,160.59132 180.96292,172.26801 178.7892,173.8983 176.61547,175.5286 168.12658,190.97615 161.9428,198.89619 158.94323,202.73797 153.79131,207.5911 152.16102,209.76483 150.53072,211.93856 143.24538,220.03894 138.57521,224.98093 135.05619,228.70478 131.79693,232.76421 127.70657,235.84958 124.72874,238.09576 120.83536,238.95122 117.92479,241.2839 116.22272,242.64803 113.22442,244.02226 113.57733,246.17479 114.04989,249.05717 118.26868,250.36644 121.18538,250.52225 124.34442,250.691 126.98055,247.98292 129.8803,246.71822 134.04454,244.90202 138.39029,243.45823 142.37924,241.2839 145.24655,239.72096 147.48017,237.01509 150.53072,235.84958 152.92377,234.93528 155.6277,234.25562 158.13877,234.76271 160.20945,235.18086 162.19197,236.42484 163.57309,238.0233 165.11269,239.80517 165.43016,242.35231 166.29025,244.54449 167.62991,247.95898 168.44805,251.592 170.09428,254.8697 172.32674,259.31461 175.48263,263.23267 178.24576,267.36864 180.56238,270.83625 182.88129,274.30409 185.31038,277.69386 187.9482,281.37491 190.84626,284.86563 193.46186,288.5625 195.34799,291.22835 199.41928,293.49053 198.89619,296.71398 198.56536,298.75267 195.89078,299.67499 194.0053,300.51801 188.4587,302.99795 182.0724,302.82448 176.07203,303.7786 172.09988,304.41021 168.09995,304.85278 164.11653,305.4089 161.57937,305.76311 159.05157,306.1871 156.50847,306.49576 154.70126,306.71511 152.49614,305.90249 151.07415,307.03919 149.28439,308.46987 148.45995,311.3118 148.90042,313.56038 149.22146,315.1993 150.83252,316.35237 152.16102,317.36441 154.86833,319.42682 158.35153,320.19734 161.39936,321.71186 165.24503,323.62284 168.67158,326.54831 172.81144,327.68962 175.95962,328.55753 179.51308,329.31796 182.59322,328.23305 184.89184,327.42341 186.22018,324.97698 188.02754,323.34216 190.02465,321.53571 191.57722,319.07239 194.0053,317.90784 197.14701,316.40102 200.91229,316.95329 204.33051,316.27754 208.16663,315.51918 211.98208,314.63256 215.74258,313.56038 217.94608,312.93213 220.04691,310.80731 222.26377,311.38665 224.86917,312.06753 226.55143,314.92784 227.69809,317.36441 228.78891,319.68233 228.35245,322.44747 228.78496,324.97246 229.40874,328.61405 230.59463,332.16445 230.95869,335.8411 231.27998,339.08583 232.01687,342.53877 230.95869,345.62288 230.2884,347.57645 228.88523,349.38646 227.15466,350.51377 223.3998,352.95972 218.49965,352.86184 214.11229,353.77436 204.40336,355.79369 194.53495,356.95431 184.76695,358.66525 175.87774,360.22226 166.9412,361.56627 158.13877,363.55614 153.38136,364.63159 150.88277,365.15747 146.00953,365.36017 143.98603,365.44434 138.93567,364.46095 138.03178,366.2733 136.60146,369.14118 140.78545,370.57413 143.0964,372.79449 144.20477,373.85941 147.19581,375.048 148.35699,376.05508 150.40968,377.83537 151.07415,379.31567 154.87818,380.94597 158.6822,382.57626 162.22924,385.25776 166.29025,386.3803 169.97337,387.39839 174.44174,389.09746 177.70233,387.46716 180.96292,385.83686 187.74135,383.1905 192.91843,381.48941 198.26161,379.73374 203.99271,379.21383 209.2214,377.14195 211.70787,376.15668 213.6185,373.53188 216.28602,373.33792 218.40067,373.18416 220.39917,374.50235 222.26377,375.51165 223.8568,376.37395 225.80113,377.15205 226.61123,378.77225 227.42133,380.39245 226.61123,382.39513 226.61123,384.20657 226.61123,386.3803 226.76808,388.55969 226.61123,390.72775 225.88476,400.76927 223.79722,410.66623 222.26377,420.61653 221.06176,428.41618 219.61537,436.17745 218.45975,443.98411 217.25552,452.11908 214.93257,460.21926 215.19915,468.43856 215.25903,470.2849 215.532,472.18646 216.28602,473.87288 217.0254,475.52655 218.23068,476.97549 219.54661,478.22034 222.3934,480.91336 226.00414,482.66646 229.32839,484.74153 231.46315,486.07409 233.33341,488.5026 235.84958,488.54555 238.52375,488.59119 241.39556,486.94312 242.9142,484.74153 246.85639,479.02649 245.17753,471.01906 245.63136,464.0911 246.49574,450.89586 245.52298,437.64362 245.63136,424.42055 245.72193,413.36965 245.92177,402.31956 246.17479,391.27119 246.31586,385.11124 246.28708,378.94095 246.71822,372.79449 246.94778,369.52187 246.38394,369.96958 247.80509,367.01271 248.5819,365.39646 252.01855,362.03682 253.60911,361.20869 256.38272,359.76459 257.75531,360.04418 260.84746,359.57839 269.51228,358.27314 278.21152,355.17369 286.9322,354.3178 294.52317,353.57279 302.40015,354.70343 309.75636,352.6875 312.88154,351.83106 317.72152,351.4972 318.45127,348.34004 319.3243,344.56297 314.55988,341.32858 311.38665,339.10169 308.43228,337.0284 304.6418,336.29699 301.06144,335.8411 297.64254,335.40577 294.14626,335.8845 290.73623,336.38453 283.91145,337.38527 277.38692,339.89235 270.62924,341.27542 266.31132,342.15916 261.9942,343.4216 257.58686,343.44915 255.20433,343.46404 252.44758,343.76578 250.52225,342.36229 249.21299,341.40789 248.42085,339.63342 248.34852,338.01483 248.10525,332.57087 254.40953,328.24749 254.32627,322.79873 254.28412,320.03995 252.95851,317.19813 251.06568,315.19068 249.67629,313.71716 246.77307,314.14628 245.63136,312.47352 244.50343,310.82095 244.44173,308.38934 245.08792,306.49576 246.20561,303.22046 249.21252,300.71338 252.15254,298.88771 258.09269,295.19905 265.30988,293.68068 272.25953,292.90996 280.1997,292.02939 288.18794,294.85573 296.17055,294.54025 301.11096,294.345 306.71597,295.08896 310.84322,292.36653 313.15135,290.84403 314.35981,287.93917 315.19068,285.30191 316.11762,282.3597 317.24283,278.75421 315.73411,276.06356 314.22799,273.37756 310.57013,272.46298 307.58263,271.7161 305.12233,271.10103 302.48157,271.33351 299.97458,271.7161 296.97281,272.1742 293.81539,272.76275 291.27966,274.43326 289.88503,275.35202 289.62854,277.79149 288.01907,278.23729 286.36294,278.69601 284.39278,277.77059 283.12818,276.60699 282.11299,275.67288 281.44722,274.18159 281.49788,272.80297 281.70019,267.2974 285.94917,262.6455 289.10593,258.1303 292.48521,253.29683 292.52819,250.41377 295.06144,245.08792 297.73536,239.46631 300.47708,232.79706 299.7786,226.61123 299.38606,223.13485 300.5084,221.24172 297.97458,218.82945 296.72994,217.64452 296.42418,216.27445 295.08369,215.19915 294.25978,214.53823 293.49393,213.53745 293.45339,212.48199 293.36012,210.05348 294.7461,207.38693 296.71398,205.9608 304.72098,200.1581 316.22575,202.65461 326.05932,201.61335 348.62251,199.22417 371.37486,199.1196 393.98835,197.26589 401.24591,196.67096 408.44376,195.10933 415.72564,195.09216 419.54687,195.08315 423.37154,195.53268 427.13771,196.17903 433.76274,197.31602 441.45792,196.86384 446.70127,201.06991 449.54488,203.35097 450.75461,207.30376 451.59216,210.85169 452.54938,214.90655 451.92796,219.19788 451.59216,223.35064 450.95609,231.21669 449.15949,238.94656 447.78814,246.71822 442.56534,276.31668 436.94235,305.84704 430.94174,335.29767 426.68559,356.1866 422.52147,377.10954 417.35593,397.79237 415.25779,406.19332 412.65815,414.46101 410.29131,422.79025 409.20991,426.59583 410.40857,432.14272 407.03072,434.20233 404.66486,435.64489 401.47427,433.54369 398.87924,432.57203 393.40844,430.5236 388.65782,426.90678 383.66314,423.87712 381.08545,422.31355 379.06987,419.00543 376.05509,418.98623 374.34621,418.97535 372.63323,420.26685 371.70763,421.70339 370.22291,424.00769 370.21131,427.14441 370.62076,429.85487 371.39555,434.98386 375.09116,439.21955 377.14195,443.98411 379.84162,450.25621 382.11741,456.70368 384.75,463.00424 387.72115,470.11508 391.0172,477.08725 393.98835,484.19809 395.49269,487.79841 395.55837,492.32609 398.33581,495.06674 400.13172,496.83887 402.93234,498.30766 405.40042,497.7839 409.66055,496.87984 412.39947,492.28073 414.63877,488.54555 420.0898,479.45317 421.16513,468.36177 423.87712,458.11335 433.94991,420.04899 441.15227,381.28212 449.96186,342.90572 456.57812,314.08392 461.86991,284.91212 470.06886,256.5 472.83254,246.92293 473.75479,236.12816 479.85064,228.24153 481.44831,226.17451 484.44615,225.65956 486.37182,223.89407 488.08172,222.3264 490.25208,220.73199 490.71928,218.45975 491.81679,213.12201 489.11389,207.40946 486.37182,202.70021 484.43825,199.37948 481.31278,196.82968 478.22034,194.54873 472.28622,190.17179 466.99332,187.99442 460.65678,184.22352 455.60546,181.21745 449.36935,178.79788 443.98411,176.44174 439.03319,174.27562 433.60865,173.1019 428.22458,172.63771 414.29877,171.43709 400.31912,172.31619 386.3803,173.35487 366.98322,174.80028 347.55228,175.98674 328.23305,178.24576 313.67856,179.94763 299.20633,182.31974 284.75847,184.76695 268.40022,187.53775 251.95017,190.00023 235.84958,194.0053 230.5119,195.33306 225.37502,197.37212 220.09004,198.89619 217.38804,199.67539 214.08505,199.25317 211.93856,201.06991 210.26786,202.48395 209.08466,204.86317 209.2214,207.04767 209.39414,209.80731 211.10856,212.85039 213.56886,214.11229 220.35566,217.59326 228.78734,213.05784 236.39301,212.48199 245.45322,211.79601 255.0948,213.59764 263.56462,210.30826 265.48988,209.56055 266.44132,206.04737 268.45551,206.50424 270.8256,207.04184 271.00026,210.70294 271.7161,213.02542 273.70821,219.48863 274.90187,226.38541 274.43326,233.13241 274.10741,237.82388 271.90922,242.19299 270.62924,246.71822 269.55244,250.52511 268.73438,254.41726 267.36864,258.1303 265.10187,264.29295 262.62854,270.45295 259.21716,276.06356 257.54159,278.81932 255.95323,281.92893 253.23941,283.67161 248.69218,286.59162 242.74436,286.25543 237.47987,287.47564 232.59906,288.60692 227.7362,289.83786 222.8072,290.73623 219.02683,291.42525 214.51245,294.61336 211.39513,292.36653 209.75216,291.18234 210.54603,288.40002 210.30826,286.38877 209.92486,283.14573 209.71382,279.87221 209.76483,276.60699 209.83015,272.42546 211.92441,268.15017 210.8517,264.10805 209.38238,258.57142 204.56882,254.51432 201.06992,249.97881 196.98954,244.68954 193.61411,238.42552 188.02754,234.76271 185.96709,233.41179 183.26075,233.47803 180.96292,232.58898 177.78883,231.3609 174.08872,230.68977 171.72458,228.24153 170.76628,227.24914 169.88839,225.8016 170.09428,224.4375 170.8039,219.73593 176.37202,217.28948 179.33263,213.56886 185.37824,205.9713 191.52955,198.40529 196.72246,190.20127 201.88,182.05313 206.08308,173.32831 210.30826,164.65996 214.21669,156.64147 217.47445,148.32116 221.17691,140.20551 225.0786,131.65316 230.86258,123.78635 233.13242,114.66419 234.00831,111.14412 232.5383,107.23997 233.67585,103.79555 234.49513,101.31484 235.83624,98.703305 238.02331,97.274364 243.25894,93.85362 250.36946,95.250587 256.5,94.013771 264.51217,92.397344 272.2884,89.490853 280.41102,88.579449 291.93194,87.286736 303.60218,88.248619 315.19068,88.579449 327.88628,88.941885 340.57678,91.840402 353.23093,90.753178 361.19863,90.068606 370.73738,90.759441 376.59852,85.318855 378.82403,83.253033 380.1538,79.542511 379.31568,76.62394 378.39376,73.413559 374.68776,71.611168 371.70763,70.102754 364.57251,66.491258 356.21296,66.072011 348.34004,64.668432 344.02676,63.899463 339.67049,63.310377 335.29767,63.038135 329.51226,62.677948 323.42032,61.245566 317.90784,63.038135 315.56479,63.800059 314.17769,66.376272 311.93009,67.385593 306.51715,69.816362 300.35655,70.015231 294.54025,71.189618 284.78895,73.158531 276.87944,76.349169 267.19492,78.62394 262.05968,79.830143 255.25341,81.036241 249.97881,80.971398 246.94251,80.934072 242.66743,80.957259 241.2839,78.254237 240.23991,76.214582 243.41673,74.023997 243.45763,71.73305 243.57221,65.314311 241.46759,58.673944 238.02331,53.256355 234.64968,47.949896 229.20635,44.12187 223.89407,40.757415 218.06671,37.066745 211.29499,35.125702 204.87394,32.605932 199.86036,30.638485 195.03455,27.484417 189.65784,27.17161 187.24516,27.031245 183.38033,26.51691 182.59322,28.801906 Z"
     id="path3809"
     inkscape:connector-curvature="0"
     sodipodi:nodetypes="ssssssssssssssssssssssssssssssssssssssssssssssssssssssssssssssssssssssssssssssssssssssssssssssssssssssssssssssssssssssssssssssssssssssssssssssssssssssssssssssssssssssssssssssssssssssssssssssssssssssssssssssssssssssssssssssssssss" />
  <path
     style="fill:#000000;stroke:#000000;stroke-width:1px;stroke-linecap:butt;stroke-linejoin:miter;stroke-opacity:1"
     d="M 33.149364,196.17903 C 28.674246,198.57312 33.146862,206.34931 33.692797,211.39513 33.910649,213.40863 33.149364,214.11229 34.779661,217.37288 36.409958,220.63347 38.504364,230.86055 40.757415,237.47987 44.009327,247.03378 48.944328,256.00899 51.626059,265.73835 54.459038,276.01644 55.728188,286.67961 57.060381,297.25742 58.195741,306.27235 58.682591,315.35964 59.23411,324.42903 59.76234,333.11544 60.047258,341.81562 60.320975,350.51377 60.588818,359.02525 61.552734,367.56725 60.864407,376.05508 60.462353,381.01285 59.351294,385.90163 58.147246,390.72775 57.273563,394.22968 54.95816,397.44441 54.886653,401.05297 54.845734,403.11792 54.34322,403.77013 56.516949,407.03072 58.690678,410.29131 61.830255,414.48854 64.125,418.4428 66.361361,422.29645 69.01589,427.68114 70.102754,430.3983 71.189619,433.11547 74.69559,437.58677 78.254237,439.63665 80.655342,441.01975 83.836474,442.30486 86.40572,441.26695 89.061352,440.19414 90.539228,436.96452 91.29661,434.20233 94.706005,421.7682 89.469416,408.48097 88.579449,395.61864 87.288589,376.96237 85.026702,358.21 82.775424,339.64513 80.627927,321.93608 76.638253,304.73696 75.537076,286.9322 75.089241,279.69122 76.44274,272.44746 76.623941,265.19491 76.813964,257.58923 78.855586,249.64415 76.623941,242.37076 74.634413,235.88648 69.456251,230.81485 65.211864,225.52436 59.598785,218.52784 53.484699,211.86857 46.73517,205.9608 42.536167,202.28547 38.06979,193.54671 33.149364,196.17903 Z"
     id="path3811"
     inkscape:connector-curvature="0"
     sodipodi:nodetypes="sssssssssssssssssssssssss" />
</svg>
