<?xml version="1.0" encoding="UTF-8" standalone="no"?>
<!-- Created with Inkscape (http://www.inkscape.org/) -->

<svg
   xmlns:dc="http://purl.org/dc/elements/1.1/"
   xmlns:cc="http://creativecommons.org/ns#"
   xmlns:rdf="http://www.w3.org/1999/02/22-rdf-syntax-ns#"
   xmlns:svg="http://www.w3.org/2000/svg"
   xmlns="http://www.w3.org/2000/svg"
   xmlns:sodipodi="http://sodipodi.sourceforge.net/DTD/sodipodi-0.dtd"
   xmlns:inkscape="http://www.inkscape.org/namespaces/inkscape"
   version="1.1"
   id="svg3831"
   width="512"
   height="513"
   viewBox="0 0 512 513"
   sodipodi:docname="U+6211.svg"
   inkscape:version="0.92.4 (5da689c313, 2019-01-14)">
  <metadata
     id="metadata3837">
    <rdf:RDF>
      <cc:Work
         rdf:about="">
        <dc:format>image/svg+xml</dc:format>
        <dc:type
           rdf:resource="http://purl.org/dc/dcmitype/StillImage" />
        <dc:title></dc:title>
      </cc:Work>
    </rdf:RDF>
  </metadata>
  <defs
     id="defs3835" />
  <sodipodi:namedview
     pagecolor="#ffffff"
     bordercolor="#666666"
     borderopacity="1"
     objecttolerance="10"
     gridtolerance="10"
     guidetolerance="10"
     inkscape:pageopacity="0"
     inkscape:pageshadow="2"
     inkscape:window-width="1920"
     inkscape:window-height="1017"
     id="namedview3833"
     showgrid="false"
     inkscape:zoom="1.8401559"
     inkscape:cx="223.03288"
     inkscape:cy="380.58801"
     inkscape:window-x="-8"
     inkscape:window-y="-8"
     inkscape:window-maximized="1"
     inkscape:current-layer="svg3831" />
  <path
     style="fill:#000000;stroke:#000000;stroke-width:1px;stroke-linecap:butt;stroke-linejoin:miter;stroke-opacity:1"
     d="M 281.49788,84.775423 C 282.04131,86.949152 290.73623,90.753176 292.36653,94.013771 293.99682,97.274362 302.14831,102.70869 305.95233,103.25212 309.75636,103.79555 323.88559,114.66419 326.05932,114.66419 328.23305,114.66419 335.05932,116.77806 339.64513,116.83792 342.3861,116.8737 345.99091,117.8135 347.79661,115.75106 349.7058,113.57042 348.41836,109.88697 347.79661,107.05614 347.24023,104.52293 346.11876,102.04618 344.53602,99.991525 341.23819,95.7104 336.92936,91.961815 332.03708,89.666313 325.86183,86.768831 318.63434,87.120121 311.93009,85.862288 304.1431,84.401314 296.42429,80.533087 288.5625,81.51483 285.9889,81.836209 280.34467,80.162571 281.49788,84.775423 Z"
     id="path3845"
     inkscape:connector-curvature="0"
     sodipodi:nodetypes="ssssssssssss" />
  <path
     style="fill:#000000;stroke-width:0.54343218"
     d="M 474.49232,489.06815 C 471.4366,487.74259 469.24297,485.78613 465.83265,481.34476 462.50693,477.01356 459.31038,473.78582 450.69311,466.05747 447.92839,463.57795 445.66636,461.2367 445.66636,460.85468 445.66636,459.80603 441.63911,455.8132 429.36339,444.69103 411.99145,428.95153 383.77575,398.88547 365.70434,376.85729 355.93666,364.95095 330.47513,327.23008 326.55798,318.86256 320.48634,305.89276 314.77753,301.53982 308.99021,305.46719 305.115,308.09698 303.64537,310.46472 302.75878,315.50669 301.62296,321.96602 294.9567,334.05114 287.76432,342.6898 280.62283,351.26735 267.78616,361.88713 250.56988,373.46079 242.63689,378.79374 233.97596,382.38594 225.34065,383.92485 216.42831,385.51312 208.64615,383.57347 203.9495,378.59325 201.61409,376.11685 200.62533,373.03425 199.92741,366.05387 199.27958,359.57448 199.29251,359.36901 200.4875,357.15192 202.0177,354.31288 203.85068,352.94833 206.63595,352.57475 208.60594,352.31052 209.01254,352.48411 211.07679,354.4707 212.32655,355.67345 213.88324,356.93062 214.53609,357.26442 219.25635,359.67784 232.43359,354.12941 246.87682,343.64698 262.98421,331.95676 277.10648,319.95822 290.86861,306.27072 301.64753,295.55027 303.60275,292.84869 304.19161,287.86206 304.4627,285.56641 304.21729,284.80237 301.63058,279.8888 300.05711,276.89992 297.24994,271.88676 295.39243,268.74844 290.3851,260.28839 281.72182,244.24209 278.80129,238.018 272.27294,224.10508 262.85838,197.56064 261.96112,190.53703 261.67777,188.31892 261.07484,185.93776 260.62129,185.24555 259.2236,183.11241 255.61706,181.64455 251.11191,181.37525 247.50245,181.15949 246.52833,181.32695 242.68871,182.8233 235.14513,185.76313 206.62573,194.08501 197.95367,195.87686 188.39166,197.85259 184.04411,199.43469 180.19973,202.33764 175.00296,206.26178 173.69558,209.61367 169.87586,228.80617 166.73203,244.60264 166.40153,246.86153 166.37745,252.71719 166.31692,267.43856 170.75043,269.64715 181.89409,260.44691 183.95107,258.74866 188.69085,255.16606 192.42695,252.48557 221.49576,231.62994 220.65498,232.31974 226.25694,224.73043 229.7931,219.93977 233.85282,215.49208 234.68942,215.49208 237.1438,215.49208 237.89079,221.91801 235.89189,225.83619 234.10379,229.34114 229.28952,234.54469 209.91634,253.91205 189.10908,274.71309 184.92936,278.42694 176.12398,283.93801 168.96235,288.4203 166.77031,290.3451 165.24945,293.48678 163.80144,296.47796 163.87983,297.901 165.79778,303.44101 167.30725,307.80111 171.08687,324.22801 173.06996,335.04717 175.60834,348.89588 176.30449,363.23036 174.81639,371.00799 174.3961,373.20465 171.79523,382.82454 169.03669,392.38551 166.27816,401.94648 162.96195,413.86173 161.66735,418.86383 159.11791,428.71435 158.51778,430.20542 155.9046,433.18166 151.86939,437.77752 149.73999,437.04774 141.83144,428.35856 132.88589,418.53004 127.03479,410.49434 117.96421,395.58016 114.89393,390.5319 111.50832,385.17879 110.44062,383.68435 105.37734,376.59733 95.685355,364.29794 92.603795,361.04889 89.218565,357.47968 88.480095,355.93007 89.904025,355.38366 91.210315,354.88239 109.85459,364.82903 118.52017,370.65025 128.08195,377.0735 132.52364,379.14373 140.74411,381.00859 147.50375,382.54206 149.36648,382.6276 151.00518,381.47981 152.00992,380.77606 152.21486,380.11371 152.22423,377.53992 152.23043,375.83826 152.71946,371.51147 153.31097,367.92481 154.06717,363.33952 154.38648,358.81322 154.38657,352.67768 154.38666,346.14781 154.66882,342.4551 155.50768,338.00501 156.4235,333.14672 156.5649,330.90513 156.28023,325.75793 155.97621,320.26096 156.0841,318.90179 157.12628,315.09895 158.56727,309.84093 158.12345,308.33736 154.54824,306.36517 153.29544,305.67408 152.1099,304.60287 151.91369,303.98469 151.61189,303.03382 151.25375,302.90993 149.58812,303.18023 146.97183,303.60479 145.48839,304.7797 141.71776,309.41369 137.76308,314.27388 133.64079,317.63611 119.60704,327.44767 101.35102,340.2112 90.237325,348.69688 83.215525,355.23385 71.411595,366.22276 61.970225,372.54399 57.361135,372.54399 54.191875,372.54399 32.510665,359.52486 28.997565,355.51224 26.567465,352.73661 26.372135,351.42219 27.413385,344.8517 27.912715,341.70086 28.324185,338.38927 28.327775,337.49261 28.337055,335.17097 30.146195,331.48964 31.815305,330.39599 33.165085,329.51158 33.352245,329.51584 35.489595,330.47965 36.728225,331.0382 39.321215,332.6612 41.251795,334.08632 43.182375,335.51145 45.278745,336.70453 45.910385,336.73761 49.254125,336.91275 51.018605,336.2747 55.311815,333.33798 56.563195,332.48199 62.799085,329.36503 69.169345,326.41142 83.426985,319.80076 86.570325,317.98907 103.30407,306.73758 110.62682,301.81389 120.28633,295.7408 124.76964,293.24182 136.135,286.90684 149.70111,278.71771 150.74965,277.55909 151.23279,277.02522 152.04654,275.6192 152.55799,274.43459 153.78669,271.58869 153.79076,262.64217 152.56645,255.81453 152.00834,252.70207 151.63904,247.58709 151.60517,242.50044 151.55409,234.82786 151.65103,233.97876 152.96844,230.55992 154.65755,226.17644 154.75997,223.44726 153.32374,221.09179 151.87106,218.70931 149.8858,217.5323 147.37832,217.56691 144.60343,217.60521 137.05572,221.40428 128.88475,226.87546 125.42589,229.19149 118.4196,233.19522 113.31522,235.77266 98.573655,243.21635 95.847685,245.24035 89.636475,253.35388 84.667165,259.84515 81.413125,261.23208 71.242035,261.19396 57.559075,261.14266 51.103265,258.92923 42.879525,251.46961 36.621825,245.79336 26.563945,238.00713 23.462045,236.43772 22.093665,235.7454 18.895455,234.62383 16.354915,233.94535 12.456305,232.90419 11.374285,232.35354 9.4186455,230.41539 7.1006655,228.11814 6.8306055,226.79528 8.5452955,226.13729 8.9859855,225.96818 11.106846,226.44884 13.258305,227.20543 15.409775,227.96201 19.615505,229.05817 22.604385,229.64133 25.593255,230.2245 30.484145,231.58921 33.473025,232.67402 42.304165,235.87929 46.694425,235.38954 67.980975,228.82448 73.211505,227.21132 83.115555,224.29975 89.989975,222.35432 103.44479,218.54668 110.32184,216.35405 124.76964,211.26543 129.95411,209.43943 135.54562,207.8355 137.51209,207.61026 140.31648,207.28904 141.32025,206.90484 142.53884,205.68625 145.67908,202.54602 144.0973,199.21036 138.46945,197.10471 132.02563,194.69377 121.6556,188.9024 117.16159,185.20488 113.18698,181.93469 108.73839,177.23894 108.73839,176.31368 108.73839,175.75789 109.36337,174.89365 110.12724,174.39315 111.31739,173.61333 112.48375,173.53219 118.28004,173.82595 126.30773,174.23282 132.43834,175.66959 137.53185,178.33783 139.54038,179.39 142.19972,180.38714 143.44149,180.5537 145.50635,180.83065 145.85729,180.68896 147.54896,178.89526 149.99948,176.29696 151.58257,171.37134 152.18085,164.48362 152.91478,156.0342 151.74089,153.52608 147.0653,153.55378 144.44379,153.5693 142.39256,154.06884 137.04159,155.99487 131.66057,157.93171 128.91898,157.94446 126.42767,156.04425 124.44892,154.53498 123.97482,153.01398 125.17722,152.03259 125.55574,151.72364 128.3829,151.50749 131.56254,151.54441 136.7367,151.6045 137.57237,151.46975 140.52757,150.09889 146.488,147.33398 147.89012,144.94772 146.4951,139.94277 144.99563,134.56309 144.58202,129.58257 144.1042,111.1531 143.64942,93.612488 143.5804,92.793368 142.21271,88.707958 140.73686,84.299488 140.85121,82.865228 142.73618,82.141898 143.52539,81.839048 154.55686,84.156558 160.08863,85.787318 163.03198,86.655018 163.80197,88.415908 163.80885,94.295068 163.81485,99.420748 162.04883,110.84449 160.03839,118.68479 159.32106,121.48222 158.73415,124.80032 158.73415,126.05834 158.73415,129.46209 160.25579,133.95219 162.00055,135.69695 164.73885,138.43525 166.11482,138.05781 181.30706,130.40092 188.76799,126.64061 196.67623,122.98861 198.8809,122.28536 204.18968,120.59197 206.01345,118.86519 206.01072,115.53474 206.00801,112.22064 204.74367,110.30471 200.01919,106.45541 197.87114,104.70527 194.70695,102.13263 192.98766,100.73844 187.72342,96.469588 186.32186,93.907888 188.5872,92.695518 190.20323,91.830648 191.07736,91.987458 195.86501,94.001118 198.30795,95.028608 203.97489,97.374148 208.4582,99.213428 212.94152,101.05271 219.54422,103.96925 223.13087,105.69463 233.53649,110.70033 237.31825,111.7741 239.5023,110.34306 241.26431,109.18855 241.17753,107.46506 238.92741,98.925868 237.90354,95.040328 235.71773,85.380818 234.07004,77.460298 230.82817,61.876528 230.20685,59.720838 227.65267,55.195078 223.28737,47.460178 220.02468,44.222128 214.53122,42.172738 208.06125,39.759048 202.75216,36.233128 202.75216,34.349928 202.75216,32.589458 204.4732,32.085828 211.12293,31.900368 221.72683,31.604618 222.54371,31.664718 226.4677,33.029348 233.03755,35.314118 237.84913,38.529498 244.07485,44.795478 253.45982,54.241148 256.97611,60.754628 255.99516,66.876368 255.4678,70.167418 252.80801,79.584438 250.91018,84.879778 249.01937,90.155528 248.71856,92.505538 249.47044,96.127318 249.92314,98.307988 250.63026,99.755838 251.90019,101.10237 253.59692,102.90143 253.88152,103.00161 257.29541,103.00161 261.62089,103.00161 263.07314,104.03505 263.07314,107.11308 263.07314,109.48651 262.40417,110.85252 260.01777,113.35203 259.00577,114.412 257.69397,116.65573 257.10268,118.33809 254.75213,125.02581 255.09379,130.54575 258.72658,144.57418 259.88756,149.05749 261.0939,154.62383 261.40731,156.9438 262.71787,166.64498 264.9225,168.16879 275.02865,166.3587 279.96686,165.47423 297.89334,159.63278 304.6457,156.70781 315.25827,152.11069 321.01708,151.3407 326.65471,153.76505 328.29859,154.47197 331.35539,155.79177 333.44761,156.69793 335.59084,157.62619 341.24715,159.18367 346.40334,160.26533 351.43677,161.32123 357.00945,162.74676 358.78706,163.43316 362.29639,164.78824 372.17259,171.17519 373.06718,172.66812 374.08782,174.3714 372.76691,176.50095 369.20756,178.89055 364.12063,182.30571 359.52053,183.68108 353.28288,183.65182 348.45055,183.62916 347.68571,183.46074 341.32737,181.01906 337.59128,179.58436 332.70039,178.06593 330.45873,177.64478 326.55221,176.91085 293.62077,175.49882 284.88734,175.69079 276.39146,175.87753 271.60134,178.73746 269.88298,184.64911 268.81069,188.33806 269.11028,189.67255 271.26031,190.78437 273.43565,191.90928 275.07551,195.38182 278.00485,205.06647 281.10936,215.33025 288.70558,233.71305 295.67425,247.8263 298.62587,253.80405 301.77776,260.3507 302.67845,262.37441 304.83749,267.22544 306.13853,268.97386 308.38109,270.03802 310.92133,271.24344 313.33352,270.65811 315.73511,268.25351 317.42467,266.56183 317.77599,265.74871 318.33991,262.2248 318.69842,259.98449 320.02936,255.46152 321.29756,252.17375 L 323.60337,246.196 323.92685,236.41422 C 324.26869,226.07736 324.85896,223.57084 327.1204,222.85309 329.4881,222.10161 333.10647,224.95756 335.00696,229.07789 335.93915,231.09888 336.13033,232.56088 336.10846,237.50109 336.0939,240.78885 335.76888,244.94611 335.38619,246.73943 334.08442,252.83965 328.8914,265.54659 324.6821,272.93155 320.01788,281.11462 318.65145,284.37781 318.18882,288.4382 317.87298,291.2103 317.95273,291.43406 320.70955,295.51082 322.27534,297.82628 324.88612,301.24991 326.51127,303.11887 329.28587,306.3097 330.27885,307.8491 335.97692,317.79319 339.28467,323.56578 347.95001,336.70648 351.60391,341.49101 357.67136,349.43591 384.05102,378.3796 394.17805,388.20324 418.06387,411.37346 436.343,424.26641 448.78116,426.71687 452.60897,427.47099 453.39702,427.47645 455.82171,426.76568 458.44726,425.99602 469.33694,419.2218 485.06519,408.57399 491.61102,404.14255 492.25896,403.54716 493.88845,400.46624 495.89386,396.67457 500.50295,392.95931 502.79852,393.28408 503.94205,393.44586 504.10373,393.78724 504.25066,396.35038 504.48139,400.37538 503.31506,403.90072 498.97706,412.29021 493.6369,422.61785 486.09973,439.70123 484.82052,444.37675 484.22222,446.56356 482.96427,452.26549 482.02509,457.0477 480.47209,464.95536 480.35564,466.25924 480.73891,471.44865 481.45787,481.18343 481.30827,483.32927 479.66858,486.80061 478.06864,490.1878 477.57344,490.40473 474.49232,489.06815 Z M 186.58187,190.98012 C 191.87699,190.15855 203.55574,186.10457 209.86033,182.8996 217.89755,178.81383 224.34208,177.38016 239.14531,176.3848 248.45888,175.75856 251.4849,174.86244 254.7051,171.77695 257.02681,169.55235 257.09538,169.38994 257.09538,166.11576 257.09538,161.91976 255.80441,158.01003 251.71197,149.81204 249.97545,146.33344 248.1381,142.21729 247.62896,140.66504 247.11982,139.11279 246.21147,137.21757 245.61041,136.45344 243.91546,134.29867 241.03925,134.59689 230.38747,138.03184 219.07799,141.67887 189.22384,147.71039 172.82601,149.66114 164.12127,150.6967 162.53339,153.46844 164.14923,164.80694 164.43753,166.82998 164.92735,171.17518 165.23771,174.46295 165.92786,181.77394 166.51599,183.99376 168.33589,186.15658 170.7105,188.97864 176.34791,191.33291 181.1825,191.52152 182.0219,191.55427 184.45163,191.31064 186.58187,190.98012 Z"
     id="path3849"
     inkscape:connector-curvature="0" />
</svg>
