<?xml version="1.0" encoding="UTF-8" standalone="no"?>
<!-- Created with Inkscape (http://www.inkscape.org/) -->

<svg
   xmlns:dc="http://purl.org/dc/elements/1.1/"
   xmlns:cc="http://creativecommons.org/ns#"
   xmlns:rdf="http://www.w3.org/1999/02/22-rdf-syntax-ns#"
   xmlns:svg="http://www.w3.org/2000/svg"
   xmlns="http://www.w3.org/2000/svg"
   xmlns:sodipodi="http://sodipodi.sourceforge.net/DTD/sodipodi-0.dtd"
   xmlns:inkscape="http://www.inkscape.org/namespaces/inkscape"
   version="1.1"
   id="svg3820"
   width="512"
   height="512"
   viewBox="0 0 512 512"
   sodipodi:docname="U+65BC.svg"
   inkscape:version="0.92.4 (5da689c313, 2019-01-14)">
  <metadata
     id="metadata3826">
    <rdf:RDF>
      <cc:Work
         rdf:about="">
        <dc:format>image/svg+xml</dc:format>
        <dc:type
           rdf:resource="http://purl.org/dc/dcmitype/StillImage" />
        <dc:title></dc:title>
      </cc:Work>
    </rdf:RDF>
  </metadata>
  <defs
     id="defs3824" />
  <sodipodi:namedview
     pagecolor="#ffffff"
     bordercolor="#666666"
     borderopacity="1"
     objecttolerance="10"
     gridtolerance="10"
     guidetolerance="10"
     inkscape:pageopacity="0"
     inkscape:pageshadow="2"
     inkscape:window-width="1920"
     inkscape:window-height="1017"
     id="namedview3822"
     showgrid="false"
     inkscape:zoom="1.84375"
     inkscape:cx="342.98617"
     inkscape:cy="234.96489"
     inkscape:window-x="-8"
     inkscape:window-y="-8"
     inkscape:window-maximized="1"
     inkscape:current-layer="svg3820" />
  <path
     style="fill:#000000;stroke:#000000;stroke-width:1px;stroke-linecap:butt;stroke-linejoin:miter;stroke-opacity:1"
     d="M 106.84746,56.949152 C 108.79459,63.726858 107.67837,72.974512 110.64407,80.271186 111.47502,82.315605 112.9668,84.05242 114.44068,85.694915 117.00776,88.555665 121.0205,90.067639 123.11864,93.288135 124.77296,95.827393 125.59198,98.944892 125.83051,101.9661 126.42013,109.43424 123.7458,116.80386 122.57627,124.20339 121.05895,133.80331 118.70478,143.28267 117.69492,152.94915 117.22492,157.44805 117.7189,162.02068 117.15254,166.50847 116.82844,169.07663 117.23115,172.15465 115.52542,174.10169 113.75437,176.12329 110.58042,176.35485 107.9322,176.81356 106.50709,177.06041 105.01999,176.57655 103.59322,176.81356 80.97689,180.57056 60.57981,192.84846 38.508475,199.05085 35.299166,199.95272 32.073484,201.02211 28.745763,201.22034 26.932052,201.32838 25.093479,201.08196 23.322034,200.67797 17.132633,199.26645 14.420036,197.03596 5.4237288,194.16949 3.8734037,193.67551 4.901981,197.50965 5.4237288,199.05085 6.6643823,202.71564 9.5833898,205.70001 12.474576,208.27119 17.502262,212.74239 23.887093,215.42269 29.830509,218.57627 32.831043,220.16835 35.688959,223.40068 39.050847,222.91525 41.205513,222.60414 42.095564,219.74509 43.932203,218.57627 64.360256,205.57608 86.929513,194.72234 110.64407,189.83051 111.70645,189.61136 112.8556,189.53146 113.89831,189.83051 115.53779,190.30071 117.63587,190.94635 118.23729,192.54237 118.90287,194.30864 116.95066,196.10955 116.61017,197.9661 116.15243,200.46199 114.81154,203.35459 116.0678,205.55932 116.66822,206.61305 118.116,207.31421 119.32203,207.18644 121.6244,206.94253 123.11864,205.01695 124.74576,202.84746 126.37288,200.67797 126.28402,190.15161 129.62712,184.94915 130.39047,183.76125 131.587,182.80159 132.88136,182.23729 145.9138,176.55557 161.04342,178.26318 175.18644,176.81356 177.53138,176.57321 179.88012,176.25482 182.23729,176.27119 184.23414,176.28506 186.20654,176.82776 188.20339,176.81356 191.65731,176.78901 195.31358,177.04137 198.50847,175.72881 200.65004,174.84899 203.68917,173.69229 203.9322,171.38983 204.20192,168.8345 201.0198,167.07469 199.05085,165.42373 195.08139,162.09535 190.50392,159.13842 185.49153,157.83051 182.69259,157.10017 179.70622,157.83051 176.81356,157.83051 172.65537,157.83051 168.47694,157.42077 164.33898,157.83051 161.58687,158.10302 158.78999,158.47891 156.20339,159.45763 150.142,161.75114 145.56494,167.25342 139.38983,169.22034 137.48712,169.8264 135.34483,170.30769 133.42373,169.76271 131.68445,169.26931 128.62662,168.25737 129.08475,166.50847 132.66285,152.8493 134.64992,140.32335 138.30508,127.45763 140.33621,120.30831 142.34525,113.10023 145.35593,106.30508 146.70035,103.2707 149.81517,100.91904 150.23729,97.627118 150.68906,94.103985 148.96019,90.57134 147.52542,87.322033 146.04672,83.973235 144.28704,80.543119 141.55932,78.101694 139.14951,75.944813 135.6903,75.365576 132.88136,73.762711 123.90895,68.642783 103.42392,45.032246 106.84746,56.949152 Z"
     id="path3830"
     inkscape:connector-curvature="0"
     sodipodi:nodetypes="sssssssssssssssssssssssssssssssssssssssssssssssss" />
  <path
     style="fill:#000000;stroke:#000000;stroke-width:1px;stroke-linecap:butt;stroke-linejoin:miter;stroke-opacity:1"
     d="M 111.72881,237.01695 C 110.28712,239.0973 111.78151,242.07965 111.72881,244.61017 111.6384,248.95198 112.47031,253.47849 111.18644,257.62712 109.67375,262.51514 106.57155,266.93117 103.05085,270.64407 92.869961,281.38074 78.617889,287.35076 66.711864,296.13559 57.691119,302.79152 49.623976,310.77535 40.135593,316.74576 37.740474,318.25285 35.156791,319.45944 32.542373,320.54237 30.957796,321.19872 29.310698,322.63878 27.661017,322.16949 24.944744,321.39678 23.406064,318.23185 22.237288,315.66102 20.342913,311.49416 24.539995,303.07678 20.067797,302.10169 17.520242,301.54624 16.418534,306.09564 15.728814,308.61017 14.818912,311.92742 16.112047,315.47915 16.271186,318.91525 16.480458,323.4338 15.02857,328.31827 16.813559,332.47458 20.395633,340.81536 28.380423,346.7655 35.79661,352 39.696125,354.75236 44.042703,358.10973 48.813559,357.9661 51.885613,357.87361 54.648708,355.66526 56.949153,353.62712 60.252743,350.70021 61.661323,346.12332 64.542373,342.77966 77.230765,328.05391 97.484175,315.989 106.84746,302.64407 107.58171,301.59758 111.50742,301.15888 110.64407,302.10169 110.64407,302.10169 110.55951,312.24349 110.1017,317.28814 108.07046,339.6703 104.92137,357.54865 100.33898,384 99.967373,386.14506 95.84805,384.27549 93.830509,383.45763 85.378058,380.03121 80.922646,362.20175 72.677966,366.10169 70.226525,367.26128 72.285583,371.55396 72.677966,374.23729 75.053244,390.48072 80.904629,406.09484 86.779661,421.42373 90.715837,431.69384 93.788897,442.84796 100.88136,451.25424 102.30444,452.94094 104.14665,455.51051 106.30508,455.05085 108.36721,454.6117 108.7446,451.57172 109.55932,449.62712 113.7446,439.63756 116.3046,428.91076 117.69492,418.16949 123.00947,377.11049 114.46814,337.03218 118.23729,293.9661 118.4779,291.21695 121.0735,289.22985 122.57627,286.91525 124.84275,283.42436 127.83267,280.36559 129.62712,276.61017 131.25468,273.20402 132.14148,269.46452 132.88136,265.76271 133.91442,260.59402 136.51725,254.90703 134.50847,250.0339 132.54995,245.28269 126.62149,243.44073 122.57627,240.27119 120.44162,238.59863 118.75223,235.7746 116.0678,235.38983 114.53875,235.17066 112.60865,235.74734 111.72881,237.01695 Z"
     id="path3832"
     inkscape:connector-curvature="0"
     sodipodi:nodetypes="sssssssssssssssssssssssssssssssssssss" />
  <path
     style="fill:#000000;stroke:#000000;stroke-width:1px;stroke-linecap:butt;stroke-linejoin:miter;stroke-opacity:1"
     d="M 198.50847,185.49153 C 194.24748,184.3407 194.01109,193.19315 190.91525,196.33898 186.37479,200.95275 180.53253,204.07888 175.18644,207.72881 172.70141,209.42541 169.27688,210.11635 167.59322,212.61017 165.43064,215.81337 166.26862,220.22861 165.42373,224 164.1584,229.64814 158.80107,235.49498 161.08475,240.81356 161.81914,242.52392 164.13235,243.84479 165.9661,243.52542 169.75277,242.86592 169.89132,235.99616 173.55932,234.84746 178.53879,233.28805 183.556,238.10249 188.74576,238.64407 193.60408,239.15106 200.67797,238.10169 203.38983,238.10169 206.1017,238.10169 211.44729,237.08505 215.32203,235.9322 218.89437,234.86933 222.36813,233.40161 225.62712,231.59322 228.91664,229.76789 232.0192,227.56542 234.84746,225.08475 237.25208,222.97565 239.09759,220.29894 241.35593,218.0339 243.79467,215.58794 247.32203,213.15254 248.94915,210.98305 250.57627,208.81356 256.45567,196.6508 259.79661,189.28814 263.34808,181.46152 266.29598,173.3748 269.55932,165.42373 272.08336,159.27394 274.65254,153.14265 277.15254,146.98305 278.61711,143.37458 279.34772,139.38676 281.49153,136.13559 282.05452,135.28179 282.64442,134.07769 283.66102,133.9661 286.00417,133.70889 287.70749,136.39468 289.62712,137.76271 296.96203,142.98996 304.10015,148.53398 310.77966,154.57627 317.70104,160.83735 323.70903,168.04115 330.30509,174.64407 337.44319,181.7896 344.97177,188.54299 352,195.79661 362.06207,206.18137 371.38402,217.26111 381.28814,227.79661 391.27167,238.41659 399.85593,250.70469 411.66102,259.25424 416.70362,262.90623 422.73923,264.96688 428.47458,267.38983 432.37317,269.03682 438.23729,271.72881 440.40678,271.72881 442.57627,271.72881 446.72861,268.30758 450.16949,267.38983 455.26237,266.03145 460.6274,267.92006 465.89831,265.76271 472.12517,263.2141 479.23789,267.95057 485.9661,267.9322 493.97207,267.91034 507.09323,272.74386 509.83051,265.22034 511.5357,260.53356 503.66559,257.15363 499.52542,254.37288 483.41633,243.55321 463.07656,240.97534 445.28814,233.22034 428.53662,225.91739 411.44213,219.0197 395.9322,209.35593 386.96922,203.77137 379.47915,196.10257 370.98305,189.83051 362.83263,183.81364 354.09967,178.60446 346.0339,172.47458 332.94882,162.5301 321.17558,150.93149 308.0678,141.01695 300.18866,135.05728 288.4629,132.83707 283.66102,124.20339 281.81355,120.88168 283.94476,116.52361 283.11864,112.81356 282.39622,109.56922 281.37125,106.21015 279.32203,103.59322 277.2487,100.9455 274.10243,99.302274 271.18644,97.627118 267.25481,95.3685 262.853,90.356751 258.71186,92.203389 257.66756,92.669068 257.48935,94.322535 257.62712,95.457627 258.11664,99.490798 261.92387,102.35472 264.13559,105.76271 265.55503,107.94989 267.58695,109.81952 268.47458,112.27119 270.20773,117.05822 270.89141,122.42813 270.1017,127.45763 269.27311,132.73473 265.73683,137.20891 263.59322,142.10169 260.11611,150.03819 257.06315,158.1669 253.28814,165.9661 250.96221,170.77148 248.31895,175.41849 245.69492,180.0678 243.42418,184.09114 241.38733,188.28273 238.64407,192 235.45227,196.32507 231.7351,200.27404 227.79661,203.9322 223.92779,207.52565 219.66546,210.69238 215.32203,213.69491 210.45058,217.06245 205.36724,220.14013 200.13559,222.91525 195.91906,225.1519 191.78189,227.8636 187.11864,228.88136 183.76261,229.61382 179.03387,231.50235 176.81356,228.88136 175.39191,227.20316 177.10353,224.42368 177.89831,222.37288 179.22116,218.95951 181.48489,215.93442 183.86441,213.15254 186.8605,209.64984 191.5116,207.69798 194.16949,203.9322 196.64751,200.42127 198.39767,196.24742 199.05085,192 199.38175,189.84828 200.61017,186.05917 198.50847,185.49153 Z"
     id="path3834"
     inkscape:connector-curvature="0"
     sodipodi:nodetypes="sssssssssssssssssssssssssssssssssssssssssssssssssssssssssssss" />
  <path
     style="fill:#000000;stroke:#000000;stroke-width:1px;stroke-linecap:butt;stroke-linejoin:miter;stroke-opacity:1"
     d="M 247.86441,240.81356 C 247.64345,243.61148 248.58728,246.54406 250.0339,248.94915 251.8142,251.909 255.03393,253.71844 257.62712,256 261.86758,259.73088 265.33333,264.92471 270.64407,266.84746 275.40386,268.57074 280.77031,266.70701 285.83051,266.84746 292.34651,267.02832 299.26672,270.25867 305.35593,267.9322 306.78896,267.38469 308.57951,266.21172 308.61017,264.67797 308.67411,261.48009 304.12644,260.1032 302.1017,257.62712 299.56061,254.51959 298.14432,250.4226 295.05085,247.86441 292.74465,245.95726 289.74942,245.02867 286.91525,244.0678 274.99249,240.02562 263.44055,236.22225 250.0339,235.9322 248.25373,235.89369 248.00459,239.0385 247.86441,240.81356 Z"
     id="path3836"
     inkscape:connector-curvature="0"
     sodipodi:nodetypes="ssssssssssss" />
  <path
     style="fill:#000000;stroke:#000000;stroke-width:1px;stroke-linecap:butt;stroke-linejoin:miter;stroke-opacity:1"
     d="M 212.61017,324.88136 C 211.39255,329.20389 217.95387,332.1782 221.28814,335.18644 225.34632,338.84781 230.6365,340.9222 234.84746,344.40678 239.57498,348.31882 242.61917,354.23924 247.86441,357.42373 250.94358,359.29316 255.45763,360.67797 258.16949,360.67797 260.88136,360.67797 270.10576,359.16983 276.0678,359.59322 283.24738,360.10307 290.26838,362.06766 297.22034,363.9322 301.63791,365.117 305.70407,368.87827 310.23729,368.27119 312.17554,368.01162 314.1959,366.74111 315.11864,365.01695 316.22764,362.94476 316.08981,360.10635 315.11864,357.9661 314.32451,356.21602 312.3575,355.2667 310.77966,354.16949 302.67694,348.53493 293.75512,344.09692 284.74576,340.0678 277.9071,337.00945 270.80757,334.49298 263.59322,332.47458 253.99845,329.79019 244.02166,328.71157 234.30508,326.50847 229.2163,325.35466 224.33274,322.51161 219.11864,322.71186 216.83348,322.79962 213.23022,322.68018 212.61017,324.88136 Z"
     id="path3838"
     inkscape:connector-curvature="0"
     sodipodi:nodetypes="ssssssssssssssss" />
</svg>
