<?xml version="1.0" encoding="UTF-8" standalone="no"?>
<!-- Created with Inkscape (http://www.inkscape.org/) -->

<svg
   xmlns:dc="http://purl.org/dc/elements/1.1/"
   xmlns:cc="http://creativecommons.org/ns#"
   xmlns:rdf="http://www.w3.org/1999/02/22-rdf-syntax-ns#"
   xmlns:svg="http://www.w3.org/2000/svg"
   xmlns="http://www.w3.org/2000/svg"
   xmlns:sodipodi="http://sodipodi.sourceforge.net/DTD/sodipodi-0.dtd"
   xmlns:inkscape="http://www.inkscape.org/namespaces/inkscape"
   version="1.1"
   id="svg3802"
   width="512"
   height="512"
   viewBox="0 0 512 512"
   sodipodi:docname="U+672C.svg"
   inkscape:version="0.92.4 (5da689c313, 2019-01-14)">
  <metadata
     id="metadata3808">
    <rdf:RDF>
      <cc:Work
         rdf:about="">
        <dc:format>image/svg+xml</dc:format>
        <dc:type
           rdf:resource="http://purl.org/dc/dcmitype/StillImage" />
        <dc:title></dc:title>
      </cc:Work>
    </rdf:RDF>
  </metadata>
  <defs
     id="defs3806" />
  <sodipodi:namedview
     pagecolor="#ffffff"
     bordercolor="#666666"
     borderopacity="1"
     objecttolerance="10"
     gridtolerance="10"
     guidetolerance="10"
     inkscape:pageopacity="0"
     inkscape:pageshadow="2"
     inkscape:window-width="1920"
     inkscape:window-height="1017"
     id="namedview3804"
     showgrid="false"
     inkscape:zoom="1.84375"
     inkscape:cx="350.31132"
     inkscape:cy="276.69478"
     inkscape:window-x="-8"
     inkscape:window-y="-8"
     inkscape:window-maximized="1"
     inkscape:current-layer="svg3802" />
  <path
     style="fill:#000000;stroke:#000000;stroke-width:1px;stroke-linecap:butt;stroke-linejoin:miter;stroke-opacity:1"
     d="M 220.20339,41.762711 C 216.68561,45.19963 222.00561,51.651091 224.54237,55.864406 226.52057,59.150005 229.81205,61.451483 232.67797,64 235.94841,66.908237 240.26129,68.708405 242.98305,72.135593 247.20798,77.455532 249.59976,84.103021 251.66102,90.576271 253.22125,95.47608 253.68749,100.66637 254.37288,105.76271 255.17136,111.69996 256.62143,117.70263 256,123.66102 255.48984,128.55253 254.90883,134.06962 251.66102,137.76271 250.2184,139.40311 247.77603,139.81045 245.69492,140.47458 234.81827,143.94556 223.27005,144.77876 212.0678,146.98305 202.11817,148.94086 192.09566,150.57411 182.23729,152.94915 173.83556,154.97326 165.67732,157.92449 157.28814,160 148.85502,162.08638 140.29572,163.62493 131.79661,165.42373 128.36236,166.15057 124.99546,167.3814 121.49153,167.59322 117.32525,167.84508 112.93874,165.07988 109.01695,166.50847 108.05601,166.85851 106.74077,167.66084 106.84746,168.67797 107.29736,172.96698 114.12475,173.30974 117.69492,175.72881 120.80933,177.83907 123.95892,179.91074 126.91525,182.23729 128.4255,183.42582 129.47265,185.31322 131.25424,186.0339 134.61039,187.39152 138.62274,187.57811 142.1017,186.57627 144.22235,185.96558 145.80153,184.15745 147.52542,182.77966 149.62491,181.10168 151.16722,178.7054 153.49153,177.35593 179.79552,162.08417 212.70609,162.00914 240.27119,149.15254 241.81691,148.4316 242.97069,146.91088 244.61017,146.44068 247.04316,145.74291 249.90726,145.37574 252.20339,146.44068 254.99637,147.73606 256.7843,150.74198 258.16949,153.49153 259.59005,156.31129 260.48205,159.55773 260.33898,162.71186 260.23535,164.99636 255.45762,166.50847 258.16949,169.22034 260.88136,171.93221 253.65599,218.55946 256.54237,242.98305 256.95924,246.51048 258.16307,249.90791 259.25424,253.28814 261.57494,260.47723 266.74931,266.9135 267.38983,274.44068 267.54615,276.27775 267.555,278.50905 266.30509,279.86441 265.41281,280.83197 263.819,281.07095 262.50847,280.94915 260.09332,280.72468 258.40593,278.00289 256,277.69492 243.90102,276.1462 232.11921,282.681 220.20339,285.28814 201.73656,289.32861 183.43237,294.12828 164.88136,297.76271 159.4854,298.81986 154.0664,299.79372 148.61017,300.47458 146.44991,300.74415 144.26323,301.27606 142.1017,301.01695 138.69581,300.60867 135.12176,295.757 132.33898,297.76271 131.01899,298.7141 131.74063,301.13096 132.33898,302.64407 133.79708,306.33129 137.22034,309.15253 140.47458,311.32203 143.72881,313.49152 150.19765,322.37993 156.20339,326.50847 158.66951,328.20376 161.37777,330.73751 164.33898,330.30508 166.49314,329.9905 167.47306,327.26471 169.22034,325.9661 173.65016,322.67377 178.39812,319.7817 183.32203,317.28814 194.46377,311.64577 206.05087,306.70519 218.0339,303.18644 226.50541,300.69883 235.37131,299.83008 244.0678,298.30508 252.90894,296.75472 261.72792,295.00129 270.64407,293.9661 283.6053,292.46127 296.67812,292.16029 309.69492,291.25424 317.46902,290.71312 325.64158,292.14372 333.01695,289.62712 335.48465,288.7851 336.93204,285.55817 339.52542,285.28814 343.39884,284.88483 346.95597,287.75878 350.37288,289.62712 354.46654,291.86551 357.20692,296.75613 361.76271,297.76271 364.63647,298.39765 367.75403,297.33706 370.44068,296.13559 373.14753,294.92509 377.17657,293.66028 377.49153,290.71186 377.81856,287.65052 373.94607,285.56344 371.52542,283.66102 367.07556,280.16381 361.52187,278.34141 356.33898,276.0678 347.48338,272.18306 338.88847,265.96285 329.22034,265.76271 327.50557,265.72721 325.99666,266.94961 324.33898,267.38983 310.97437,270.93899 296.83895,271.33596 283.66102,275.52542 281.96412,276.06489 280.33769,278.55691 278.77966,277.69492 276.54245,276.45718 276.0678,272.81356 277.69492,270.10169 279.32203,267.38983 281.30846,252.10878 282.0339,242.98305 282.29178,239.73905 282.15345,236.47238 282.0339,233.22034 280.94842,203.69161 268.00736,173.38983 275.52542,144.81356 276.02297,142.92236 276.86602,139.52948 278.77966,139.9322 300.99968,144.6083 312.39496,137.86813 329.22034,137.22034 336.9907,136.92118 344.78492,136.13957 352.54237,136.67797 361.49688,137.29945 370.19802,140.02101 379.11864,141.01695 385.05878,141.68014 391.75892,144.94392 397.01695,142.10169 398.29919,141.40857 398.81233,139.71383 399.18644,138.30508 399.88249,135.68406 400.77612,132.36656 399.18644,130.16949 390.03721,117.5245 369.89556,111.91165 354.71186,115.52542 353.46821,115.82141 352.58496,117.10059 352,118.23729 350.99359,120.19294 353.11466,124.74333 350.91525,124.74576 319.70908,124.78019 303.46234,134.89692 278.23729,133.42373 276.70584,133.33429 275.53582,131.6005 274.98305,130.16949 269.56979,116.1556 279.20125,100.03526 277.15254,85.152542 276.76272,82.320692 275.60133,79.629274 274.44068,77.016949 272.50132,72.651942 270.64082,68.041723 267.38983,64.542372 261.62213,58.334044 253.84967,54.163769 246.23729,50.440677 238.02006,46.421762 226.74632,35.37017 220.20339,41.762711 Z"
     id="path3812"
     inkscape:connector-curvature="0"
     sodipodi:nodetypes="ssssssssssssssssssssssssssssssssssssssssssssssssssssssssssssssssssssssssssssssssss" />
  <path
     style="fill:#000000;stroke:#000000;stroke-width:1px;stroke-linecap:butt;stroke-linejoin:miter;stroke-opacity:1"
     d="M 227.25424,163.79661 C 221.53311,163.06015 220.50044,173.22629 218.0339,178.44068 215.10034,184.64238 216.66158,193.41783 211.52542,197.9661 182.08862,224.03354 151.81431,253.80258 115.52542,277.15254 113.12151,278.69933 109.54934,277.99148 107.38983,279.86441 106.16823,280.9239 105.6275,282.63845 105.22034,284.20339 104.21781,288.05661 103.38176,292.37099 104.67797,296.13559 105.22061,297.71159 106.41788,299.23571 107.9322,299.9322 109.08196,300.46101 110.46327,299.9322 111.72881,299.9322 113.89831,299.9322 115.47358,293.89966 118.23729,291.79661 121.5244,289.29528 126.13931,289.12815 129.62712,286.91525 162.28436,266.19526 189.54144,234.69999 216.40678,209.8983 218.66504,207.81351 222.37244,207.73589 224.54237,205.55932 226.99763,203.09654 228.50346,199.69259 229.42373,196.33898 231.38762,189.1823 231.45998,181.46168 230.50847,174.10169 230.04661,170.52919 230.82699,164.25651 227.25424,163.79661 Z"
     id="path3814"
     inkscape:connector-curvature="0"
     sodipodi:nodetypes="ssssssssssssssss" />
  <path
     style="fill:#000000;stroke:#000000;stroke-width:1px;stroke-linecap:butt;stroke-linejoin:miter;stroke-opacity:1"
     d="M 290.71186,165.42373 C 333.38435,207.36793 362.37493,229.75477 398.64407,261.42373 401.15516,263.61632 403.22354,266.50731 406.23729,267.9322 409.05877,269.26618 412.41058,270.23439 415.45763,269.55932 417.61222,269.08197 418.69003,266.02389 420.88136,265.76271 442.96692,263.13042 460.20338,267.03388 478.91525,261.9661 481.25647,261.33202 483.22007,259.7254 485.42373,258.71186 488.80985,257.15447 492.7068,256.55433 495.72881,254.37288 497.28707,253.24804 500.08844,251.87141 499.52542,250.0339 493.2819,229.65709 458.27609,239.29546 437.69492,233.76271 428.46131,231.28048 419.09721,229.21537 410.0339,226.16949 400.80522,223.06804 391.69689,219.52564 382.91525,215.32203 373.9345,211.02311 365.46352,205.72586 356.88136,200.67797 341.70059,191.74889 327.73983,180.64291 311.86441,173.01695 305.11171,169.7732 285.36926,160.17231 290.71186,165.42373 Z"
     id="path3816"
     inkscape:connector-curvature="0"
     sodipodi:nodetypes="sssssssssssssss" />
  <path
     style="fill:#000000;stroke:#000000;stroke-width:1px;stroke-linecap:butt;stroke-linejoin:miter;stroke-opacity:1"
     d="M 250.57627,309.15254 C 251.66102,311.68361 252.74576,314.21469 253.83051,316.74576 257.26554,318.19209 260.70056,319.63842 264.13559,321.08475 266.84746,323.61582 269.55932,326.1469 272.27119,328.67797 273.17514,333.01695 274.0791,337.35594 274.98305,341.69492 275.52542,346.93786 276.0678,352.18079 276.61017,357.42373 276.42938,372.61017 276.24859,387.79661 276.0678,402.98305 274.62147,415.27684 273.17514,427.57062 271.72881,439.86441 271.18644,445.46893 270.64407,451.07345 270.1017,456.67797 268.83616,457.76271 267.57063,458.84746 266.30509,459.9322 264.67797,458.66666 263.05085,457.40113 261.42373,456.13559 261.06215,457.58192 260.70056,459.02825 260.33898,460.47458 265.22034,472.58757 270.10169,484.70057 274.98305,496.81356 276.79096,498.44068 278.59887,500.0678 280.40678,501.69492 283.29944,500.97175 286.19209,500.24859 289.08475,499.52542 291.07345,492.83616 293.06215,486.14689 295.05085,479.45763 295.05085,459.93221 295.05085,440.40678 295.05085,420.88136 295.23164,402.80226 295.41243,384.72317 295.59322,366.64407 295.77401,360.67797 295.9548,354.71186 296.13559,348.74576 296.31638,345.49152 296.49718,342.23729 296.67797,338.98305 297.76271,336.45198 298.84746,333.9209 299.9322,331.38983 299.20904,328.85876 298.48587,326.32768 297.76271,323.79661 295.41243,321.26554 293.06214,318.73446 290.71186,316.20339 284.56497,313.85311 278.41808,311.50282 272.27119,309.15254 265.03955,309.15254 257.80791,309.15254 250.57627,309.15254 Z"
     id="path3818"
     inkscape:connector-curvature="0"
     sodipodi:nodetypes="ccccccccccccccccccccccccc" />
</svg>
