<?xml version="1.0" encoding="UTF-8" standalone="no"?>
<!-- Created with Inkscape (http://www.inkscape.org/) -->

<svg
   xmlns:dc="http://purl.org/dc/elements/1.1/"
   xmlns:cc="http://creativecommons.org/ns#"
   xmlns:rdf="http://www.w3.org/1999/02/22-rdf-syntax-ns#"
   xmlns:svg="http://www.w3.org/2000/svg"
   xmlns="http://www.w3.org/2000/svg"
   xmlns:sodipodi="http://sodipodi.sourceforge.net/DTD/sodipodi-0.dtd"
   xmlns:inkscape="http://www.inkscape.org/namespaces/inkscape"
   version="1.1"
   id="svg3713"
   width="512"
   height="512"
   viewBox="0 0 512 512"
   sodipodi:docname="U+6773.svg"
   inkscape:version="0.92.4 (5da689c313, 2019-01-14)">
  <metadata
     id="metadata3719">
    <rdf:RDF>
      <cc:Work
         rdf:about="">
        <dc:format>image/svg+xml</dc:format>
        <dc:type
           rdf:resource="http://purl.org/dc/dcmitype/StillImage" />
        <dc:title></dc:title>
      </cc:Work>
    </rdf:RDF>
  </metadata>
  <defs
     id="defs3717" />
  <sodipodi:namedview
     pagecolor="#ffffff"
     bordercolor="#666666"
     borderopacity="1"
     objecttolerance="10"
     gridtolerance="10"
     guidetolerance="10"
     inkscape:pageopacity="0"
     inkscape:pageshadow="2"
     inkscape:window-width="1920"
     inkscape:window-height="1017"
     id="namedview3715"
     showgrid="false"
     inkscape:zoom="1.3037281"
     inkscape:cx="302.41076"
     inkscape:cy="276.25873"
     inkscape:window-x="-8"
     inkscape:window-y="-8"
     inkscape:window-maximized="1"
     inkscape:current-layer="svg3713" />
  <path
     style="fill:#000000;stroke:#000000;stroke-width:1px;stroke-linecap:butt;stroke-linejoin:miter;stroke-opacity:1"
     d="M 169.51387,21.867137 C 172.83718,13.527008 185.87535,13.362641 194.8259,12.662763 205.47384,11.830159 217.17964,13.198878 226.27417,18.799012 239.77407,27.111842 251.89553,40.926527 255.42135,56.383535 256.23547,59.952598 253.12026,67.121971 253.12026,67.121971 L 240.84776,77.093375 237.01261,93.201027 234.71151,103.17243 283.8015,90.899934 C 283.8015,90.899934 286.46758,80.646366 290.70478,78.627437 300.30513,74.053089 322.15306,83.996654 322.15306,83.996654 322.15306,83.996654 343.31486,85.660178 342.8629,93.201027 342.44679,100.14374 322.92009,99.337276 322.92009,99.337276 L 306.81243,97.803214 231.64339,114.6779 232.41042,258.11271 276.89822,249.67537 C 276.89822,249.67537 282.52427,237.01815 288.40369,235.86881 292.66946,235.03492 299.90915,242.00506 299.90915,242.00506 L 310.64759,258.87974 C 310.64759,258.87974 327.93089,264.51615 331.35743,271.91927 332.87622,275.20065 329.82337,282.65771 329.82337,282.65771 L 323.68712,291.86208 322.92009,441.43314 C 322.92009,441.43314 317.70869,483.60497 301.44322,492.05719 298.19487,493.74517 293.3368,492.30041 290.70478,489.7561 288.43095,487.55805 289.25555,483.59739 288.40369,480.55173 283.28463,462.24958 278.63442,453.14543 271.529,426.09252 269.0703,416.73137 299.90915,432.22877 299.90915,432.22877 L 306.0454,426.09252 304.51134,416.88815 296.074,412.28596 290.70478,418.42221 H 253.12026 L 215.53573,423.79143 181.01934,434.52986 165.67871,437.59798 171.81496,456.77376 162.61059,458.30782 153.40622,442.20017 148.037,423.02439 144.96888,389.27503 C 144.96888,389.27503 136.56709,300.6163 141.90075,264.24896 144.1569,248.8655 174.88309,297.2313 174.88309,297.2313 L 175.65012,307.96973 169.51387,321.00926 167.97981,416.12111 286.10259,396.17831 301.44322,401.54752 306.0454,391.57612 305.27837,283.42474 295.30697,266.55005 223.20605,274.98739 199.42808,291.86208 185.62152,294.9302 179.48527,276.52146 185.62152,269.61818 223.97308,262.7149 213.23464,226.66444 222.43901,123.11524 215.53573,119.28008 146.50294,152.26242 134.23044,172.20523 H 125.02607 C 125.02607,172.20523 83.934633,121.27165 105.85029,127.71743 L 131.92935,135.38774 220.13792,109.30868 222.43901,91.666965 C 222.43901,91.666965 225.9096,61.946051 217.83683,51.014318 214.70934,46.779227 208.85789,45.444307 204.03027,43.344007 194.9108,39.3765 175.65012,34.139634 175.65012,34.139634 175.65012,34.139634 167.82084,26.115936 169.51387,21.867137 Z"
     id="path3723"
     inkscape:connector-curvature="0"
     sodipodi:nodetypes="sssscccccscscccccsccscccssssccccccccccccccscccccccccccccccccccccscccsscs" />
  <path
     style="fill:#000000;stroke:#000000;stroke-width:1px;stroke-linecap:butt;stroke-linejoin:miter;stroke-opacity:1"
     d="M 182.5534,158.39867 C 175.33656,166.21784 170.64567,176.05402 164.14465,184.47773 160.26449,189.50546 156.0156,194.23826 151.87215,199.05132 146.31714,205.50407 140.97647,212.1651 134.99747,218.22709 129.91295,223.38218 124.49028,228.21133 118.88982,232.80068 112.24499,238.24585 104.89721,242.78571 98.179979,248.14131 92.650631,252.54982 87.683355,257.64381 82.072326,261.94787 72.731621,269.11287 63.438729,276.5944 52.925145,281.89067 46.642669,285.0555 40.012995,288.55836 32.982337,288.79395 30.068806,288.89158 26.756863,288.39176 24.544995,286.49286 22.634378,284.85258 23.992068,279.46816 21.47687,279.58958 19.054126,279.70654 19.365507,284.07473 19.175777,286.49286 18.810824,291.14423 19.840256,295.93022 21.47687,300.29942 22.845866,303.95417 24.26034,308.27326 27.613119,310.27082 31.572878,312.63002 36.871122,311.78359 41.419679,311.03786 44.137126,310.59234 46.60567,309.15766 49.089989,307.96973 64.168021,300.75987 78.63761,292.28199 92.810761,283.42474 99.667222,279.13992 106.60678,274.87058 112.75357,269.61818 118.66537,264.56658 123.79238,258.64051 128.86122,252.74349 133.49491,247.35271 137.25939,241.25299 141.90075,235.86881 147.68607,229.15759 154.84351,223.66678 160.3095,216.69303 165.91036,209.5472 170.60992,201.69288 174.88309,193.6821 179.35496,185.29882 183.02569,176.48944 186.38855,167.60304 188.47773,162.08236 196.65585,154.0225 191.75777,150.72836 188.44373,148.49955 185.26214,155.46385 182.5534,158.39867 Z"
     id="path3725"
     inkscape:connector-curvature="0"
     sodipodi:nodetypes="sssssssssssssssssssssssss" />
  <path
     style="fill:#000000;stroke:#000000;stroke-width:1px;stroke-linecap:butt;stroke-linejoin:miter;stroke-opacity:1"
     d="M 255.42135,163.76789 C 260.59839,163.75293 264.97155,167.88509 269.99494,169.1371 275.50338,170.51 281.22046,170.87725 286.86963,171.4382 290.94838,171.84321 295.09439,171.56012 299.14212,172.20523 306.18475,173.32765 313.01359,175.55082 319.85196,177.57445 326.82955,179.63928 333.50811,182.69006 340.5618,184.47773 344.84021,185.56204 349.32292,185.69451 353.60133,186.77882 358.30379,187.9706 362.74268,190.05088 367.40789,191.38101 372.71567,192.89435 378.38271,193.18717 383.51554,195.21616 387.34953,196.73172 390.50527,199.63671 394.25398,201.35241 398.44516,203.27061 402.95761,204.39081 407.29351,205.9546 412.16352,207.71103 417.33462,208.82208 421.8671,211.32381 425.5384,213.3502 428.37293,216.63308 431.8385,218.99413 436.7668,222.35173 442.5824,224.39957 447.17912,228.1985 452.20376,232.35108 456.12316,237.7008 460.21865,242.77209 462.40357,245.47759 464.68494,248.15905 466.3549,251.20943 469.3873,256.74845 473.54433,262.54288 473.25818,268.85115 473.18046,270.56452 472.41607,272.55163 470.95709,273.45333 469.65214,274.25983 467.84793,273.80579 466.3549,273.45333 462.45998,272.53386 458.93911,270.31477 455.61646,268.08411 453.35994,266.56919 451.62961,264.37832 449.48022,262.7149 444.09627,258.54825 437.39432,256.04837 432.60553,251.20943 431.30864,249.89895 430.87176,247.87956 429.53741,246.60724 426.30052,243.52082 421.81127,242.09564 418.03194,239.70396 414.91603,237.73211 411.87763,235.63997 408.82757,233.56772 405.48371,231.29587 402.01542,229.1867 398.85616,226.66444 395.6035,224.06762 392.99992,220.69959 389.65179,218.22709 382.73796,213.12142 375.23451,208.73904 367.40789,205.18757 362.99029,203.183 358.11678,202.35856 353.60133,200.58538 347.85016,198.32695 342.54979,194.98086 336.72665,192.91507 330.99901,190.88316 324.99789,189.71695 319.08493,188.31288 315.52323,187.46713 311.89227,186.92199 308.3465,186.01179 303.17546,184.68438 298.28798,182.18485 293.00587,181.4096 287.4406,180.59279 281.72478,182.00219 276.13119,181.4096 272.49083,181.02394 268.75255,180.56207 265.39276,179.10851 261.68249,177.50332 259.38007,173.02451 255.42135,172.20523 254.1447,171.94102 252.71378,173.62662 251.5862,172.97226 249.4883,171.7548 248.2407,168.25818 249.2851,166.06898 250.22571,164.09735 253.23685,163.7742 255.42135,163.76789 Z"
     id="path3727"
     inkscape:connector-curvature="0"
     sodipodi:nodetypes="sssssssssssssssssssssssssssssssssssssss" />
  <path
     style="fill:#000000;stroke:#000000;stroke-width:1px;stroke-linecap:butt;stroke-linejoin:miter;stroke-opacity:1"
     d="M 182.5534,350.15644 C 182.32806,347.88072 183.87986,345.50217 185.62152,344.02019 188.88569,341.24271 193.62193,339.8409 197.89402,340.18504 200.17348,340.36866 201.74382,343.21083 204.03027,343.25316 207.1191,343.31034 209.59202,340.54722 212.46761,339.41801 216.23049,337.94036 220.42196,337.51475 223.97308,335.58285 225.41117,334.80049 226.52287,333.52866 227.80823,332.51473 230.09701,330.70927 231.82022,327.51785 234.71151,327.14551 238.57397,326.6481 242.38182,331.74769 245.44995,331.74769 248.51807,331.74769 256.21101,332.34312 258.48948,336.34988 259.77837,338.61644 258.85792,342.23721 256.95541,344.02019 254.1323,346.66593 249.03141,344.09033 245.44995,345.55425 243.08326,346.52164 241.28859,348.53259 239.3137,350.15644 236.65675,352.3411 234.67193,355.42875 231.64339,357.05972 226.2926,359.94131 218.89911,358.06336 214.00167,361.66191 212.05792,363.09014 212.07565,366.32398 210.16652,367.79816 206.77422,370.4176 202.09478,372.48347 197.89402,371.63331 193.62652,370.76964 189.75457,367.14584 187.92262,363.19597 187.06202,361.34041 188.58643,358.99442 187.92262,357.05972 186.97654,354.30234 182.84065,353.05742 182.5534,350.15644 Z"
     id="path3733"
     inkscape:connector-curvature="0"
     sodipodi:nodetypes="ssssssssssssssssssss" />
</svg>
