<?xml version="1.0" encoding="UTF-8" standalone="no"?>
<!-- Created with Inkscape (http://www.inkscape.org/) -->

<svg
   xmlns:dc="http://purl.org/dc/elements/1.1/"
   xmlns:cc="http://creativecommons.org/ns#"
   xmlns:rdf="http://www.w3.org/1999/02/22-rdf-syntax-ns#"
   xmlns:svg="http://www.w3.org/2000/svg"
   xmlns="http://www.w3.org/2000/svg"
   xmlns:sodipodi="http://sodipodi.sourceforge.net/DTD/sodipodi-0.dtd"
   xmlns:inkscape="http://www.inkscape.org/namespaces/inkscape"
   version="1.1"
   id="svg3755"
   width="512"
   height="512"
   viewBox="0 0 512 512"
   sodipodi:docname="U+6CBB.svg"
   inkscape:version="0.92.4 (5da689c313, 2019-01-14)">
  <metadata
     id="metadata3761">
    <rdf:RDF>
      <cc:Work
         rdf:about="">
        <dc:format>image/svg+xml</dc:format>
        <dc:type
           rdf:resource="http://purl.org/dc/dcmitype/StillImage" />
        <dc:title></dc:title>
      </cc:Work>
    </rdf:RDF>
  </metadata>
  <defs
     id="defs3759" />
  <sodipodi:namedview
     pagecolor="#ffffff"
     bordercolor="#666666"
     borderopacity="1"
     objecttolerance="10"
     gridtolerance="10"
     guidetolerance="10"
     inkscape:pageopacity="0"
     inkscape:pageshadow="2"
     inkscape:window-width="1920"
     inkscape:window-height="1017"
     id="namedview3757"
     showgrid="false"
     inkscape:zoom="1.84375"
     inkscape:cx="296.87777"
     inkscape:cy="275.9184"
     inkscape:window-x="-8"
     inkscape:window-y="-8"
     inkscape:window-maximized="1"
     inkscape:current-layer="svg3755" />
  <path
     style="fill:#000000;stroke:#000000;stroke-width:1px;stroke-linecap:butt;stroke-linejoin:miter;stroke-opacity:1"
     d="M 139.38983,130.16949 C 135.47946,129.62182 131.57724,125.24365 128,126.91525 126.38685,127.66906 125.67954,130.02244 125.83051,131.79661 126.10685,135.04413 129.26284,137.35207 131.25424,139.9322 132.58439,141.65559 133.70481,143.73038 135.59322,144.81356 137.99217,146.18958 141.08359,145.63373 143.72881,146.44068 148.22482,147.81224 152.4361,149.98766 156.74576,151.86441 160.75144,153.60878 164.91018,155.07634 168.67797,157.28814 172.35763,159.4482 176.65466,161.30584 178.98305,164.88136 179.89262,166.27812 180.95694,168.35286 180.0678,169.76271 178.78111,171.80291 175.18644,171.38983 173.01695,171.38983 170.84746,171.38983 167.05085,169.76271 167.59322,171.9322 168.13559,174.10169 171.69958,175.55496 174.1017,176.81356 176.12734,177.8749 178.45444,178.21986 180.61017,178.98305 183.52241,180.01407 186.31014,181.41531 189.28814,182.23729 191.23658,182.77509 193.26195,183.66329 195.25424,183.32203 198.12756,182.82985 201.26625,181.43213 202.84746,178.98305 204.91609,175.77903 204.08418,171.40398 203.9322,167.59322 203.80783,164.47476 203.4357,161.28182 202.30508,158.37288 200.59718,153.97866 197.75748,150.03933 194.71186,146.44068 189.99795,140.87081 184.55289,135.78225 178.44068,131.79661 175.11936,129.63085 171.40125,128.02006 167.59322,126.91525 163.90995,125.84663 159.99703,125.85092 156.20339,125.28814 153.8512,124.9392 151.45922,123.62562 149.15254,124.20339 147.39881,124.64266 145.91329,126.02266 144.81356,127.45763 144.22134,128.23038 144.53501,129.62367 143.72881,130.16949 142.53115,130.98034 140.82218,130.3701 139.38983,130.16949 Z"
     id="path3765"
     inkscape:connector-curvature="0"
     sodipodi:nodetypes="sssssssssssssssssssssssssss" />
  <path
     style="fill:#000000;stroke:#000000;stroke-width:1px;stroke-linecap:butt;stroke-linejoin:miter;stroke-opacity:1"
     d="M 108.47458,253.83051 C 106.68557,252.48875 104.79554,258.58425 104.13559,261.42373 103.47946,264.24678 103.95132,267.29596 104.67797,270.10169 105.73225,274.17248 107.9322,280.94915 110.1017,281.49153 112.27119,282.0339 118.21496,291.08048 122.57627,295.59322 125.86455,298.99568 130.71186,305.35593 132.88136,305.35593 135.05085,305.35593 137.06666,309.24339 137.76271,311.86441 138.13682,313.27316 136.6352,314.86842 137.22034,316.20339 137.84468,317.62779 139.5614,318.36744 141.01695,318.91525 142.71743,319.55524 144.72951,320.06846 146.44068,319.45763 147.88545,318.9419 148.67967,317.35344 149.69492,316.20339 151.05912,314.65805 151.79094,312.48698 153.49153,311.32203 155.04871,310.25532 157.04775,309.96901 158.91525,309.69492 160.34625,309.48489 161.93302,310.28334 163.25424,309.69492 165.47614,308.70537 166.93945,306.38904 168.13559,304.27119 170.2731,300.48659 172.35427,296.12258 171.9322,291.79661 171.63375,288.73769 169.59339,285.99455 167.59322,283.66102 165.82836,281.60202 163.37922,280.2252 161.08475,278.77966 157.1165,276.27962 152.86203,274.25083 148.61017,272.27119 145.59696,270.86825 142.69519,268.82419 139.38983,268.47458 137.37974,268.26197 135.14315,268.49666 133.42373,269.55932 132.65478,270.03456 134.50847,271.72881 131.79661,271.72881 129.08475,271.72881 122.81249,266.35698 118.77966,263.05085 116.60468,261.26779 114.93823,258.92747 112.81356,257.08475 111.44777,255.9002 108.47458,253.83051 108.47458,253.83051 Z"
     id="path3769"
     inkscape:connector-curvature="0"
     sodipodi:nodetypes="sssssssssssssssssssssssss" />
  <path
     style="fill:#000000;stroke:#000000;stroke-width:1px;stroke-linecap:butt;stroke-linejoin:miter;stroke-opacity:1"
     d="M 220.20339,303.72881 C 199.16112,337.2814 169.28543,371.85015 144.27119,406.23729 141.52659,410.0103 140.09393,415.1573 136.13559,417.62712 135.2026,418.20926 133.9777,418.25551 132.88136,418.16949 131.17148,418.03533 128.956,417.96636 128,416.54237 126.48508,414.28585 129.39998,410.98581 128.54237,408.40678 128.01642,406.82513 126.94906,404.47015 125.28814,404.61017 123.18722,404.78728 122.73002,408.04377 122.0339,410.0339 121.13059,412.61634 120.81079,415.43713 120.94915,418.16949 121.14653,422.06724 123.94715,425.66708 123.66102,429.55932 123.3755,433.4432 120.26883,436.62927 119.32203,440.40678 118.92401,441.99479 118.18665,443.76218 118.77966,445.28814 122.95649,456.03608 134.68623,462.55407 144.81356,468.0678 147.12548,469.3265 149.79987,469.87218 152.40678,470.23729 155.8086,470.71373 161.53315,473.46375 162.71186,470.23729 192.60445,388.41284 203.05068,370.92457 228.88136,298.84746 230.00104,295.72315 221.96672,300.91712 220.20339,303.72881 Z"
     id="path3771"
     inkscape:connector-curvature="0"
     sodipodi:nodetypes="sssssssssssssssss" />
  <path
     style="fill:#000000;stroke:#000000;stroke-width:1px;stroke-linecap:butt;stroke-linejoin:miter;stroke-opacity:1"
     d="M 320.54237,121.49153 C 313.54279,120.79043 327.58708,133.78487 329.76271,140.47458 331.35308,145.36469 333.26467,150.57986 332.47458,155.66102 330.74741,166.76861 322.5406,175.85921 316.74576,185.49153 308.96492,198.42503 302.33926,212.67126 291.25424,222.91525 289.11329,224.89377 286.49189,226.55829 283.66102,227.25424 278.91756,228.42039 273.76346,227.86552 269.01695,226.71186 265.71629,225.90962 262.9849,221.20124 259.79661,222.37288 257.74617,223.12638 257.04432,226.15485 257.08475,228.33898 257.12964,230.76413 260.16703,232.428 260.33898,234.84746 260.58215,238.2691 256.08554,241.32866 257.08475,244.61017 258.54894,249.4187 264.78834,251.11304 269.01695,253.83051 272.28251,255.92909 275.48414,259.83608 279.32203,259.25424 282.1027,258.83267 282.78079,254.56214 285.28814,253.28814 332.52553,229.28656 386.62193,227.42276 430.64407,205.55932 432.97933,204.39952 435.60143,207.80245 437.15254,209.8983 438.2754,211.4155 437.92545,213.63887 438.77966,215.32203 442.57609,222.80259 447.20261,230.42728 453.9661,235.38983 456.13303,236.97976 458.92589,238.6388 461.55932,238.10169 464.69332,237.46249 466.61121,234.09015 468.61017,231.59322 471.09076,228.49467 473.05733,224.95518 474.57627,221.28814 475.65032,218.69515 479.04567,214.76114 476.74576,213.15254 474.93736,211.88771 473.38148,216.15619 471.32203,216.94915 469.96179,217.47289 468.23035,218.24571 466.98305,217.49153 465.66122,216.69228 465.83517,214.621 465.35593,213.15254 462.85187,205.47976 462.5669,196.99345 458.84746,189.83051 457.66333,187.5501 456.14616,185.22447 453.9661,183.86441 434.67302,171.82818 419.35084,162.70808 395.38983,151.86441 393.3064,150.92155 393.0237,156.09451 393.22034,158.37288 393.44987,161.03234 395.17757,163.48928 397.01695,165.42373 406.66708,175.57267 423.60815,183.42973 422.50848,196.88136 422.3311,199.05113 419.80018,201.08916 417.62712,201.22034 377.20765,203.66026 356.10928,212.78814 315.11864,221.28814 313.34839,221.65523 309.94073,219.63538 310.77966,218.0339 321.20397,198.1343 340.94094,180.44431 352.54237,159.45763 354.15042,156.54871 356.54124,153.55493 356.33898,150.23729 356.13702,146.92456 353.72891,143.97929 351.45763,141.55932 343.04982,132.60109 336.80057,123.12001 320.54237,121.49153 Z"
     id="path3773"
     inkscape:connector-curvature="0"
     sodipodi:nodetypes="ssssssssssssssssssssssssssssssssssssss" />
  <path
     style="fill:#000000;stroke-width:0.54237288"
     d="M 311.84001,450.00532 C 304.30113,445.42066 296.87413,438.17359 294.43494,433.02195 292.66698,429.28795 292.5996,428.37714 293.68697,422.91047 294.1235,420.71585 295.01024,414.06156 295.65752,408.12316 296.8068,397.57901 296.81409,397.0517 295.96881,385.61469 295.49275,379.17342 294.95438,371.46262 294.77243,368.47957 294.18051,358.77504 291.37849,349.30294 287.27406,343.13166 284.94108,339.62387 283.40946,338.30556 276.07972,333.4964 269.54129,329.20643 267.0553,326.86116 265.44392,323.46262 263.16519,318.6566 263.87888,311.44443 266.93568,308.38763 268.29786,307.02545 268.82718,306.8336 270.48231,307.10219 273.89736,307.65638 278.19525,310.68052 281.01516,314.51347 285.13565,320.11424 290.57124,323.73381 294.86154,323.73381 299.06406,323.73381 337.69995,315.78357 357.16447,310.91353 379.96722,305.20825 407.19837,297.00245 408.55431,295.42777 409.25408,294.61511 409.50346,293.37101 409.50346,290.69264 409.50346,286.91326 409.8869,286.03157 412.20042,284.49113 414.78685,282.76897 418.26595,283.32922 430.23205,287.39482 436.37796,289.48296 441.95597,291.19143 442.62763,291.19143 444.75794,291.19143 448.15844,293.66835 452.27396,298.21777 455.38793,301.66005 456.19967,302.89221 455.96839,303.82565 455.80537,304.48361 453.46067,311.50174 450.75794,319.42148 447.69675,328.39162 444.28272,339.94609 441.70346,350.06555 437.78433,365.44184 437.54881,366.70402 437.29701,373.68067 437.07342,379.87533 437.17812,381.36133 437.9532,382.99469 439.12675,385.46776 441.55733,386.63575 445.65323,386.69484 447.39798,386.72001 450.27064,386.92052 452.03693,387.14041 455.04946,387.51545 455.42586,387.7309 458.11379,390.61867 462.51193,395.3438 462.75411,399.4997 458.74564,401.46163 457.17935,402.22824 454.41647,402.56868 446.15099,403.01351 432.02233,403.77388 422.61694,403.08416 415.62086,400.77464 406.30462,397.6992 397.3863,398.58704 363.59526,405.9539 340.25165,411.0431 327.23373,414.73117 317.30006,419.06966 312.15189,421.31811 311.67746,423.76595 314.50205,433.50623 315.77276,437.88814 316.21532,440.50589 316.21532,443.64041 316.21532,450.3823 315.10822,451.99283 311.84001,450.00532 Z M 324.56812,397.79826 C 331.88933,395.34878 338.10089,393.80866 354.11588,390.47205 377.74838,385.54839 388.80705,382.17499 394.31702,378.2089 396.97761,376.2938 402.41075,374.45833 403.9618,374.95062 404.49706,375.1205 405.85301,376.35774 406.97503,377.70004 408.73158,379.80144 409.29967,380.14059 411.06303,380.14059 414.61555,380.14059 415.30802,378.83287 416.8357,369.23895 417.56721,364.64502 418.78533,354.66262 419.54263,347.05584 420.29994,339.44906 421.18975,331.88296 421.52,330.24228 423.06119,322.58555 422.75079,321.22014 418.62589,317.51149 415.85982,315.02456 411.15207,312.88635 408.4426,312.88635 407.5832,312.88635 404.23642,313.71429 401.00532,314.72621 397.77421,315.73813 385.1238,318.92143 372.89329,321.80021 346.33465,328.05149 331.01578,331.95738 318.92388,335.5609 313.06112,337.30808 309.36545,338.1399 308.2156,337.97114 303.44904,337.27155 301.02887,339.22473 301.02887,343.77112 301.02887,346.71694 303.06413,356.98878 307.57308,376.79947 312.52206,398.54348 312.16031,397.35483 314.20898,398.60398 316.60867,400.06717 318.14338,399.94779 324.56812,397.79826 Z"
     id="path3781"
     inkscape:connector-curvature="0" />
</svg>
