<?xml version="1.0" encoding="UTF-8" standalone="no"?>
<!-- Created with Inkscape (http://www.inkscape.org/) -->

<svg
   xmlns:dc="http://purl.org/dc/elements/1.1/"
   xmlns:cc="http://creativecommons.org/ns#"
   xmlns:rdf="http://www.w3.org/1999/02/22-rdf-syntax-ns#"
   xmlns:svg="http://www.w3.org/2000/svg"
   xmlns="http://www.w3.org/2000/svg"
   xmlns:sodipodi="http://sodipodi.sourceforge.net/DTD/sodipodi-0.dtd"
   xmlns:inkscape="http://www.inkscape.org/namespaces/inkscape"
   version="1.1"
   id="svg3813"
   width="512"
   height="513"
   viewBox="0 0 512 513"
   sodipodi:docname="U+755D.svg"
   inkscape:version="0.92.4 (5da689c313, 2019-01-14)">
  <metadata
     id="metadata3819">
    <rdf:RDF>
      <cc:Work
         rdf:about="">
        <dc:format>image/svg+xml</dc:format>
        <dc:type
           rdf:resource="http://purl.org/dc/dcmitype/StillImage" />
        <dc:title></dc:title>
      </cc:Work>
    </rdf:RDF>
  </metadata>
  <defs
     id="defs3817" />
  <sodipodi:namedview
     pagecolor="#ffffff"
     bordercolor="#666666"
     borderopacity="1"
     objecttolerance="10"
     gridtolerance="10"
     guidetolerance="10"
     inkscape:pageopacity="0"
     inkscape:pageshadow="2"
     inkscape:window-width="1920"
     inkscape:window-height="1017"
     id="namedview3815"
     showgrid="false"
     inkscape:zoom="1.8401559"
     inkscape:cx="218.45411"
     inkscape:cy="257.96436"
     inkscape:window-x="-8"
     inkscape:window-y="-8"
     inkscape:window-maximized="1"
     inkscape:current-layer="svg3813" />
  <path
     style="fill:#000000;stroke:#000000;stroke-width:1px;stroke-linecap:butt;stroke-linejoin:miter;stroke-opacity:1"
     d="M 99.991526,74.450211 C 98.20439,78.429882 106.16278,80.673509 108.68644,84.231991 110.84418,87.274513 112.44823,90.679791 114.12076,94.013771 115.90217,97.564786 118.09725,101.01628 119.01165,104.88241 120.01316,109.11682 119.73498,113.57728 119.55508,117.92479 119.43432,120.84315 119.82802,124.03467 118.46822,126.6197 117.45274,128.55017 115.49376,129.92542 113.57733,130.96716 108.78957,133.56972 103.10806,134.00731 97.817797,135.31462 86.296996,138.1616 74.739615,140.94542 63.038136,142.92267 58.540798,143.68261 54.012813,144.47842 49.452331,144.55297 45.270854,144.62132 41.131493,143.64742 36.95339,143.4661 34.962679,143.37971 32.882723,142.88868 30.975636,143.4661 29.100336,144.03389 26.850414,144.92311 26.084746,146.72669 25.293333,148.59091 26.531169,150.78313 27.17161,152.70445 28.452491,156.54709 30.884045,159.9068 32.605932,163.57309 34.709174,168.05137 35.531495,173.26496 38.583686,177.1589 40.4165,179.49718 42.69824,182.24129 45.648305,182.59322 49.191307,183.01589 52.203242,179.76859 55.430085,178.24576 63.122561,174.61549 71.12757,171.47736 78.254237,166.83369 83.967277,163.11113 88.217665,157.38317 94.013771,153.79131 97.046733,151.91178 100.46887,150.73411 103.79555,149.44386 107.53401,147.9939 111.3051,144.71857 115.20763,145.63983 117.95019,146.28726 120.64195,149.44386 121.18538,151.61758 121.72881,153.79131 127.16314,155.96504 129.33686,155.42161 131.51059,154.87818 135.9597,152.28588 138.03178,149.44386 140.26011,146.38754 138.89599,141.50162 141.29237,138.57521 143.24339,136.19266 146.49516,135.11557 149.44386,134.22775 156.76183,132.0244 164.65193,132.68861 172.26801,132.05403 184.9365,130.99847 197.59605,129.40535 210.30826,129.33686 216.2969,129.30459 222.25555,130.2425 228.24153,130.42373 233.4923,130.5827 238.88841,131.63066 244.00106,130.42373 245.57792,130.05148 247.55025,129.6599 248.34852,128.25 249.51219,126.19474 248.62551,123.40014 247.80509,121.18538 246.63465,118.02572 244.51978,115.05975 241.82733,113.0339 234.2713,107.34862 224.41996,105.34797 215.19915,103.25212 211.47296,102.40517 207.58377,101.73285 203.78708,102.16525 200.37219,102.55417 197.14897,104.03658 194.0053,105.42585 189.25788,107.52386 185.20711,111.02933 180.41949,113.0339 175.02585,115.29221 169.08464,115.97181 163.57309,117.92479 160.05316,119.17205 156.97676,122.47488 153.24788,122.27225 151.38563,122.17105 149.0201,121.2982 148.35699,119.55508 146.99223,115.96753 152.24513,112.52389 152.16102,108.68644 152.03276,102.8349 149.21632,97.016579 145.63983,92.383474 142.47403,88.282392 137.51891,85.915352 133.14089,83.145127 128.27854,80.068435 123.46897,76.533317 117.92479,74.993644 114.42966,74.02301 110.68242,74.540811 107.05614,74.450211 104.702,74.391394 100.95621,72.302003 99.991526,74.450211 Z"
     id="path3823"
     inkscape:connector-curvature="0"
     sodipodi:nodetypes="sssssssssssssssssssssssssssssssssssssssssssssss" />
  <path
     style="fill:#000000;stroke:#000000;stroke-width:1px;stroke-linecap:butt;stroke-linejoin:miter;stroke-opacity:1"
     d="M 16.302966,216.28602 C 13.837236,219.20527 20.63956,222.61694 22.28072,226.0678 23.683251,229.0169 23.35873,232.87703 25.541314,235.30614 28.627957,238.74143 35.042622,237.77067 38.040254,241.2839 41.351246,245.16439 40.794915,251.11056 42.387712,255.95657 45.214675,264.55748 49.35559,272.73362 51.626059,281.49788 53.052514,287.00415 53.403044,292.73448 54.34322,298.34428 55.741193,306.68565 57.355724,314.99048 58.690678,323.34216 60.07759,332.0189 61.672838,340.67854 62.494703,349.42691 63.291743,357.91103 63.014511,366.46563 63.581568,374.96822 63.980995,380.95732 63.859122,387.05349 65.211864,392.90148 66.129266,396.86746 67.020679,401.13143 69.559322,404.31356 71.595883,406.86634 74.554584,410.58606 77.710805,409.74788 80.842653,408.91617 81.056187,404.13454 82.058263,401.05297 83.421235,396.86158 84.25298,392.41797 84.231992,388.01059 84.217101,384.8836 83.790869,381.66434 82.601695,378.77225 81.512495,376.1233 76.29195,374.19563 77.710805,371.70763 78.970314,369.49905 82.818086,371.79242 85.318856,372.25106 87.179031,372.59221 88.861999,373.89031 90.753178,373.88136 96.253456,373.85534 101.34625,370.87765 106.51271,368.99047 114.82389,365.9546 122.52805,361.3249 130.96716,358.66525 135.91446,357.10607 141.03182,356.01249 146.18326,355.40466 153.74104,354.5129 161.39988,354.65971 169.00742,354.86123 173.72942,354.98631 178.84515,353.97428 183.13665,355.94809 186.395,357.44672 189.20334,360.31778 190.7447,363.55614 193.01442,368.32475 191.56725,374.0966 192.375,379.31568 193.19547,384.617 194.20294,389.90562 195.63559,395.07521 196.66069,398.77417 196.43672,403.5531 199.43962,405.94386 200.72291,406.96555 202.96639,407.39826 204.33051,406.48729 209.19322,403.23993 207.9383,395.34571 209.2214,389.64089 210.46955,384.09148 211.34949,378.45194 211.93856,372.79449 213.12176,361.43091 212.65165,349.94639 213.56886,338.55826 214.21284,330.56252 215.76095,322.65168 216.28602,314.64725 216.95012,304.52332 215.40455,294.26017 216.82945,284.21504 217.80452,277.34105 220.9709,270.92942 222.26377,264.10805 222.87469,260.88477 222.75232,257.55191 223.35064,254.32627 224.78498,246.59352 227.00732,239.01647 229.32839,231.50212 230.91788,226.35621 235.14331,221.65835 234.76271,216.28602 234.48786,212.40641 231.86731,208.90712 229.32839,205.9608 227.12883,203.4083 224.06476,201.71904 221.17691,199.98305 216.17741,196.97767 211.05622,193.86853 205.41737,192.375 197.69482,190.32958 189.46027,189.99841 181.50636,190.7447 177.21944,191.14693 173.1826,192.953 169.00742,194.0053 162.31883,195.69108 155.51361,196.93537 148.90042,198.89619 142.08951,200.91563 135.57921,203.85847 128.79343,205.9608 119.47547,208.84764 110.08659,211.58782 100.53496,213.56886 94.43954,214.83307 88.277029,216.00439 82.058263,216.28602 78.795985,216.43376 75.100952,214.10348 72.276483,215.74258 70.52482,216.75911 70.102754,219.00318 69.559322,221.17691 69.01589,223.35064 65.990964,227.57571 67.385593,230.41525 69.315407,234.34446 77.167371,234.76271 79.341102,235.84958 81.514829,236.93644 96.008584,237.34682 104.33898,236.93644 108.17697,236.74737 112.20718,233.82059 115.75106,235.30614 119.69382,236.95889 122.02439,241.5699 123.35911,245.63136 124.32053,248.55688 123.15059,251.79732 123.35911,254.8697 123.63145,258.88252 124.62996,262.81925 124.98941,266.82521 125.3621,270.97877 127.98365,275.95006 125.53284,279.32415 123.54407,282.06214 118.95717,280.95842 115.75106,282.04131 110.20587,283.91424 104.40964,285.45766 99.448093,288.5625 97.16532,289.99102 93.668428,291.31122 93.470339,293.99682 93.280956,296.56439 95.644066,298.34428 98.361229,299.97458 101.07839,301.60487 103.02825,304.62866 105.96928,305.95233 109.66293,307.61473 115.75106,308.12606 117.92479,308.12606 120.09852,308.12606 124.5606,306.10883 127.70657,307.03919 130.17541,307.7693 132.81644,309.50623 133.68432,311.93008 135.24115,316.27805 132.2221,321.07138 130.96716,325.51589 129.97048,329.04576 127.80715,332.23019 127.16314,335.8411 126.9087,337.26774 126.79119,338.78795 127.16314,340.18856 127.53798,341.60006 126.07627,343.99258 129.33686,343.99258 132.59746,343.99258 138.84318,343.82773 141.83581,340.73199 146.99775,335.3922 145.48414,326.31693 146.7267,318.9947 147.51989,314.32053 148.98481,309.56471 148.35699,304.86547 147.96945,301.96477 143.88235,299.37675 145.0964,296.71398 146.92636,292.70032 153.4795,293.95337 157.59534,292.36653 163.65409,290.03061 176.07203,282.04131 175.5286,284.75847 174.98517,287.47564 179.43383,277.78801 178.24576,274.43326 177.12093,271.25708 172.97001,270.21151 170.09428,268.45551 166.98301,266.55568 163.95701,263.64741 160.3125,263.56462 156.7453,263.48359 153.88924,269.117 150.53072,267.91208 148.62443,267.22817 148.70886,264.29437 147.81356,262.47775 144.69773,256.15551 144.37388,247.46444 138.57521,243.45763 136.92915,242.32022 134.40936,243.76284 132.59746,242.91419 130.74154,242.04492 129.10636,240.42866 128.25,238.56674 127.26309,236.42099 126.98836,233.7521 127.70657,231.50212 128.56701,228.80656 130.7757,226.53409 133.14089,224.98093 141.19015,219.69516 151.85361,220.24827 160.85593,216.82945 167.21928,214.41283 172.84674,210.19982 179.33263,208.13453 184.24201,206.57125 189.40821,205.76505 194.54873,205.41737 198.89004,205.12374 204.07448,203.39827 207.5911,205.9608 210.55545,208.1209 210.39845,212.75614 211.39513,216.28602 212.14809,218.95273 213.0444,221.6666 213.02542,224.4375 212.98989,229.62455 210.64444,234.54155 209.76483,239.6536 209.05234,243.79435 208.67797,249.43538 208.13453,252.15254 207.5911,254.8697 206.08701,268.06992 205.41737,276.06356 204.85705,282.75225 204.62347,289.46483 204.33051,296.17055 204.09319,301.60271 204.44991,307.07673 203.78708,312.47352 203.15475,317.62201 201.51449,322.59741 200.52648,327.68962 199.721,331.84105 202.19054,338.41246 198.35275,340.18856 195.11042,341.68909 192.47243,335.97407 189.11441,334.75424 186.00748,333.62562 182.04979,332.58051 179.33263,333.12394 176.61547,333.66737 168.03679,334.17976 162.48623,335.29767 157.14411,336.3736 152.00426,338.28747 146.7267,339.64513 134.64224,342.75387 122.57444,346.00607 110.31674,348.34004 105.28364,349.29839 100.07659,349.29293 95.100636,350.51377 91.929077,351.2919 88.060012,351.35893 85.862288,353.77436 84.85701,354.87922 85.865494,357.10052 84.775424,358.12182 83.297491,359.50651 80.421944,360.41839 78.79767,359.20869 76.166546,357.24912 78.143189,352.67895 77.710805,349.42691 75.9955,336.52577 73.557001,323.72945 71.733051,310.84322 69.736693,296.73892 67.700745,282.63123 66.298729,268.45551 65.530234,260.68529 67.288229,252.44343 64.668432,245.08792 63.403729,241.53706 61.027493,238.2811 58.147246,235.84958 54.618318,232.87045 49.782988,231.92924 45.648305,229.87182 40.353328,227.23704 35.267304,224.18006 29.888771,221.72034 25.453152,219.69184 19.45024,212.55987 16.302966,216.28602 Z"
     id="path3825"
     inkscape:connector-curvature="0"
     sodipodi:nodetypes="sssssssssssssssssssssssssssssssssssssssssssssssssssssssssssssssssssssssssssssssssssssssssssssssssssssssssssssssssss" />
  <path
     style="fill:#000000;stroke:#000000;stroke-width:1px;stroke-linecap:butt;stroke-linejoin:miter;stroke-opacity:1"
     d="M 348.34004,113.57733 C 344.17675,116.15039 346.91678,123.43549 347.79661,128.25 348.46793,131.92354 352.14407,136.40148 352.14407,138.57521 352.14407,140.74894 356.29385,147.83927 355.94809,152.70445 355.6547,156.8327 352.72413,160.32841 351.0572,164.11653 348.5755,169.75621 345.63229,175.20109 343.44915,180.96292 340.62732,188.41041 338.52858,196.11695 336.38453,203.78708 334.37385,210.9801 331.26113,218.42211 328.95021,225.52436 326.10885,234.25686 324.64127,242.80739 320.625,251.06568 315.69207,261.2088 309.38432,270.62365 303.7786,280.41102 299.42357,288.01474 295.79725,296.08193 290.73623,303.23517 287.69493,307.53373 284.35857,311.70586 280.41102,315.19068 277.47322,317.78411 274.13656,319.96393 270.62924,321.71186 267.19385,323.42394 263.4896,324.60616 259.76059,325.51589 258.51621,325.81947 256.44674,324.87594 255.95657,326.05932 254.57015,329.40643 259.91599,332.19248 262.47775,334.75424 264.39907,336.67556 265.73835,338.01483 268.99894,339.64513 272.25953,341.27542 279.1869,342.14841 283.67161,340.18856 299.20887,333.39868 307.87414,316.00846 316.82097,301.60487 320.97513,294.91704 325.35556,287.26175 328.05932,279.86758 334.17892,263.13188 337.46177,245.4319 343.81886,228.78496 348.15632,217.42671 351.98337,206.69474 357.03496,195.63559 360.67258,187.67197 363.68074,179.39393 367.9036,171.72458 370.93276,166.22316 374.66851,161.1386 378.22881,155.96504 380.50893,152.65174 384.98988,150.19384 385.29343,146.18326 385.86206,138.67037 380.26891,131.43065 374.96822,126.07627 372.23194,123.31228 368.1594,122.30385 364.64301,120.64195 361.26671,119.04626 357.73883,117.79186 354.3178,116.29449 352.31268,115.41686 350.20192,112.42662 348.34004,113.57733 Z"
     id="path3827"
     inkscape:connector-curvature="0"
     sodipodi:nodetypes="sssssssssssssssssssssssssssss" />
  <path
     style="fill:#000000;stroke:#000000;stroke-width:1px;stroke-linecap:butt;stroke-linejoin:miter;stroke-opacity:1"
     d="M 358.66525,269.54237 C 355.83869,274.87157 369.66923,277.57402 374.25106,281.49788 377.47479,284.25867 382.35047,286.27287 384.03284,287.64936 390.0106,292.54025 395.5712,296.28407 402.13983,299.97458 411.21332,305.07242 420.46117,310.00755 428.76801,316.27754 438.59105,323.69195 446.8695,332.95686 455.93962,341.27542 462.27066,347.08186 473.32946,356.49153 474.95975,358.66525 476.59005,360.83898 485.08049,371.62838 489.08898,378.77225 491.31209,382.73423 491.39798,387.97395 494.52331,391.27119 495.91655,392.74106 497.98145,394.43149 499.95763,393.98835 503.10466,393.28266 505.39195,388.55403 505.93538,386.3803 506.47881,384.20657 508.20101,378.39635 507.56568,374.42479 506.38834,367.065 501.23354,360.92482 497.7839,354.3178 494.51848,348.06363 487.63242,338.92797 485.45869,337.8411 483.28496,336.75424 478.79275,329.90295 474.59004,326.97246 468.20767,322.52211 461.98832,317.32398 455.39619,313.19068 449.8351,309.70385 442.89725,303.7786 440.18009,302.69174 437.46292,301.60487 425.94786,294.10684 417.89936,290.5625 409.65519,286.93199 399.69456,283.86291 391.81462,279.49788 383.83801,275.0793 378.23509,274.77442 373.33792,271.3464 367.9036,267.54237 361.03271,265.07876 358.66525,269.54237 Z"
     id="path3829"
     inkscape:connector-curvature="0"
     sodipodi:nodetypes="sssssssssssssssssssss" />
</svg>
