<?xml version="1.0" encoding="UTF-8" standalone="no"?>
<!-- Created with Inkscape (http://www.inkscape.org/) -->

<svg
   xmlns:dc="http://purl.org/dc/elements/1.1/"
   xmlns:cc="http://creativecommons.org/ns#"
   xmlns:rdf="http://www.w3.org/1999/02/22-rdf-syntax-ns#"
   xmlns:svg="http://www.w3.org/2000/svg"
   xmlns="http://www.w3.org/2000/svg"
   xmlns:sodipodi="http://sodipodi.sourceforge.net/DTD/sodipodi-0.dtd"
   xmlns:inkscape="http://www.inkscape.org/namespaces/inkscape"
   version="1.1"
   id="svg3930"
   width="512"
   height="513"
   viewBox="0 0 512 513"
   sodipodi:docname="U+7A3C.svg"
   inkscape:version="0.92.4 (5da689c313, 2019-01-14)">
  <metadata
     id="metadata3936">
    <rdf:RDF>
      <cc:Work
         rdf:about="">
        <dc:format>image/svg+xml</dc:format>
        <dc:type
           rdf:resource="http://purl.org/dc/dcmitype/StillImage" />
        <dc:title />
      </cc:Work>
    </rdf:RDF>
  </metadata>
  <defs
     id="defs3934" />
  <sodipodi:namedview
     pagecolor="#ffffff"
     bordercolor="#666666"
     borderopacity="1"
     objecttolerance="10"
     gridtolerance="10"
     guidetolerance="10"
     inkscape:pageopacity="0"
     inkscape:pageshadow="2"
     inkscape:window-width="1920"
     inkscape:window-height="1017"
     id="namedview3932"
     showgrid="false"
     inkscape:zoom="1.8401559"
     inkscape:cx="354.82642"
     inkscape:cy="299.26186"
     inkscape:window-x="-8"
     inkscape:window-y="-8"
     inkscape:window-maximized="1"
     inkscape:current-layer="svg3930" />
  <path
     style="fill:#000000;stroke:#000000;stroke-width:1px;stroke-linecap:butt;stroke-linejoin:miter;stroke-opacity:1"
     d="M 179.33263,75.537076 C 179.12911,77.592384 181.16644,79.459522 180.96292,81.51483 180.76336,83.530226 179.5752,85.42133 178.24576,86.949152 175.93697,89.602463 172.33516,90.777911 169.55085,92.926906 165.38239,96.14422 162.02172,100.40005 157.59534,103.25212 153.23493,106.06168 148.27894,107.83851 143.4661,109.7733 138.31038,111.84592 132.98561,113.47301 127.70657,115.20763 124.82178,116.15553 119.35282,114.90749 119.01165,117.92479 118.7289,120.42539 123.06865,121.2182 125.53284,121.72881 129.99905,122.65427 134.62443,120.87671 139.11864,120.09852 147.17239,118.70399 155.07253,116.53281 163.02966,114.66419 169.01766,113.25799 175.30305,112.72494 180.96292,110.31674 183.13621,109.39204 184.62833,106.99365 186.94068,106.51271 190.35205,105.80319 193.78366,108.26528 197.26589,108.14301 199.68117,108.0582 202.66672,108.26557 204.33051,106.51271 206.48328,104.24469 206.08666,100.39886 205.96081,97.274364 205.78753,92.972106 204.42029,88.72267 202.70021,84.775423 201.75669,82.610242 200.20772,80.761879 198.89619,78.797669 197.66833,76.958774 196.9226,74.603776 195.09216,73.363347 192.4733,71.588632 189.01729,71.209266 185.85381,71.189618 184.18378,71.179246 182.27927,71.248703 180.96292,72.276483 180.00513,73.024302 179.45237,74.327839 179.33263,75.537076 Z"
     id="path3940"
     inkscape:connector-curvature="0"
     sodipodi:nodetypes="ssssssssssssssssssssss" />
  <path
     style="fill:#000000;stroke:#000000;stroke-width:1px;stroke-linecap:butt;stroke-linejoin:miter;stroke-opacity:1"
     d="M 139.11864,143.4661 C 139.08493,146.14045 142.55571,147.88145 142.92267,150.53072 143.15181,152.18499 143.07108,154.29768 141.83581,155.42161 139.67539,157.38732 135.98514,155.84387 133.14089,156.50847 128.84545,157.51216 124.77084,159.30336 120.64195,160.85593 105.27703,166.63356 90.272453,173.33098 74.993644,179.33263 67.415888,182.30924 59.667269,184.85485 52.169492,188.02754 46.646656,190.36453 41.43747,193.41572 35.866525,195.63559 33.205839,196.6958 30.577071,198.24283 27.715042,198.35275 25.476065,198.43874 23.43429,196.75193 21.193856,196.72246 19.523935,196.70049 17.044179,196.31275 16.302966,197.80932 15.151872,200.13347 18.037882,202.77656 19.563559,204.87394 21.44876,207.46557 24.121665,209.39815 26.628178,211.39513 29.889815,213.99373 34.779662,219.00318 36.95339,218.45975 39.12712,217.91631 45.253205,217.18402 48.365466,214.65572 50.318711,213.06897 50.581195,210.08652 52.169492,208.13453 53.707619,206.2442 55.573811,204.59207 57.603814,203.24364 66.108651,197.59429 75.955612,194.27277 85.318856,190.20127 96.053756,185.53332 107.1824,181.80958 117.92479,177.1589 123.42812,174.77635 128.73652,171.96116 134.22775,169.55085 137.27721,168.21232 140.13778,165.86145 143.4661,165.74682 145.75605,165.66795 148.30901,166.36058 149.98729,167.92055 151.71212,169.52379 152.24262,172.1326 152.70445,174.44174 153.48601,178.34952 152.70445,182.41208 152.70445,186.39725 152.70445,190.20127 153.19253,194.03674 152.70445,197.80932 152.24782,201.33882 151.69239,205.01067 149.98729,208.13453 147.16171,213.31121 142.11045,216.91705 138.03178,221.17691 134.13412,225.24771 130.06144,229.14724 126.07627,233.13241 121.54767,237.66101 117.12075,242.29363 112.49047,246.71822 104.33277,254.51354 95.919221,262.03858 87.492585,269.54237 80.684013,275.6053 74.001264,281.8309 66.842161,287.47564 63.171215,290.37007 59.189321,292.84832 55.430085,295.62712 52.312665,297.93149 49.320094,300.40224 46.191737,302.69174 42.623065,305.30349 33.463406,306.28753 35.323093,310.29979 36.819709,313.52873 42.227127,308.56315 45.648305,307.58263 50.93577,306.06722 56.472096,305.11912 61.407839,302.69174 66.774452,300.05246 71.154582,295.75793 76.080509,292.36653 84.894803,286.29807 102.16525,276.60699 102.70869,274.43326 103.25212,272.25953 116.8689,259.60879 123.90254,252.15254 129.17905,246.55899 134.31608,240.83331 139.66208,235.30614 141.97739,232.91236 144.06797,230.24702 146.7267,228.24153 148.21561,227.11844 150.03867,224.53177 151.61758,225.52436 154.22916,227.16615 151.24579,231.68272 151.07415,234.76271 150.69062,241.64504 150.74976,248.56244 149.98729,255.41314 149.15387,262.90128 147.2099,270.22976 146.18326,277.69386 144.04894,293.21123 143.35538,308.90202 141.29237,324.42903 140.54321,330.06751 138.72643,335.58939 138.57521,341.27542 138.30398,351.47394 141.07962,361.53356 141.83581,371.70763 142.15833,376.04689 142.09161,380.40829 142.37924,384.75 142.64376,388.74285 142.10722,392.9417 143.4661,396.70551 144.66048,400.01369 146.26007,403.90574 149.44386,405.40042 151.255,406.25069 153.79981,406.02873 155.42161,404.85699 159.10411,402.19641 159.7505,396.76458 160.85593,392.35805 163.02286,383.72012 163.20731,374.63368 163.02966,365.72987 162.88041,358.24943 161.08272,350.89133 160.3125,343.44915 159.43289,334.95 158.61515,326.4391 158.13877,317.90784 157.38106,304.33834 156.90186,290.74023 157.05191,277.15042 157.134,269.71514 157.61047,262.28665 158.13877,254.8697 158.55242,249.06239 159.76087,243.30189 159.76907,237.47987 159.77471,233.47827 157.855,229.43953 158.6822,225.52436 159.06773,223.69965 159.55845,220.93221 161.39936,220.63347 164.3101,220.16112 165.73164,224.63534 167.92055,226.61123 172.77803,230.99599 177.43713,235.62422 182.59322,239.6536 185.87911,242.22146 188.93447,245.48573 192.91843,246.71822 195.86032,247.62833 202.15678,248.89195 202.15678,246.71822 202.15678,244.54449 204.57864,242.1593 204.87394,239.6536 205.19478,236.93123 204.81059,234.04508 203.78708,231.50212 202.52898,228.37633 200.14135,225.78271 197.80932,223.35064 194.59826,220.00183 190.96046,216.97235 186.94068,214.65572 183.90955,212.90885 180.59739,211.49676 177.1589,210.85169 173.95421,210.25049 170.6349,210.9872 167.37712,210.85169 165.19774,210.76104 162.24672,211.98862 160.85593,210.30826 158.64933,207.64223 161.14133,203.34972 161.9428,199.98305 163.24396,194.51741 165.84353,189.44389 167.92055,184.22352 169.66166,179.84742 172.24008,175.75705 173.35487,171.18114 174.38747,166.94258 172.72326,162.14856 174.44174,158.13877 175.30098,156.13387 176.94573,154.41387 178.7892,153.24788 182.61649,150.82712 187.3833,150.29306 191.83157,149.44386 197.55032,148.35212 203.41434,148.23074 209.2214,147.81356 212.83948,147.55363 216.8143,148.8282 220.09004,147.27013 222.29082,146.22335 224.61625,144.24541 224.98093,141.8358 225.36903,139.27142 223.37978,136.76441 221.72034,134.77119 219.30861,131.87436 216.02425,129.53862 212.48199,128.25 210.43215,127.5043 208.10998,127.33379 205.96081,127.70657 203.80424,128.08063 201.9288,129.42134 199.98305,130.42373 196.44769,132.24505 193.27151,134.74096 189.65784,136.40148 186.17007,138.00415 182.42144,138.96457 178.7892,140.20551 176.07887,141.13148 173.36828,142.05821 170.63771,142.92267 168.83471,143.49348 167.08361,144.75649 165.20339,144.55297 163.34923,144.35227 161.91287,142.79341 160.3125,141.8358 157.72544,140.28778 155.18001,138.66563 152.70445,136.94491 151.21703,135.91103 149.89789,134.63665 148.35699,133.68432 147.66788,133.25843 146.9829,132.4677 146.18326,132.59746 144.41318,132.88471 143.322,134.87607 142.37924,136.40148 141.77693,137.37603 141.75999,138.6162 141.29237,139.66208 140.69627,140.99531 139.13704,142.00579 139.11864,143.4661 Z"
     id="path3942"
     inkscape:connector-curvature="0"
     sodipodi:nodetypes="ssssssssssssssssssssssssssssssssssssssssssssssssssssssssssssssssssssssssssssssssssssssssssssssss" />
  <path
     style="fill:#000000;stroke:#000000;stroke-width:1px;stroke-linecap:butt;stroke-linejoin:miter;stroke-opacity:1"
     d="M 279.86759,57.603813 C 276.61013,59.34715 281.01784,64.922417 282.04131,68.472457 283.16896,72.383858 284.34337,76.365019 286.38877,79.884533 288.39326,83.33365 291.21169,86.266761 293.99682,89.122881 296.50711,91.69715 299.71131,93.543747 302.14831,96.1875 304.43204,98.664981 307.07774,101.13674 308.12606,104.33898 308.57692,105.71621 309.1073,107.62003 308.12606,108.68644 305.17215,111.89674 299.37723,109.00054 295.08369,109.7733 290.45528,110.60633 285.99424,112.19934 281.49788,113.57733 276.56871,115.08796 271.77506,117.02682 266.82521,118.46822 264.67394,119.09467 262.46336,120.69662 260.30403,120.09852 258.57586,119.61985 257.44276,117.81991 256.5,116.29449 255.29539,114.34538 255.71708,111.59422 254.32627,109.7733 253.53339,108.73522 252.35449,107.3869 251.06568,107.59958 248.13435,108.08332 246.67024,111.88077 245.63136,114.66419 244.55269,117.55422 245.3283,120.82715 245.08792,123.90254 244.50643,131.34202 244.57994,138.90939 242.9142,146.18326 242.09544,149.7586 240.71324,153.20945 239.11017,156.50847 237.90169,158.99545 236.10687,161.15675 234.76271,163.57309 232.99056,166.75881 230.70937,169.80694 229.87182,173.35487 228.83136,177.76233 229.74617,182.41382 229.87182,186.94068 229.96243,190.20504 228.43304,194.12725 230.41525,196.72246 231.80606,198.54338 234.70642,199.42263 236.93644,198.89619 239.42968,198.30762 240.72423,195.4244 242.37076,193.46186 245.21312,190.07399 248.01006,186.5531 249.97881,182.59322 252.6056,177.30978 253.26101,171.24074 255.41314,165.74682 257.45279,160.54002 260.6618,155.8197 262.47775,150.53072 264.04738,145.95915 264.92666,141.16637 265.73835,136.40148 266.01381,134.78444 266.03012,133.1315 266.28178,131.51059 266.42349,130.59787 266.18781,129.46191 266.82521,128.79343 268.37143,127.17182 271.18799,127.76454 273.3464,127.16314 278.09324,125.84053 282.71973,124.1053 287.47564,122.81568 293.58221,121.15981 299.7249,119.58678 305.95233,118.46822 307.38976,118.21003 309.1026,117.08837 310.29979,117.92479 312.28093,119.30892 310.85551,122.82469 311.93009,124.98941 313.18822,127.52388 314.80199,130.31042 317.36441,131.51059 319.00483,132.27892 321.15301,132.26751 322.79873,131.51059 325.83328,130.11489 327.38367,126.6242 329.31992,123.90254 330.77873,121.85198 331.81416,119.53017 333.12394,117.38136 334.3532,115.36464 334.97964,112.73862 336.92797,111.4036 339.97575,109.31523 344.178,109.9755 347.79661,109.22987 353.78163,107.99664 359.70583,106.45169 365.72987,105.42585 371.31154,104.47534 376.96585,104.01479 382.57627,103.25212 390.19152,102.21691 397.97581,101.97619 405.40042,99.991525 407.28523,99.4877 408.8869,97.7072 410.83475,97.817796 413.50501,97.96941 416.52788,99.325669 417.89936,101.62182 419.47846,104.26558 418.56632,107.85381 417.89936,110.86017 417.24994,113.78746 416.29648,116.97554 414.09534,119.01165 412.95919,120.06262 411.25314,120.28201 409.74788,120.64195 408.15253,121.02343 406.49728,121.19661 404.85699,121.18538 403.39659,121.17538 401.37155,119.46306 400.50953,120.64195 398.97866,122.73554 402.31907,125.55689 403.77013,127.70657 406.13608,131.21163 409.25218,134.19524 412.46504,136.94491 415.63338,139.65648 418.66437,143.40284 422.79025,144.00953 426.92779,144.61794 431.17333,142.37972 434.74576,140.20551 438.24711,138.07456 440.72807,134.58339 443.44068,131.51059 447.54126,126.86552 453.19524,122.80818 454.85275,116.83792 456.07288,112.44306 455.48358,107.21329 453.22246,103.25212 451.30064,99.885364 447.40012,98.020339 443.98411,96.1875 439.08766,93.560343 433.56938,92.27316 428.22458,90.753178 422.68729,89.178454 417.13487,86.906647 411.37818,86.949152 405.97428,86.989052 400.87545,89.500299 395.61864,90.753178 389.46394,92.220056 383.35054,93.881819 377.14195,95.100635 366.8846,97.114269 356.53965,98.702482 346.16631,99.991525 344.18078,100.23826 341.80918,101.70833 340.18856,100.53496 338.23102,99.11765 339.49732,95.697202 338.55826,93.470339 337.38681,90.692397 335.15882,88.482371 333.66737,85.862288 332.66547,84.102218 332.45184,81.786921 330.95021,80.427966 327.93198,77.696501 323.40985,77.337698 319.53814,76.080508 312.93473,73.936303 306.19004,72.233584 299.43114,70.646186 297.63276,70.223818 295.77568,70.057546 293.99682,69.559322 291.95515,68.98749 289.6865,68.695208 288.01907,67.385593 286.47815,66.175338 286.00069,64.00997 284.75847,62.494703 283.29675,60.711697 281.90037,56.515906 279.86759,57.603813 Z"
     id="path3944"
     inkscape:connector-curvature="0"
     sodipodi:nodetypes="ssssssssssssssssssssssssssssssssssssssssssssssssssssssssssssssssssssssssss" />
  <path
     style="fill:#000000;stroke:#000000;stroke-width:1px;stroke-linecap:butt;stroke-linejoin:miter;stroke-opacity:1"
     d="M 261.39089,193.46186 C 259.34562,195.77112 260.35333,199.65527 260.84746,202.70021 261.31623,205.58889 262.03872,208.78236 264.10805,210.85169 266.17738,212.92102 269.35406,214.46225 272.25953,214.11229 273.80661,213.92595 273.88983,213.02542 276.06356,211.39513 278.23729,209.76483 285.27081,206.95386 289.64936,204.33051 296.804,200.0439 303.32019,194.76735 310.29979,190.20127 314.59,187.3946 319.56644,185.51782 323.34216,182.04979 324.67625,180.82442 327.28695,179.37959 326.60275,177.70233 325.70282,175.49625 321.89645,176.27629 319.53814,176.61547 313.20149,177.52683 308.10606,182.42411 302.14831,184.76695 297.19028,186.71666 292.03944,188.14142 286.9322,189.65784 284.95227,190.24571 282.7408,190.25148 280.95445,191.28814 279.8466,191.93105 278.64234,192.79015 278.23729,194.0053 277.83224,195.22045 279.61996,196.84167 278.78072,197.80932 278.06861,198.6304 276.28866,198.57785 275.52013,197.80932 274.36734,196.65653 276.24922,194.37661 275.52013,192.91843 275.11508,192.10833 274.22789,191.49623 273.3464,191.28814 271.37532,190.82283 269.36123,192.01271 267.36864,192.375 265.37606,192.73729 262.73368,191.94576 261.39089,193.46186 Z"
     id="path3946"
     inkscape:connector-curvature="0"
     sodipodi:nodetypes="ssssssssssssssssssss" />
  <path
     style="fill:#000000;stroke:#000000;stroke-width:1px;stroke-linecap:butt;stroke-linejoin:miter;stroke-opacity:1"
     d="M 364.64301,173.35487 C 362.52585,169.98833 357.56212,169.67719 354.3178,167.37712 352.95538,166.41123 351.99757,164.88299 350.51377,164.11653 348.52305,163.08822 346.23302,162.51571 343.99259,162.48623 342.32267,162.46426 340.63775,162.91761 339.1017,163.57309 337.29955,164.34212 335.54779,165.40133 334.21081,166.83369 333.21429,167.9013 332.41193,169.22621 332.03708,170.63771 331.52565,172.56354 332.29274,174.63935 332.03708,176.61547 331.58045,180.14497 330.66717,183.64662 329.31992,186.94068 328.21421,189.64417 326.71388,192.20376 324.97246,194.54873 322.14587,198.35496 318.3856,201.37116 315.19068,204.87394 308.53021,212.1762 302.06661,219.65681 295.62712,227.15466 291.77375,231.64135 288.43713,236.59887 284.21504,240.74047 279.89314,244.97998 274.99414,248.60845 270.08581,252.15254 265.19729,255.68232 259.49356,258.06431 254.8697,261.93432 252.21582,264.15552 248.02665,266.08872 247.80509,269.54237 247.70533,271.09743 249.04607,272.84732 250.52225,273.3464 252.85629,274.13551 255.31554,272.12741 257.58686,271.17267 264.23721,268.37723 270.67285,264.94962 276.60699,260.84746 280.93845,257.8532 285.14999,254.53247 288.5625,250.52225 290.35444,248.41644 290.32248,244.43251 292.90996,243.45763 295.21557,242.58895 298.18069,243.94246 299.97458,245.63136 301.10144,246.69227 301.61137,248.43113 301.60487,249.97881 301.59427,252.50183 300.03203,254.79481 298.88771,257.04343 295.5606,263.58132 291.2636,269.59961 286.9322,275.52013 282.22127,281.95943 276.70851,287.7732 271.7161,293.99682 267.11333,299.73471 263.11353,305.97589 258.1303,311.38665 255.95923,313.74398 253.49588,315.81867 251.06568,317.90784 250.18613,318.66396 248.44665,318.92584 248.34852,320.08157 248.16397,322.25501 250.73031,324.02689 252.69597,324.97246 255.80181,326.46651 259.80346,326.75065 263.02119,325.51589 268.04379,323.58854 270.93037,318.18682 274.43326,314.10381 283.20913,303.87455 289.6691,291.81267 298.34428,281.49788 302.5498,276.49752 307.44267,272.11764 311.93009,267.36864 314.30695,264.85322 315.66124,260.69055 318.9947,259.76059 320.26495,259.40622 321.92045,259.86373 322.79873,260.84746 324.26638,262.49134 324.1637,265.18255 323.88559,267.36864 323.21014,272.67803 319.64865,277.20105 317.36441,282.04131 314.07988,289.00117 311.06414,296.13219 307.0392,302.69174 301.14643,312.29536 293.88221,320.99478 286.9322,329.86335 280.98085,337.45758 274.88298,344.94833 268.45551,352.14407 264.10291,357.01693 259.50367,361.66719 254.8697,366.2733 251.32559,369.7961 247.21842,372.77499 244.00106,376.59852 242.73952,378.09774 242.468,380.56486 240.74047,381.48941 239.6225,382.08773 238.05441,382.08773 236.93644,381.48941 235.78475,380.87304 236.0252,378.56408 234.76271,378.22881 233.58827,377.91692 232.24994,378.90132 231.50212,379.85911 229.44656,382.49182 228.50177,386.40466 229.32839,389.64089 229.80494,391.50658 231.45746,393.03841 233.13242,393.98835 234.89407,394.98746 237.1083,394.76835 239.11017,395.07521 240.55374,395.29649 242.05908,396.03924 243.45763,395.61864 246.65624,394.65669 248.50837,391.2461 251.06568,389.09746 260.22864,381.39877 270.3981,374.81503 278.78072,366.2733 287.36074,357.53042 294.33452,347.33023 301.60487,337.4714 308.64256,327.92806 315.03868,317.92775 321.71186,308.12606 325.89649,301.97959 330.7269,296.21842 334.21081,289.64936 335.58197,287.06399 335.6275,283.77038 337.4714,281.49788 338.70595,279.97636 340.76278,279.36897 342.36229,278.23729 343.84104,277.19105 344.899,275.02695 346.70975,274.97669 348.66837,274.92233 350.37626,276.70757 351.60064,278.23729 353.17725,280.20708 353.46579,282.92708 354.3178,285.30191 355.67187,289.07616 357.62102,292.73558 358.12182,296.71398 358.43936,299.23655 358.06381,301.82632 357.57839,304.32203 356.34249,310.67616 353.27079,316.54469 351.60064,322.79873 350.024,328.70259 349.39936,334.83516 347.79661,340.73199 346.59467,345.15418 344.99666,349.46093 343.44915,353.77436 341.74513,358.52403 341.76793,364.53058 338.01483,367.9036 335.92328,369.78333 332.63792,369.61936 329.86335,370.07733 327.17651,370.52082 324.40908,370.99598 321.71186,370.62076 319.04465,370.24971 316.56136,369.00457 314.10381,367.9036 312.03245,366.97564 310.15684,365.65672 308.12606,364.64301 306.16772,363.66546 303.98857,360.74088 302.14831,361.92585 300.3207,363.10267 302.29227,366.27808 302.14831,368.44703 301.96677,371.18222 301.31124,373.86872 301.06144,376.59852 300.73088,380.21083 299.45723,383.99832 300.51801,387.46716 301.3126,390.06554 303.66194,391.90722 305.4089,393.98835 307.96316,397.03119 311.93009,400.50953 313.56038,402.68326 315.19068,404.85699 317.44022,408.91293 319.53814,411.92161 321.09227,414.15043 321.78455,417.81852 324.42903,418.4428 327.18854,419.09423 327.68962,416.26907 332.03708,414.63877 336.38453,413.00847 342.04175,405.20275 345.62288,399.42267 351.27428,390.30109 355.40466,371.16419 357.57839,369.5339 359.75212,367.9036 364.07528,350.07039 366.81674,340.18856 369.50639,330.49349 373.62534,320.90121 373.88136,310.84322 373.95639,307.89536 370.62669,304.60938 372.25106,302.1483 373.17103,300.75446 375.47192,301.05107 377.14195,301.06144 380.30544,301.08109 382.48211,304.50166 385.29344,305.95233 390.65421,308.71854 395.37587,311.27666 399.9661,315.19068 404.0782,318.69701 408.16722,322.23985 412.46504,325.51589 420.73834,331.82227 429.65054,337.25253 438.00636,343.44915 446.50537,349.75196 454.30615,356.98761 463.00424,363.01271 470.15495,367.96595 477.18276,373.43285 485.28496,376.59852 487.0056,377.2708 488.54555,380.94597 490.71928,377.68538 492.89301,374.42479 489.08898,368.44703 489.08898,365.72987 489.08898,363.01271 480.48685,349.61033 474.41631,342.90572 469.91616,337.93554 464.20383,334.17298 458.65678,330.40678 452.95007,326.53218 446.78387,323.37569 440.72352,320.08157 433.39213,316.09657 426.13646,311.90015 418.4428,308.66949 413.68942,306.67349 408.61949,305.52856 403.77013,303.7786 400.47937,302.59108 397.25657,301.2228 393.98835,299.97458 388.20502,297.76576 383.26045,297.60354 378.22882,293.99682 376.13633,292.4969 375.20948,289.78699 373.33793,288.01907 371.54686,286.32717 371.18618,285.49929 369.5339,283.67161 367.84628,281.80483 363.80184,279.82861 362.46928,277.69385 361.43175,276.03172 359.64871,273.41078 358.66525,271.7161 358.25864,271.01544 357.59679,270.35226 357.57839,269.54237 357.53788,267.75877 358.4611,265.8828 359.75212,264.65148 362.28376,262.23692 366.51788,262.6203 369.5339,260.84746 376.63204,256.67512 382.30613,250.45037 388.55403,245.08792 393.51965,240.82602 397.88898,235.83104 403.2267,232.04555 407.79048,228.80894 413.94311,227.85031 417.89936,223.89407 419.21811,222.57532 420.59544,220.86805 420.61653,219.00318 420.66052,215.1141 417.37864,211.88773 415.1822,208.67797 412.0642,204.12149 408.72274,199.50206 404.31356,196.17903 401.919,194.37434 399.15726,192.51528 396.16208,192.375 393.47213,192.24901 391.11802,194.26897 388.55403,195.09216 387.29841,195.49529 384.84219,194.86351 384.75,196.17903 384.62529,197.95873 388.47064,197.00613 389.64089,198.35275 390.50592,199.34815 390.71608,200.83808 390.72775,202.15678 390.75263,204.96878 389.66839,207.72637 388.55403,210.30826 386.78113,214.41592 383.87967,217.93845 381.48941,221.72034 377.91907,227.36936 374.67267,233.25254 370.62076,238.56674 367.82057,242.23927 364.63509,245.61343 361.38242,248.89195 359.4858,250.80364 357.62609,252.80412 355.40466,254.32627 354.40225,255.01313 353.01851,255.1128 352.14407,255.95657 350.51074,257.53261 350.15951,260.05725 348.88347,261.93432 348.08808,263.10434 347.57329,265.04657 346.16631,265.19491 342.95891,265.53307 341.30289,260.9109 338.55826,259.21716 335.66197,257.42983 332.24893,256.60289 329.31992,254.8697 327.19951,253.61498 324.89965,252.43135 323.34216,250.52225 321.95854,248.82627 322.11974,247.23025 320.625,245.63135 318.79851,243.67758 316.12883,240.39948 313.56038,239.65361 311.11877,238.94457 308.49319,240.28766 305.95233,240.19703 304.86616,240.15829 303.16256,241.17662 302.69174,240.19703 301.68684,238.10621 305.43146,236.43499 307.0392,234.76271 312.02313,229.5787 318.41204,225.86868 323.34216,220.63347 328.03673,215.64839 331.32722,209.47977 335.8411,204.33051 339.89395,199.70718 345.09977,196.13421 348.88347,191.28814 350.18352,189.62307 350.24466,186.77839 352.14407,185.85381 353.45719,185.21462 355.1796,185.75561 356.49153,186.39725 357.64216,186.96001 357.93317,189.23152 359.20869,189.11441 362.71114,188.79284 364.27287,183.81595 365.18644,180.41949 365.79991,178.13872 365.90035,175.3542 364.64301,173.35487 Z"
     id="path3948"
     inkscape:connector-curvature="0"
     sodipodi:nodetypes="sssssssssssssssssssssssssssssssssssssssssssssssssssssssssssssssssssssssssssssssssssssssssssssssssssssssssssssssssssssssssssssssssssssssssssssss" />
</svg>
