<?xml version="1.0" encoding="UTF-8" standalone="no"?>
<!-- Created with Inkscape (http://www.inkscape.org/) -->

<svg
   xmlns:dc="http://purl.org/dc/elements/1.1/"
   xmlns:cc="http://creativecommons.org/ns#"
   xmlns:rdf="http://www.w3.org/1999/02/22-rdf-syntax-ns#"
   xmlns:svg="http://www.w3.org/2000/svg"
   xmlns="http://www.w3.org/2000/svg"
   xmlns:sodipodi="http://sodipodi.sourceforge.net/DTD/sodipodi-0.dtd"
   xmlns:inkscape="http://www.inkscape.org/namespaces/inkscape"
   version="1.1"
   id="svg3713"
   width="512"
   height="513"
   viewBox="0 0 512 513"
   sodipodi:docname="U+7A61.svg"
   inkscape:version="0.92.4 (5da689c313, 2019-01-14)">
  <metadata
     id="metadata3719">
    <rdf:RDF>
      <cc:Work
         rdf:about="">
        <dc:format>image/svg+xml</dc:format>
        <dc:type
           rdf:resource="http://purl.org/dc/dcmitype/StillImage" />
        <dc:title></dc:title>
      </cc:Work>
    </rdf:RDF>
  </metadata>
  <defs
     id="defs3717" />
  <sodipodi:namedview
     pagecolor="#ffffff"
     bordercolor="#666666"
     borderopacity="1"
     objecttolerance="10"
     gridtolerance="10"
     guidetolerance="10"
     inkscape:pageopacity="0"
     inkscape:pageshadow="2"
     inkscape:window-width="1920"
     inkscape:window-height="1017"
     id="namedview3715"
     showgrid="false"
     inkscape:zoom="1.8401559"
     inkscape:cx="303.33035"
     inkscape:cy="255.73424"
     inkscape:window-x="-8"
     inkscape:window-y="-8"
     inkscape:window-maximized="1"
     inkscape:current-layer="svg3713" />
  <path
     style="fill:#000000;stroke:#000000;stroke-width:1px;stroke-linecap:butt;stroke-linejoin:miter;stroke-opacity:1"
     d="M 172.26801,90.209745 C 167.88216,95.977359 183.78281,100.51667 185.31038,107.59958 185.66247,109.23211 185.11147,111.07602 184.22352,112.49047 181.89207,116.20434 177.40951,118.01517 173.89831,120.64195 169.63236,123.83336 165.27837,126.90953 160.85593,129.8803 154.97428,133.83129 149.0211,137.68498 142.92267,141.29237 137.41044,144.55301 130.51812,145.917 126.07627,150.53072 125.23349,151.40611 123.78272,152.77313 124.44597,153.79131 126.52463,156.98233 132.12526,154.00266 135.85805,153.24788 141.53135,152.10072 146.64678,149.02949 152.16102,147.27013 160.03156,144.75897 168.16507,143.14297 176.07203,140.74894 187.03701,137.42901 198.59667,135.32273 208.67797,129.8803 212.53662,127.79719 216.29885,125.18064 219.00318,121.72881 220.35304,120.00584 221.9994,117.92197 221.72034,115.75106 221.24422,112.04715 217.43053,109.55535 214.65572,107.05614 210.95979,103.72729 206.74468,100.82619 202.15678,98.904661 196.68374,96.612411 187.48411,96.1875 184.76695,95.100635 182.04979,94.013771 174.97607,86.648507 172.26801,90.209745 Z"
     id="path3723"
     inkscape:connector-curvature="0"
     sodipodi:nodetypes="ssssssssssssssssss" />
  <path
     style="fill:#000000;stroke:#000000;stroke-width:1px;stroke-linecap:butt;stroke-linejoin:miter;stroke-opacity:1"
     d="M 138.57521,163.02966 C 144.55297,164.11653 149.17876,165.68347 153.79131,168.46398 156.31676,169.98635 159.57282,171.5872 160.3125,174.44174 161.03094,177.21431 159.86371,180.84456 157.59534,182.59322 153.13871,186.02879 146.22658,182.39159 140.74894,183.68008 131.18632,185.92947 122.66677,191.36581 113.57733,195.09216 103.64889,199.16247 93.579059,202.88601 83.688559,207.04767 75.839408,210.35039 68.091884,213.89005 60.320975,217.37288 56.326294,219.16325 52.498506,221.36468 48.365466,222.8072 44.134505,224.2839 39.803405,226.15982 35.323093,226.0678 32.113889,226.00189 29.147538,224.31118 26.084746,223.35064 23.351851,222.49356 20.756287,220.14991 17.933263,220.63347 15.897551,220.98217 13.727258,222.489 13.042373,224.4375 11.745675,228.12661 13.90397,232.40751 15.759534,235.84958 17.766227,239.57199 20.941577,242.73358 24.454449,245.08792 29.93182,248.75887 36.342572,252.41364 42.931144,252.15254 47.141143,251.9857 51.01536,249.30226 54.34322,246.71822 57.695596,244.11514 60.429218,240.6443 62.494703,236.93644 63.330993,235.43517 68.92382,236.55646 70.102754,235.30614 81.479447,223.24057 94.981013,219.87938 110.31674,213.56886 124.50427,207.73081 137.94521,199.82292 152.70445,195.63559 154.99657,194.9853 157.68578,193.39263 159.76907,194.54873 160.97533,195.21813 161.01712,197.02721 161.39936,198.35275 162.36479,201.70071 162.84395,205.19854 163.02966,208.67797 163.22299,212.30022 163.40755,216.03816 162.48623,219.54661 160.94305,225.42313 157.59624,230.72342 154.33475,235.84958 151.35823,240.52786 147.69699,244.75087 144.00953,248.89195 138.55794,255.01417 132.70092,260.7845 126.6197,266.28178 118.11987,273.96543 108.65627,280.52189 99.991526,288.01907 93.30169,293.80746 86.912534,299.93487 80.427966,305.95233 74.416038,311.53119 68.834764,317.59578 62.494703,322.79873 57.676421,326.75283 52.399519,330.11392 47.278602,333.66737 39.023247,339.39583 20.771461,340.57957 22.28072,350.51377 22.564782,352.38351 25.825716,352.22825 27.715042,352.14407 33.562186,351.88356 41.300848,347.25318 44.018009,345.62288 46.73517,343.99258 61.948478,336.52191 71.189619,332.58051 76.884096,330.15178 83.265746,329.23585 88.579449,326.05932 98.496129,320.13113 106.10112,310.9913 114.6642,303.23517 120.55321,297.90112 126.52796,292.64141 132.05403,286.9322 138.92793,279.83049 144.73579,271.74554 151.61758,264.65148 154.20551,261.98372 156.13755,257.8349 159.76907,257.04343 160.88845,256.79947 162.1192,257.43489 163.02966,258.1303 165.10583,259.71607 164.76593,264.73403 167.37712,264.65148 171.35206,264.52581 172.1378,258.11239 173.35487,254.32627 175.63855,247.22213 174.67946,239.45925 175.5286,232.04555 176.31864,225.14784 177.11147,218.24465 178.24576,211.39513 179.30208,205.0164 180.43992,198.63697 182.04979,192.375 182.94846,188.8794 182.80608,184.64889 185.31038,182.04979 187.17886,180.11059 190.29971,179.96035 192.91843,179.33263 199.84466,177.67237 207.00432,177.06925 214.11229,176.61547 216.82393,176.44236 220.09004,177.1589 222.26377,176.61547 224.4375,176.07203 226.11354,173.84831 226.61123,171.72458 227.08248,169.7137 226.35559,167.28825 224.98093,165.74682 222.38386,162.83468 217.90647,162.31012 214.11229,161.39936 212.16675,160.93235 210.13482,160.90118 208.13453,160.85593 204.14627,160.76571 200.12633,160.82215 196.17903,161.39936 193.22296,161.83163 190.46273,163.3428 187.48411,163.57309 185.48926,163.72732 183.46753,163.42589 181.50636,163.02966 177.40715,162.20146 173.56165,160.41009 169.55085,159.22564 165.58926,158.05573 161.71567,156.25786 157.59534,155.96504 154.68183,155.75798 151.71961,156.28797 148.90042,157.05191 147.56889,157.41273 146.30941,158.02511 145.0964,158.6822 142.79928,159.92654 133.27628,162.06621 138.57521,163.02966 Z"
     id="path3725"
     inkscape:connector-curvature="0"
     sodipodi:nodetypes="sssssssssssssssssssssssssssssssssssssssssssssssssssssssssssssss" />
  <path
     style="fill:#000000;stroke:#000000;stroke-width:1px;stroke-linecap:butt;stroke-linejoin:miter;stroke-opacity:1"
     d="M 182.04979,225.52436 C 181.59902,229.82175 186.59167,232.88495 189.11441,236.39301 193.02892,241.83642 196.70828,247.58151 201.61335,252.15254 204.66421,254.99564 209.2214,259.76059 211.93856,259.21716 214.65572,258.67373 218.06973,259.48334 220.09004,257.58686 222.14034,255.66222 222.70592,252.21251 222.26377,249.43538 221.58438,245.16817 218.08847,241.7796 215.19915,238.56674 212.70206,235.79003 209.74935,233.35005 206.50424,231.50212 203.31691,229.68709 199.58671,229.05498 196.17903,227.69809 192.33398,226.16705 188.83093,222.02455 184.76695,222.8072 183.50918,223.04942 182.18341,224.25047 182.04979,225.52436 Z"
     id="path3727"
     inkscape:connector-curvature="0"
     sodipodi:nodetypes="sssssssssss" />
  <path
     style="fill:#000000;stroke:#000000;stroke-width:1px;stroke-linecap:butt;stroke-linejoin:miter;stroke-opacity:1"
     d="M 166.83369,284.75847 C 163.56098,285.61937 164.68491,291.20427 164.11653,294.54025 163.20177,299.90927 163.7464,305.4442 163.02966,310.84322 162.4219,315.42134 160.90644,319.84909 160.3125,324.42903 159.54231,330.36802 159.69762,336.3922 159.22564,342.36229 158.63754,349.80125 157.60543,357.2014 157.05191,364.64301 156.52719,371.69742 156.33208,378.77249 155.96504,385.83686 155.60738,392.72058 156.28594,399.73957 154.87818,406.48729 153.92992,411.03251 150.17406,414.89033 149.98729,419.52966 149.8812,422.16502 150.96731,424.78581 152.16102,427.13771 154.03056,430.82114 156.63225,434.23188 159.76907,436.91949 161.18532,438.13293 162.88497,440.209 164.65996,439.63665 167.89911,438.59217 167.8647,433.60412 169.00742,430.3983 171.01358,424.77015 172.87191,418.96393 173.35487,413.00847 173.53118,410.83435 173.09744,408.64972 172.81144,406.48729 172.28034,402.47175 171.05594,398.56064 170.63771,394.53178 169.94542,387.86284 169.85079,381.12514 170.09428,374.42479 170.35873,367.14769 171.90527,359.96036 172.26801,352.6875 172.54774,347.079 171.95747,341.44797 172.26801,335.8411 172.72156,327.652 174.759,319.58518 174.98517,311.38665 175.16528,304.85789 176.56417,297.7855 173.89831,291.82309 172.53899,288.78284 170.05442,283.91125 166.83369,284.75847 Z"
     id="path3729"
     inkscape:connector-curvature="0"
     sodipodi:nodetypes="ssssssssssssssssssssss" />
  <path
     style="fill:#000000;stroke:#000000;stroke-width:1px;stroke-linecap:butt;stroke-linejoin:miter;stroke-opacity:1"
     d="M 296.71398,47.822033 C 295.28982,50.164249 294.95832,53.315147 295.62712,55.973516 296.60842,59.874023 300.21722,62.584549 302.69174,65.755296 305.46002,69.302455 308.07235,73.037297 311.38665,76.080508 314.16312,78.629882 317.43315,80.596648 320.625,82.601694 323.7835,84.585793 328.17571,85.04685 330.40678,88.036017 332.40466,90.71276 332.40021,94.482534 332.58051,97.817796 332.84614,102.73161 333.32394,108.17984 330.95021,112.49047 329.27173,115.53854 326.02288,117.70287 322.79873,119.01165 317.5713,121.13362 311.58747,120.36992 305.95233,120.64195 302.69553,120.79917 299.32863,121.45312 296.17055,120.64195 292.16586,119.61332 288.93362,116.64063 285.30191,114.66419 282.9527,113.38571 280.84931,110.28518 278.23729,110.86017 275.58366,111.44432 273.78164,114.69928 273.3464,117.38136 272.79586,120.77395 276.06356,124.98941 276.60699,127.16314 277.15042,129.33686 281.49788,134.22775 284.21504,135.31462 286.9322,136.40148 296.17055,145.63982 299.43114,144.00953 302.69174,142.37923 308.89935,138.65796 313.56038,135.85805 316.49022,134.09808 318.87099,130.90117 322.2553,130.42373 324.86694,130.05529 328.36035,130.43011 329.86335,132.59746 332.45225,136.3307 328.95777,141.64381 328.77648,146.18326 328.56685,151.43226 328.85605,156.69022 328.77648,161.9428 328.6859,167.92261 328.44811,173.89943 328.23305,179.87606 328.07658,184.22447 327.82963,188.56945 327.68962,192.91843 327.43309,200.8867 326.48022,208.88492 327.14619,216.82945 327.54683,221.60873 330.44326,226.19783 329.86335,230.95869 329.54975,233.53325 328.74992,236.56853 326.60275,238.0233 323.74947,239.95648 319.69169,238.09565 316.27754,238.56674 303.21753,240.36879 280.41102,247.26165 277.69386,247.26165 274.9767,247.26165 254.53983,254.6128 242.9142,258.1303 235.50733,260.37135 227.95287,262.13941 220.63347,264.65148 212.71124,267.37044 205.26614,271.4098 197.26589,273.88983 191.05396,275.81549 179.02088,271.78009 178.24576,278.23729 177.85955,281.4546 183.91761,281.41802 186.94068,282.58475 191.32804,284.27801 195.84032,285.99389 200.52648,286.38877 207.42354,286.96995 214.60145,286.37619 221.17691,284.21504 226.96172,282.31376 234.76271,275.52013 236.93644,274.97669 239.11017,274.43326 256.69785,266.56772 266.82521,263.02119 276.2902,259.70662 285.95352,256.97085 295.62712,254.32627 305.16244,251.71949 315.32835,243.4022 324.42903,247.26165 326.74584,248.24417 326.3972,252.06162 328.23305,253.78284 329.41501,254.891 330.97029,256.13611 332.58051,255.95657 335.13919,255.67128 336.9022,253.03691 338.55826,251.06568 340.69728,248.51958 340.73199,242.91419 343.44915,242.37076 346.16631,241.82733 366.23866,239.47003 377.68538,238.56674 389.25536,237.65373 400.88825,237.75857 412.46504,236.93644 420.08832,236.39507 427.6648,234.2373 435.2892,234.76271 442.34636,235.24903 449.10101,237.84431 455.93962,239.6536 463.4207,241.63287 470.74451,244.17578 478.22034,246.17479 484.16247,247.76369 490.00449,250.67052 496.1536,250.52225 499.36255,250.44487 503.46892,250.37516 505.39195,247.80508 507.5624,244.90432 506.98367,240.19093 505.39195,236.93644 503.57711,233.22575 499.07895,231.57125 495.61017,229.32839 492.68416,227.43647 489.519,225.93288 486.37182,224.4375 481.75281,222.24278 477.29536,219.24818 472.24259,218.45975 464.33507,217.22587 456.30572,219.95206 448.33157,220.63347 434.75185,221.79388 421.1226,222.41254 407.57415,223.89407 401.02938,224.60975 394.51751,225.60816 388.01059,226.61123 377.29721,228.26275 366.64385,230.28351 355.94809,232.04555 351.42289,232.79104 345.49287,237.5708 342.36229,234.21928 340.71259,232.45315 343.14039,229.41619 343.99259,227.15466 344.93569,224.6519 347.55231,222.75342 347.79661,220.09004 348.28325,214.78471 344.16213,210.05128 342.90572,204.87394 341.08676,197.3785 339.99332,189.71107 339.1017,182.04979 338.1573,173.93498 336.86419,165.74232 337.4714,157.59534 337.91243,151.67808 340.27239,146.0538 341.27542,140.20551 342.01604,135.88727 340.9808,131.09892 342.90572,127.16314 344.14379,124.63174 346.4313,122.57378 348.88347,121.18538 351.4832,119.71344 354.67246,119.70503 357.57839,119.01165 361.55359,118.06314 365.44718,116.26983 369.5339,116.29449 374.19101,116.32259 378.51848,118.83517 383.1197,119.55508 390.29848,120.67828 397.68958,122.37897 404.85699,121.18538 408.93943,120.50553 413.84915,119.65194 416.26907,116.29449 417.54448,114.52496 417.62631,111.79707 416.8125,109.7733 415.28028,105.96301 411.19744,103.55514 407.57415,101.62182 404.43426,99.946427 400.74324,99.579727 397.24894,98.904661 390.07936,97.519567 382.59049,94.395447 375.51165,96.1875 372.49044,96.952339 370.37041,99.717205 367.9036,101.62182 365.66393,103.35106 363.89526,105.75536 361.38242,107.05614 358.88507,108.3489 356.04173,109.31583 353.23093,109.22987 351.51325,109.17734 349.29061,109.03122 348.34004,107.59958 347.0336,105.63198 347.46468,102.42315 348.88347,100.53496 350.74293,98.060313 357.03496,100.53496 357.57839,97.274364 358.12182,94.013771 357.99786,89.546883 357.03496,85.862288 355.29393,79.200166 352.12559,72.740491 347.79661,67.385593 343.42144,61.973559 337.64118,57.605131 331.49364,54.34322 326.63491,51.765153 319.53814,49.45233 315.73411,49.45233 311.93009,49.45233 306.99348,43.457807 302.14831,44.018008 299.9518,44.27197 297.86276,45.932725 296.71398,47.822033 Z"
     id="path3731"
     inkscape:connector-curvature="0"
     sodipodi:nodetypes="sssssssssssssssssssssssssssssssssssssssssssssssssssssssssssssssssssssssssssssssssssssssss" />
  <path
     style="fill:#000000;stroke:#000000;stroke-width:1px;stroke-linecap:butt;stroke-linejoin:miter;stroke-opacity:1"
     d="M 259.76059,170.63771 C 259.76059,172.81144 263.6336,177.29568 263.56462,180.96292 263.50199,184.29263 261.11911,187.16066 259.76059,190.20127 257.38103,195.52714 254.85179,200.7896 252.15254,205.9608 250.61379,208.90873 249.66964,212.36233 247.26165,214.65572 245.79511,216.05247 243.42364,216.12651 241.82733,217.37288 240.51098,218.40066 238.69768,219.51198 238.56674,221.17691 238.34995,223.93344 239.6536,227.69809 242.9142,228.24153 246.17479,228.78496 251.85993,229.88113 255.41314,227.69809 258.24648,225.95733 258.37815,221.71409 260.30403,219.00318 262.68249,215.65521 266.10803,213.1346 268.45551,209.76483 269.9843,207.57028 270.3399,204.56255 272.25953,202.70021 273.71313,201.28999 275.66927,200.03493 277.69386,199.98305 280.85637,199.90202 283.62623,202.24553 286.38877,203.78708 288.88986,205.18273 290.87966,207.42131 293.45339,208.67797 296.18203,210.01027 299.12387,211.12444 302.14831,211.39513 305.05754,211.65551 308.04769,211.15468 310.84322,210.30826 312.78157,209.72137 318.45127,208.67797 316.27754,207.5911 314.10381,206.50424 311.46341,197.40158 307.58263,193.46186 305.9252,191.77925 303.88692,190.26651 301.60487,189.65784 297.75034,188.62976 293.58219,189.53249 289.64936,190.20127 287.78493,190.51832 285.45483,193.2597 284.21504,191.83157 282.51479,189.87304 286.80503,187.27234 287.47564,184.76695 287.99297,182.83418 288.65917,180.68484 288.01907,178.78919 287.07569,175.99535 284.5752,173.77629 282.04131,172.26801 277.54882,169.59389 272.05147,168.32409 266.82521,168.46398 264.36227,168.5299 259.76059,166.96982 259.76059,170.63771 Z"
     id="path3741"
     inkscape:connector-curvature="0"
     sodipodi:nodetypes="sssssssssssssssssssssssssss" />
  <path
     style="fill:#000000;stroke:#000000;stroke-width:1px;stroke-linecap:butt;stroke-linejoin:miter;stroke-opacity:1"
     d="M 363.01271,141.29237 C 361.38804,142.73652 369.06736,143.59943 370.62076,146.18326 371.74466,148.05269 371.23999,150.5245 371.1642,152.70445 371.08141,155.08559 370.68596,157.46554 370.07733,159.76907 369.03746,163.70472 367.05372,167.33172 365.72987,171.18114 364.9286,173.51103 362.10984,175.04813 360.83898,177.1589 359.51761,179.35358 351.70716,181.85675 352.6875,184.22351 353.65799,186.56648 363.28295,184.3464 365.72987,183.68008 369.17707,182.74138 372.79449,178.24576 374.96822,178.24576 377.14195,178.24576 381.48098,177.10569 384.75,176.61547 387.46089,176.20895 391.27119,176.07203 392.90148,178.24576 394.53178,180.41949 398.90706,181.03896 401.5964,183.68009 404.00043,186.04103 405.43581,188.16132 408.11759,190.20127 412.58929,193.60276 418.26844,195.84896 423.87712,196.17903 426.11388,196.31066 428.87843,196.19506 430.39831,194.54873 432.64057,192.11993 432.8267,187.97473 432.0286,184.76695 431.09262,181.00498 428.04006,177.88788 424.96398,175.5286 422.32144,173.50183 419.02336,172.18922 415.72564,171.72458 412.47707,171.26687 409.22421,172.76631 405.94386,172.81144 403.7628,172.84145 401.43091,173.11941 399.42267,172.26801 397.64982,171.5164 398.26242,171.41818 397.79237,169.55084 397.03677,166.54909 398.17887,162.86048 398.33581,159.76907 398.51625,156.21473 397.34425,152.55644 395.61864,149.44386 393.5682,145.74537 390.31651,142.72984 386.92373,140.20551 384.64895,138.513 382.0899,136.98708 379.31568,136.40148 375.58945,135.61492 371.43013,135.5072 367.9036,136.94491 365.88374,137.76837 363.01271,141.29237 363.01271,141.29237 Z"
     id="path3743"
     inkscape:connector-curvature="0"
     sodipodi:nodetypes="sssssssssssssssssssssssssss" />
  <path
     style="fill:#000000;stroke-width:0.54343218"
     d="M 267.75967,424.43132 C 262.72089,422.58633 259.60619,417.39888 257.91415,408.03385 257.26119,404.41989 257.0697,399.83287 257.11237,388.82713 257.17101,373.69982 256.71957,366.49681 254.91919,353.83366 253.28097,342.31106 251.70761,337.15662 246.46244,326.12865 243.90097,320.74315 240.96443,314.55956 239.9368,312.38733 237.437,307.10319 235.55455,305.09142 229.35501,301.07861 226.47787,299.21631 223.72675,297.12566 223.2414,296.43273 222.1036,294.80829 222.09377,292.22175 223.22375,291.78814 224.58178,291.26701 237.51408,293.5721 242.52642,295.2287 247.89229,297.00213 253.59819,300.6575 257.59147,304.8798 265.49636,313.23807 268.88768,329.87722 270.72568,369.32148 271.75869,391.49057 272.73934,398.46376 275.61728,404.10501 278.17399,409.11657 281.27886,409.10717 291.63847,404.05654 295.74558,402.05419 296.91811,402.07032 301.45094,404.19148 304.90623,405.80842 305.27842,405.8732 307.62556,405.26624 310.61167,404.49406 313.61724,401.58533 313.73456,399.35409 313.88528,396.48771 313.53491,394.03089 312.51281,390.78705 311.45286,387.42308 309.62658,377.50294 309.01122,371.76692 308.7823,369.63302 308.98488,366.62851 309.59747,363.072 311.36551,352.80742 310.04379,341.73863 305.54178,329.10749 304.31669,325.67028 302.69393,320.44061 301.93564,317.486 299.65636,308.60488 297.66056,305.65829 291.97666,302.78264 287.25527,300.39395 281.63714,299.01497 275.34919,298.7014 270.3671,298.45295 269.34858,298.25421 269.20537,297.50258 268.94982,296.16139 271.32476,294.24646 276.31915,291.76669 281.84739,289.02185 285.71852,287.82024 296.04465,285.64383 300.50012,284.70476 311.11502,282.12139 319.63332,279.903 328.15162,277.68461 341.60156,274.39232 349.52209,272.5868 364.74061,269.11768 390.16117,262.69852 397.84747,260.38375 404.49114,258.38297 407.01696,258.54496 415.75982,261.53247 419.82835,262.92272 425.96941,265.1398 429.40662,266.4593 432.84383,267.77881 437.12336,269.35139 438.91669,269.95394 442.8636,271.28007 444.45426,272.6639 445.19538,275.41622 446.17233,279.04436 444.34804,286.54729 441.32512,291.33374 439.98711,293.45234 438.98788,295.83763 438.67643,297.65653 438.40136,299.26296 438.04637,311.82635 437.88756,325.57518 437.72874,339.32402 437.24655,356.44213 436.81601,363.61544 436.23301,373.32902 436.16951,378.51388 436.56724,383.92998 437.46367,396.13697 435.71626,401.66772 428.96891,407.97954 424.69709,411.97562 422.56098,413.33477 420.54812,413.33745 418.84331,413.33973 418.11522,412.05735 416.92165,406.95022 415.75045,401.93881 412.16375,400.33104 404.38164,401.32906 397.16094,402.25508 394.40253,402.07986 388.97713,400.35057 386.25623,399.48331 381.53757,398.26059 378.49121,397.63341 369.13276,395.70671 365.96604,396.15694 362.04589,399.97154 359.66608,402.28727 350.22381,407.64644 345.48874,409.36892 342.28088,410.53584 328.60983,411.4262 316.37272,411.26517 305.92646,411.1277 305.71337,411.14784 301.38482,412.68161 298.96978,413.53735 294.86029,415.62821 292.25263,417.32797 281.07341,424.61495 273.92395,426.68841 267.75967,424.43132 Z M 331.58883,398.69646 C 336.75429,396.25785 340.63795,394.53323 349.52209,390.73283 353.66652,388.95995 356.27751,389.04695 359.30387,391.05876 364.13055,394.26737 366.50355,392.80324 366.82601,386.41765 366.9908,383.15416 366.72401,381.38391 365.37948,376.8198 364.47275,373.74183 363.58592,370.34002 363.40876,369.26022 362.99808,366.75724 361.38683,365.28921 359.12081,365.35345 357.01294,365.4132 351.71949,367.75415 346.66192,370.8632 342.2572,373.57092 337.02458,375.77563 334.00131,376.19762 332.22394,376.44569 331.14323,376.17681 328.44662,374.81556 321.05953,371.08656 318.3473,373.9785 321.60343,382.11217 323.37708,386.54266 323.17527,388.55939 320.51788,392.96078 318.20067,396.79871 318.07099,398.24075 319.88034,400.05009 322.03392,402.20368 324.8493,401.87819 331.58883,398.69646 Z M 383.75042,388.03713 C 389.50237,385.28058 399.25471,383.56521 403.61677,384.54277 405.62415,384.99264 406.68863,385.64428 408.08944,387.2808 410.217,389.76639 411.62248,389.99202 412.8936,388.05205 413.83501,386.61527 413.81621,385.95029 412.58676,377.20124 412.08967,373.66379 412.13135,373.33057 413.18157,372.44621 413.82645,371.90316 415.20241,371.4952 416.38907,371.4952 419.76751,371.4952 421.20602,370.65754 422.37818,368.0077 423.37704,365.74959 423.47359,363.54192 423.9585,331.87449 424.53401,294.29075 424.63504,295.74366 420.77151,286.04387 419.84962,283.72935 418.93592,280.79482 418.74108,279.52269 417.95053,274.36115 415.77682,272.45919 409.61997,271.54187 407.50102,271.22616 404.40761,270.72159 402.74573,270.42062 395.93787,269.18766 394.43939,269.5635 381.05173,275.86183 372.0541,280.09484 368.35938,281.22408 360.66245,282.09356 356.33191,282.58276 342.56814,285.41984 337.99941,286.76503 335.99582,287.35496 331.27198,289.2933 327.50201,291.07246 318.85065,295.1553 316.11847,295.95813 310.87515,295.95813 303.16413,295.95813 301.87168,297.32358 304.13127,303.0829 306.06044,308.00004 307.86952,309.54393 311.70208,309.54393 316.35287,309.54393 321.28604,313.43124 324.31345,319.48163 325.96714,322.7866 327.64,324.76003 328.7879,324.76003 331.23336,324.76003 339.94052,320.68415 345.8766,316.76068 349.14205,314.60237 349.7997,314.3638 351.58264,314.69077 352.69099,314.89403 354.7919,315.103 356.25133,315.15515 360.03515,315.29036 361.13084,313.73614 361.39793,307.85479 361.57798,303.88991 361.47301,303.34626 360.1622,301.45477 358.45648,298.99341 358.70439,297.99673 361.33257,296.74958 365.11822,294.95317 371.04893,296.70704 374.50704,300.64561 377.67111,304.24928 378.85611,307.56779 378.86212,312.84175 378.86511,315.46732 378.50262,318.72661 378.03097,320.31483 377.20077,323.11041 374.41494,339.0557 373.72634,344.95328 373.25435,348.99575 374.08718,353.32653 377.0108,362.03265 379.90849,370.66155 380.11483,374.12597 378.0863,380.09008 376.10855,385.90493 375.80301,388.63149 377.04808,389.35517 378.61699,390.26708 379.43155,390.10689 383.75042,388.03713 Z M 342.15004,362.79808 C 343.36523,362.19909 346.17604,360.34087 348.39628,358.66871 L 352.43308,355.62841 354.28325,357.85577 C 356.25162,360.22544 358.14647,360.72146 359.9618,359.34227 361.53337,358.14826 361.81219,356.31714 361.75219,347.58419 361.66932,335.52221 360.95491,325.81109 360.04313,324.35246 359.01212,322.70309 356.81789,322.77481 354.21585,324.54294 352.9502,325.40298 349.23146,326.71965 344.7155,327.90667 337.87355,329.70508 336.67332,329.85974 329.32469,329.88991 321.65986,329.92139 321.30071,329.97311 319.95048,331.24009 318.09438,332.98173 318.0801,336.24089 319.90503,341.60643 321.53973,346.41264 321.60959,348.86069 320.20551,352.13627 319.62355,353.49392 318.9863,355.46348 318.7894,356.51306 318.48042,358.16005 318.65681,358.64679 320.07742,360.0674 321.21535,361.20533 322.28152,361.72711 323.5314,361.75777 324.52577,361.78216 327.05117,362.24316 329.14338,362.78222 334.4834,364.15808 339.37885,364.16405 342.15004,362.79808 Z"
     id="path3745"
     inkscape:connector-curvature="0" />
</svg>
