<?xml version="1.0" encoding="UTF-8" standalone="no"?>
<!-- Created with Inkscape (http://www.inkscape.org/) -->

<svg
   xmlns:dc="http://purl.org/dc/elements/1.1/"
   xmlns:cc="http://creativecommons.org/ns#"
   xmlns:rdf="http://www.w3.org/1999/02/22-rdf-syntax-ns#"
   xmlns:svg="http://www.w3.org/2000/svg"
   xmlns="http://www.w3.org/2000/svg"
   xmlns:sodipodi="http://sodipodi.sourceforge.net/DTD/sodipodi-0.dtd"
   xmlns:inkscape="http://www.inkscape.org/namespaces/inkscape"
   version="1.1"
   id="svg3851"
   width="512"
   height="513"
   viewBox="0 0 512 513"
   sodipodi:docname="U+85DD.svg"
   inkscape:version="0.92.4 (5da689c313, 2019-01-14)">
  <metadata
     id="metadata3857">
    <rdf:RDF>
      <cc:Work
         rdf:about="">
        <dc:format>image/svg+xml</dc:format>
        <dc:type
           rdf:resource="http://purl.org/dc/dcmitype/StillImage" />
        <dc:title></dc:title>
      </cc:Work>
    </rdf:RDF>
  </metadata>
  <defs
     id="defs3855" />
  <sodipodi:namedview
     pagecolor="#ffffff"
     bordercolor="#666666"
     borderopacity="1"
     objecttolerance="10"
     gridtolerance="10"
     guidetolerance="10"
     inkscape:pageopacity="0"
     inkscape:pageshadow="2"
     inkscape:window-width="1920"
     inkscape:window-height="1017"
     id="namedview3853"
     showgrid="false"
     inkscape:zoom="1.8401559"
     inkscape:cx="235.68383"
     inkscape:cy="310.3352"
     inkscape:window-x="-8"
     inkscape:window-y="-8"
     inkscape:window-maximized="1"
     inkscape:current-layer="svg3851" />
  <path
     style="fill:#000000;stroke:#000000;stroke-width:1px;stroke-linecap:butt;stroke-linejoin:miter;stroke-opacity:1"
     d="M 152.16102,45.104872 C 152.15633,49.578798 160.91571,47.546963 164.65996,49.995762 166.58952,51.257722 168.13693,53.065505 169.55085,54.886652 173.03731,59.377264 175.82943,64.413225 178.24576,69.559322 179.39031,71.996886 180.66908,74.490552 180.96292,77.167372 181.12228,78.619082 181.34539,80.385418 180.41949,81.51483 178.24049,84.172782 173.9484,83.85233 170.63771,84.775423 165.09238,86.321585 159.37741,87.187741 153.79131,88.579449 151.78721,89.078746 149.87865,90.176175 147.81356,90.209745 143.90371,90.273303 139.94168,89.153287 136.40148,87.492584 133.94153,86.338626 132.574,82.957966 129.8803,82.601694 127.94616,82.345883 125.53975,83.159878 124.44597,84.775423 123.43042,86.275417 123.95264,88.466777 124.44597,90.209745 125.19901,92.870271 127.07957,95.104535 128.79343,97.274364 131.33401,100.49086 134.59004,103.07097 137.48835,105.96928 139.84322,108.32415 141.39613,111.97314 144.55297,113.0339 149.57969,114.72297 155.37096,112.78424 160.3125,110.86017 165.65042,108.78177 169.79472,104.42777 174.44174,101.07839 175.91126,100.01922 177.13552,98.557172 178.7892,97.817796 180.47562,97.063779 182.50276,96.058951 184.22352,96.730932 186.51855,97.627177 187.36883,100.55804 188.57097,102.70869 190.19587,105.61567 191.48148,108.73884 192.375,111.94703 193.01425,114.24225 192.73924,116.7413 193.46186,119.01165 194.19896,121.32748 194.69599,124.19127 196.72246,125.53284 199.14387,127.13588 202.70109,127.10331 205.41737,126.07627 207.57395,125.26086 209.62336,123.38689 210.30826,121.18538 212.38749,114.50205 207.76428,107.4199 206.50424,100.53496 205.41046,94.558466 204.07584,88.620189 203.24364,82.601694 202.72024,78.816471 203.23721,74.854934 202.15678,71.189618 200.59907,65.905138 198.07278,60.751713 194.54873,56.516949 191.90648,53.34183 188.35778,50.950663 184.76695,48.908898 180.87777,46.697489 178.52159,45.404767 174.26801,44.018008 170.88438,42.91487 165.49598,41.098867 161.9428,41.300847 158.44997,41.499397 152.16469,41.606401 152.16102,45.104872 Z"
     id="path3861"
     inkscape:connector-curvature="0"
     sodipodi:nodetypes="ssssssssssssssssssssssssssssssssss" />
  <path
     style="fill:#000000;stroke:#000000;stroke-width:1px;stroke-linecap:butt;stroke-linejoin:miter;stroke-opacity:1"
     d="M 274.43326,4.8908893 C 271.34169,7.7072039 275.33881,13.211727 275.52013,17.38983 275.68506,21.190278 276.19886,25.058922 275.52013,28.801906 274.69169,33.370488 272.06319,37.428168 270.62924,41.844279 268.94627,47.027283 267.98282,52.426711 266.28178,57.603813 263.43596,66.265052 260.06021,74.752233 256.5,83.145127 252.98719,91.426279 249.71328,99.884439 245.08792,107.59958 241.82793,113.03728 237.53177,117.78299 233.67585,122.81568 230.45823,127.01527 224.5427,130.06401 223.89407,135.31462 223.67534,137.08522 223.89407,140.74894 226.0678,140.20551 228.24153,139.66208 237.13713,136.47905 241.82733,133.14089 252.16328,125.78448 261.0263,116.08112 267.91208,105.42585 270.99777,100.65097 270.18069,93.439457 274.43326,89.666313 277.951,86.545158 283.42401,86.863033 288.01907,85.862288 300.56077,83.13087 313.45122,82.290909 326.05932,79.884533 333.35454,78.492171 340.42759,75.919142 347.79661,74.993644 354.0898,74.203262 361.29371,77.568718 366.81674,74.450211 369.442,72.967893 371.67796,69.856853 371.70763,66.842161 371.73484,64.07725 369.52671,61.495562 367.36017,59.777542 362.87181,56.218359 356.78327,54.502155 351.0572,54.34322 344.86351,54.171306 339.08716,57.551446 333.12394,59.23411 324.40712,61.693767 315.70951,64.223266 307.0392,66.842161 301.22556,68.59819 295.67285,73.050856 289.64936,72.276483 287.9544,72.058581 285.73533,71.212353 285.30191,69.559322 283.57494,62.972776 291.97543,57.684421 295.08369,51.626059 297.56159,46.796335 301.87714,42.374892 302.14831,36.953389 302.36014,32.718209 299.62465,28.826116 297.80085,24.997881 295.52944,20.230083 293.39994,15.130186 289.64936,11.412076 287.11211,8.8967908 283.75999,7.2222382 280.41102,5.9777537 278.5126,5.272297 275.93043,3.5270194 274.43326,4.8908893 Z"
     id="path3863"
     inkscape:connector-curvature="0"
     sodipodi:nodetypes="ssssssssssssssssssssssssssssss" />
  <path
     style="fill:#000000;stroke-width:0.54343218"
     d="M 440.60735,441.29543 C 413.87114,439.24636 383.63446,428.72393 365.47327,415.14861 360.31222,411.29078 344.60497,395.80631 339.67289,389.71417 331.39147,379.48491 327.74139,372.93573 323.69734,361.05001 319.69968,349.30062 315.06374,337.58195 313.43668,335.11319 311.55443,332.25726 309.11542,330.6866 304.45981,329.33232 302.3501,328.71862 298.04714,327.27386 294.89767,326.12174 287.56737,323.44021 284.46272,323.01028 280.92183,324.18637 277.68856,325.26029 274.19635,328.11551 272.97937,330.6801 272.45165,331.79218 272.09233,333.94055 272.09019,335.99651 272.0862,339.81601 270.44321,350.11786 269.08089,354.86528 267.86035,359.11867 263.57824,367.09752 259.87621,372.01636 249.24483,386.14216 232.32744,397.39801 217.76006,400.03803 213.55887,400.79941 210.57831,400.49773 201.17589,398.35948 197.29035,397.47586 192.93835,396.48706 191.50478,396.16216 188.27502,395.43018 185.14464,392.68465 185.14464,390.58395 185.14464,388.53904 186.33354,388.32192 189.8084,389.73226 192.45247,390.80541 193.4176,390.9156 197.54601,390.61563 209.71732,389.73127 222.66886,383.88545 238.12928,372.29793 249.86474,363.50225 257.27836,352.94022 261.86865,338.47689 263.76362,332.50611 263.57422,330.94561 260.82425,329.87241 259.47887,329.34736 251.87249,330.0842 245.57633,331.34948 243.62982,331.74064 241.38221,329.11719 240.61957,325.56385 238.68414,316.5462 238.60579,308.65119 240.392,302.63352 241.47771,298.97576 245.22867,292.12395 246.71545,291.08258 247.71839,290.38009 247.9988,290.37859 248.97272,291.07052 249.58435,291.50506 251.67432,292.76116 253.61709,293.86185 255.55986,294.96254 258.57977,296.92695 260.32798,298.2272 262.67272,299.9711 264.01021,300.59128 265.42645,300.59128 267.90792,300.59128 270.4668,298.98366 272.38026,296.22253 273.8375,294.11973 273.90707,293.73034 273.95843,287.38938 273.98799,283.74103 274.56139,275.98739 275.23265,270.15908 275.90392,264.33077 276.66988,257.6058 276.93477,255.21469 277.19967,252.82359 275.98126,247.87226 276.67163,244.21174 277.77477,238.36265 277.84762,237.17746 277.27291,234.42996 276.42648,230.38351 277.21025,228.81912 273.93988,227.57029 272.4762,227.01136 268.74285,225.45803 265.64355,224.11846 258.16415,220.88571 253.4518,220.09773 241.66158,220.10831 231.56721,220.11736 223.39482,220.96006 212.58796,223.10623 209.00131,223.81851 205.17454,224.55462 204.08404,224.74203 200.03346,225.43814 198.11687,228.51784 199.99124,231.31862 200.38578,231.90818 201.52076,234.59144 202.51341,237.28143 205.08194,244.2419 206.46502,246.7518 209.14576,249.31726 211.24695,251.32809 220.50456,257.61127 227.18132,261.55807 229.76555,263.08567 232.96667,266.95097 232.96667,268.54378 232.96667,270.061 231.87779,270.5712 226.71087,271.47496 217.15137,273.14704 212.0924,272.2348 204.97991,267.55638 199.42269,263.90097 189.57481,253.83272 187.66703,249.85607 186.2131,246.82546 186.15736,246.42748 186.5163,241.63994 186.82815,237.48043 186.7335,236.2715 185.96999,234.66255 184.86643,232.33695 182.42735,230.38249 178.23136,228.46151 175.29195,227.1158 174.95537,227.07658 171.47196,227.67392 157.1123,230.13633 145.82192,237.59694 147.97279,243.20203 148.15153,243.66781 149.51641,244.92441 151.00586,245.99448 154.0318,248.1684 156.09059,251.86485 156.6831,256.18767 156.98586,258.39656 156.82071,259.02556 155.3267,261.35378 152.55838,265.66783 153.06654,267.48869 157.91299,270.62111 159.63048,271.73117 163.34226,273.58924 166.1614,274.75013 170.5474,276.55625 171.79696,277.3772 174.82002,280.43873 179.19643,284.87084 182.42747,290.70566 182.42747,294.17674 182.42747,298.10308 184.06398,298.77181 188.67789,296.73086 191.25491,295.59091 191.28302,295.59041 198.34089,296.55722 206.14896,297.62679 209.45192,298.89298 210.56708,301.24415 211.49055,303.19118 210.87478,305.43728 209.24795,306.0558 208.53279,306.3277 206.54531,306.40359 204.8313,306.22444 199.49389,305.66657 189.54818,309.50072 184.4983,314.06298 181.08031,317.15094 180.69836,318.30836 181.09203,324.38509 181.28016,327.28899 181.18186,332.65913 180.87359,336.31873 180.23116,343.94537 180.74199,348.56263 182.60108,351.93279 184.69137,355.72208 187.97787,355.87458 191.49402,352.34545 192.60647,351.22888 194.88818,349.21488 196.56447,347.86989 204.90619,341.17681 210.00788,336.3052 213.66139,331.54401 219.68021,323.7004 222.73507,321.24171 226.46174,321.24171 228.34314,321.24171 229.35019,322.75068 228.83601,324.79933 228.64191,325.57274 226.98531,328.27252 225.1547,330.79884 223.32408,333.32517 220.50142,337.57322 218.8821,340.23896 214.55031,347.37 211.89668,350.73213 205.39089,357.3322 199.7197,363.08558 178.77858,381.41475 168.29824,389.79836 159.17826,397.09376 143.62129,407.40354 137.51336,410.19984 133.69449,411.94818 132.67667,411.76729 119.66106,407.02703 100.21123,399.94345 96.693982,398.42754 94.858842,396.33744 93.230052,394.48234 93.183392,394.2864 93.415532,390.27625 93.660112,386.05141 94.848002,383.00771 96.499652,382.37391 96.943572,382.20356 98.301512,382.77081 99.517292,383.63447 102.585,385.81371 103.92857,386.02448 110.58165,385.37017 118.87478,384.55457 124.06061,383.51363 132.43171,380.98427 141.04404,378.38203 147.82169,375.3346 151.76775,372.29024 155.46375,369.4388 156.72138,366.52906 157.43668,359.17418 157.73614,356.09514 158.37766,350.53034 158.86229,346.80798 160.31884,335.62032 158.97889,327.76541 155.46334,326.88306 153.27884,326.33479 149.42635,327.54365 146.58861,329.66784 145.2284,330.68603 140.94529,333.66962 137.07058,336.29803 129.99096,341.10053 124.55118,345.97246 121.01964,350.67346 118.61141,353.87916 116.82634,354.94104 113.21992,355.31325 109.07241,355.74131 104.99664,354.71341 102.53451,352.61841 101.3971,351.65061 97.985642,349.51377 94.953502,347.86989 86.712352,343.40193 80.681732,338.75442 79.227682,335.75075 77.431492,332.04033 77.232902,329.89827 78.536322,328.29377 L 79.629782,326.94775 83.714292,328.96349 C 94.280342,334.17792 106.53612,332.99096 126.99739,324.77156 137.88031,320.39983 149.06826,315.15977 151.2696,313.40328 155.48274,310.04154 157.46499,301.21106 156.24115,291.25621 155.74164,287.19326 155.74147,285.36046 156.24036,283.19913 157.57635,277.4113 156.7712,275.00418 153.13484,273.91469 150.32502,273.07285 148.10049,274.0979 147.61981,276.45599 147.11881,278.91377 146.91564,279.1263 141.92521,282.41275 139.41353,284.06683 136.43339,286.55169 135.30269,287.93467 129.47354,295.06437 125.40842,295.28953 117.58434,288.91608 114.9977,286.80902 114.49894,286.12143 114.50148,284.66604 114.50984,279.87286 117.63585,274.63371 124.66715,267.62849 134.82448,257.50883 136.90409,248.03848 129.87094,243.9309 124.51321,240.80182 116.71546,242.60508 103.71595,249.97934 96.362942,254.15049 71.666572,265.90086 62.057242,269.80027 51.134482,274.23267 47.592942,275.14955 41.409442,275.14584 35.571102,275.14234 30.779572,274.10746 24.427692,271.47808 15.501522,267.78309 10.859562,263.49512 10.287042,258.41579 10.050272,256.31518 10.204102,255.88077 11.669392,254.51199 13.996012,252.3386 16.696702,251.69317 24.951802,251.33768 30.336382,251.1058 36.238312,250.27615 48.199722,248.06963 81.150172,241.99126 94.203422,239.18181 124.82366,231.57788 135.43417,228.94296 146.80452,226.39648 150.0911,225.91903 157.33121,224.86722 161.21462,223.16363 163.19548,220.17036 164.3156,218.47773 164.68559,216.91367 165.27178,211.39311 165.84801,205.96633 166.35492,203.7879 167.90979,200.05633 168.96839,197.51578 170.00128,194.54073 170.20512,193.4451 170.71649,190.69645 169.27054,185.98951 167.36716,184.20689 165.01689,182.00573 163.88183,181.89806 161.46132,183.64664 160.28998,184.49283 155.41889,187.59432 150.63669,190.53884 145.85449,193.48337 139.37406,197.97344 136.23574,200.51678 128.5887,206.71403 123.79179,209.77673 118.38781,211.91219 110.82548,214.90054 106.3742,215.27679 101.69791,213.32291 100.72393,212.91595 95.159912,209.39201 89.333432,205.49193 75.448042,196.19744 69.385492,190.04973 71.761762,187.67346 72.532272,186.90295 72.929532,186.9149 76.029222,187.80189 81.157962,189.26948 91.639712,189.53907 99.011532,188.39297 112.28769,186.32893 125.6187,182.18432 149.82154,172.59614 156.77733,169.84054 161.11473,168.44435 163.8984,168.06484 168.54485,167.43138 169.6027,166.63886 169.60502,163.78955 169.60797,160.16761 167.19758,149.88911 165.53361,146.42814 164.19394,143.64166 163.22774,142.54803 159.87896,140.02766 157.65757,138.35579 154.18022,136.04807 152.15151,134.8994 147.71164,132.3855 147.15715,130.90406 149.70318,128.35803 152.77668,125.28453 155.69061,125.45081 170.23822,129.52986 181.21035,132.60636 185.06272,134.31622 187.86043,137.35136 L 190.03553,139.71107 V 145.72795 C 190.03553,151.82615 190.51675,153.76315 192.63073,156.17418 193.66591,157.35481 196.96322,157.43234 198.56044,156.3136 200.09346,155.23983 206.69218,153.73112 208.01678,154.15154 210.67301,154.99459 213.94654,158.9983 213.94654,161.40396 213.94654,162.90009 211.35354,165.82368 209.24533,166.70455 208.27563,167.10971 204.96286,167.59483 201.88362,167.78258 198.44716,167.99211 195.42275,168.49363 194.05232,169.08117 189.71121,170.94236 186.6396,176.84826 185.05404,186.38257 183.57839,195.25597 182.71037,198.33319 179.95149,204.47174 177.39711,210.15524 175.36286,216.69284 175.36286,219.21845 175.36286,220.13838 175.72148,220.87847 176.26906,221.0886 177.97623,221.74371 183.03767,220.20556 191.66312,216.41043 201.14297,212.23938 203.88391,211.53415 217.20714,209.83811 232.81501,207.85123 237.06168,206.73022 244.10703,202.7372 252.58518,197.93213 253.3534,197.7308 261.54232,198.16791 269.52075,198.59378 271.76546,198.02139 272.42519,195.3928 272.93962,193.34317 272.12172,183.50179 271.17033,180.29382 270.31065,177.39503 268.65073,175.49817 262.21665,170.06206 258.16172,166.63607 255.14071,162.02277 254.8292,158.7809 254.52273,155.59137 255.43474,154.73031 259.06151,154.78503 261.18006,154.81699 262.91317,155.45718 267.8482,158.03076 271.22938,159.79402 275.70761,161.94641 277.79983,162.81385 282.92815,164.94007 285.15031,166.38755 287.49959,169.13216 290.59499,172.74844 291.85327,175.77141 291.45211,178.62795 290.33961,186.54987 290.259,185.72429 292.34913,187.81442 294.65247,190.11777 297.37805,190.38068 300.32553,188.58385 304.735,185.89574 319.66742,179.28741 322.82484,178.62679 324.71505,178.23131 326.79371,177.62294 327.44409,177.27487 329.02228,176.43025 331.10248,173.05063 331.85515,170.10839 333.27589,164.55465 334.21338,163.69262 338.04981,164.41234 340.65275,164.90066 349.60469,169.35957 352.6985,171.70877 355.61493,173.92329 359.27235,178.99706 360.09193,181.96534 360.49074,183.40968 360.43044,184.36936 359.85426,185.74836 359.06371,187.64041 356.36809,189.19204 349.6894,191.5994 345.06744,193.2654 339.72319,200.3648 336.13516,209.60513 334.0291,215.02892 333.22958,218.28956 331.35447,229.10207 330.47065,234.1985 328.14542,244.7123 326.18731,252.46609 320.79598,273.81483 319.04919,287.65445 319.5301,305.21046 319.84844,316.83157 320.60895,322.53801 323.22379,332.9255 328.82998,355.19625 336.41209,368.78881 352.13399,384.75321 364.83384,397.64894 375.3863,403.79774 392.36573,408.19579 409.08344,412.52605 432.67803,414.45439 443.27493,412.35649 452.00503,410.62817 460.08336,405.9218 464.69267,399.87867 466.59254,397.38782 467.38126,394.9322 469.91356,383.62377 472.26164,373.13796 474.66987,366.0899 476.70863,363.73697 478.28866,361.91344 478.87773,362.37474 480.56322,366.75549 481.22417,368.47336 482.63041,372.09747 483.68819,374.80907 486.80995,382.8116 488.30489,388.74436 489.47606,397.77848 491.06395,410.02711 492.09829,412.89272 497.84397,420.96152 502.4114,427.37569 504.68277,432.24552 504.68277,435.62399 504.68277,438.11007 504.4759,438.7069 503.29117,439.63881 501.09883,441.36331 496.98845,441.94563 490.28182,441.48187 486.99405,441.25452 479.16863,441.22453 472.89199,441.41523 457.96353,441.86879 447.58607,441.83029 440.60735,441.29543 Z M 309.17516,305.13395 C 309.99278,304.71683 310.77143,303.82976 310.90552,303.1627 311.0396,302.49564 311.29976,301.09396 311.48365,300.04785 311.66753,299.00174 312.16098,289.83133 312.5802,279.66914 313.0552,268.15471 313.76579,258.12086 314.46599,253.04097 315.08395,248.55765 316.07181,240.12087 316.66122,234.29255 317.86604,222.37887 318.10521,220.5103 318.929,216.5752 320.05232,211.20935 317.50092,207.05577 312.43562,206.00421 305.91813,204.65119 300.3448,206.10757 296.3603,210.2049 292.54177,214.13155 286.6839,227.29943 284.81824,236.15023 283.96136,240.21534 282.80741,254.82774 281.87504,273.41967 281.55278,279.84576 281.0373,286.87781 280.72953,289.04645 280.2756,292.24497 280.32898,293.53645 281.01222,295.88672 281.95436,299.12758 285.28537,303.33311 287.69881,304.32882 292.75012,306.41282 305.7157,306.89889 309.17516,305.13395 Z"
     id="path3869"
     inkscape:connector-curvature="0"
     sodipodi:nodetypes="cssscssccccsccssssssccscccscsscccccccscccssssscccccsccccccsscsccsccsccssscsssscsccccsssccccccccscccssscccsccscssssscscsssccsccscccccsscsscscscssccscccscscscscsssscccccsssccccccccccssssssssscscscscssssccccscsccccssscc" />
</svg>
