<?xml version="1.0" encoding="UTF-8" standalone="no"?>
<!-- Created with Inkscape (http://www.inkscape.org/) -->

<svg
   xmlns:dc="http://purl.org/dc/elements/1.1/"
   xmlns:cc="http://creativecommons.org/ns#"
   xmlns:rdf="http://www.w3.org/1999/02/22-rdf-syntax-ns#"
   xmlns:svg="http://www.w3.org/2000/svg"
   xmlns="http://www.w3.org/2000/svg"
   xmlns:sodipodi="http://sodipodi.sourceforge.net/DTD/sodipodi-0.dtd"
   xmlns:inkscape="http://www.inkscape.org/namespaces/inkscape"
   version="1.1"
   id="svg3775"
   width="512"
   height="513"
   viewBox="0 0 512 513"
   sodipodi:docname="U+8F09.svg"
   inkscape:version="0.92.4 (5da689c313, 2019-01-14)">
  <metadata
     id="metadata3781">
    <rdf:RDF>
      <cc:Work
         rdf:about="">
        <dc:format>image/svg+xml</dc:format>
        <dc:type
           rdf:resource="http://purl.org/dc/dcmitype/StillImage" />
        <dc:title></dc:title>
      </cc:Work>
    </rdf:RDF>
  </metadata>
  <defs
     id="defs3779" />
  <sodipodi:namedview
     pagecolor="#ffffff"
     bordercolor="#666666"
     borderopacity="1"
     objecttolerance="10"
     gridtolerance="10"
     guidetolerance="10"
     inkscape:pageopacity="0"
     inkscape:pageshadow="2"
     inkscape:window-width="1920"
     inkscape:window-height="1017"
     id="namedview3777"
     showgrid="false"
     showguides="true"
     inkscape:guide-bbox="true"
     inkscape:zoom="1.8401559"
     inkscape:cx="270.65205"
     inkscape:cy="291.03958"
     inkscape:window-x="-8"
     inkscape:window-y="-8"
     inkscape:window-maximized="1"
     inkscape:current-layer="svg3775" />
  <path
     style="fill:#000000;stroke:#000000;stroke-width:1px;stroke-linecap:butt;stroke-linejoin:miter;stroke-opacity:1"
     d="M 180.96292,71.73305 C 179.79039,74.59777 178.44281,77.422448 177.70233,80.427966 177.35297,81.845993 176.6144,83.420294 177.1589,84.775423 178.55121,88.240545 184.05796,88.565825 185.85381,91.840042 188.13374,95.996836 187.31483,101.23131 187.48411,105.96928 187.63301,110.13687 187.03127,114.29895 186.94068,118.46822 186.89739,120.46033 188.46106,123.15801 186.94068,124.44597 185.2592,125.8704 182.60356,123.0655 180.41949,123.35911 177.84902,123.70466 175.81684,125.80396 173.35487,126.6197 166.6775,128.83215 159.41163,128.84678 152.70445,130.96716 150.07368,131.79884 147.27013,132.22775 145.0964,132.22775 142.92267,132.22775 138.21399,133.32142 134.77119,133.85805 132.41704,134.22499 129.12585,133.03119 127.70657,134.94491 126.94356,135.97373 127.5766,139.65936 128.25,140.74894 129.75577,143.18532 132.86398,144.15739 135.31462,145.63983 138.98895,147.8625 142.70485,150.11233 146.7267,151.61758 150.38897,152.98825 154.23531,154.10248 158.13877,154.33475 162.87139,154.61636 167.74499,154.12547 172.26801,152.70445 174.81961,151.9028 177.02545,150.25327 179.33263,148.90042 181.37003,147.70575 182.96266,144.83868 185.31038,145.0964 187.85685,145.37593 189.52047,148.28041 190.7447,150.53072 191.98414,152.80899 190.74895,156.11821 192.375,158.13877 193.74725,159.84395 196.31543,160.0559 198.35275,160.85593 200.48551,161.69345 202.95879,164.28756 204.87394,163.02966 208.36941,160.73377 205.95329,154.71275 205.96081,150.53072 205.96866,146.1682 205.65805,141.77983 204.87394,137.48835 204.63691,136.19108 203.27441,134.89934 203.78708,133.68432 204.82683,131.22014 208.44577,131.04854 210.8517,129.8803 214.93847,127.8959 219.23429,126.36824 223.35064,124.44597 228.12171,122.21796 232.92555,120.02433 237.47987,117.38136 240.30434,115.74226 243.01527,114.94644 246.17479,114.12076 248.45988,113.52359 251.01093,114.14542 252.69597,112.49047 254.8968,110.32894 253.54245,106.00602 252.15254,103.25212 251.51508,101.98909 250.19176,101.09361 248.89195,100.53496 246.04323,99.310599 242.72612,99.031129 239.6536,99.448093 234.42036,100.15828 229.91433,103.54097 224.98093,105.42585 222.46538,106.38695 219.91839,107.26432 217.37288,108.14301 215.74846,108.70375 213.82431,110.84631 212.48199,109.7733 211.06,108.6366 212.43,106.05933 213.02542,104.33898 213.7979,102.10705 216.49644,100.69946 216.82945,98.361228 217.46797,93.877866 215.33271,89.215601 213.02542,85.318855 210.41502,80.910191 205.77966,78.073091 202.15678,74.450211 199.98305,72.276482 198.42203,69.227467 195.63559,67.929025 191.84491,66.162622 186.73876,64.717487 183.13665,66.842161 181.59999,67.74855 181.63872,70.081938 180.96292,71.73305 Z"
     id="path3785"
     inkscape:connector-curvature="0"
     sodipodi:nodetypes="sssssssssssssssssssssssssssssssssssssssssssss" />
  <path
     style="fill:#000000;stroke:#000000;stroke-width:1px;stroke-linecap:butt;stroke-linejoin:miter;stroke-opacity:1"
     d="M 53.799788,210.30826 C 56.667917,214.92762 59.37572,219.64885 61.951271,224.4375 63.102453,226.57786 63.341723,229.40661 65.211864,230.95869 67.241442,232.64309 70.191854,233.3553 72.819915,233.13241 77.825223,232.70789 82.442886,229.69818 86.40572,226.61123 88.637945,224.87238 89.679645,221.91736 91.840042,220.09004 95.682838,216.8397 100.50635,214.96832 104.88242,212.48199 113.34199,207.67556 121.56134,202.36823 130.42373,198.35275 139.19192,194.37994 148.46648,191.62521 157.59534,188.57097 165.148,186.04408 172.91214,184.16485 180.41949,181.50636 183.1781,180.52948 185.81358,177.26542 188.57097,178.24576 190.32821,178.87051 189.82052,181.98588 191.28814,183.13665 192.91344,184.41106 195.21702,185.02741 197.26589,184.76695 200.16343,184.3986 203.25374,182.84979 204.87394,180.41949 205.68404,179.20434 205.92748,177.44048 205.41737,176.07203 204.56613,173.78848 201.97863,172.58001 199.98305,171.18114 197.46143,169.41353 194.67895,168.00647 191.83157,166.83369 190.08289,166.11344 187.91455,164.07448 186.39725,165.20339 185.52527,165.85217 186.4743,167.37985 186.39725,168.46398 186.30645,169.74164 186.68377,171.2924 185.85381,172.26801 183.88626,174.58085 180.10398,174.24557 177.1589,174.98517 168.7515,177.09652 159.99385,177.64441 151.61758,179.87606 140.32524,182.88462 129.53652,187.53832 118.46822,191.28814 105.98985,195.51567 93.604886,200.04854 80.971398,203.78708 76.126494,205.2208 71.350543,207.50267 66.298729,207.5911 62.959109,207.64956 59.837137,205.78183 56.516949,205.41737 54.536262,205.19995 51.479412,203.66056 50.539195,205.41737 49.614649,207.1449 52.766243,208.64365 53.799788,210.30826 Z"
     id="path3787"
     inkscape:connector-curvature="0"
     sodipodi:nodetypes="ssssssssssssssssssssssssssss" />
  <path
     style="fill:#000000;stroke:#000000;stroke-width:1px;stroke-linecap:butt;stroke-linejoin:miter;stroke-opacity:1"
     d="M 176.61547,196.17903 C 176.61547,196.17903 175.53983,201.58933 175.5286,204.33051 175.51663,207.25134 176.79153,210.10987 176.61547,213.02542 176.57045,213.77094 176.66072,214.73951 176.07203,215.19915 174.64424,216.31393 173.35487,214.11229 170.63771,215.19915 167.92055,216.28602 159.00364,217.94288 153.24788,219.54661 148.50104,220.86923 143.6402,221.93518 139.11864,223.89407 137.77857,224.47463 135.79555,224.68883 135.31462,226.0678 134.67215,227.90996 136.4534,229.84827 137.48835,231.50212 138.91687,233.78489 140.51187,236.27997 142.92267,237.47987 146.50508,239.2629 151.31022,240.37851 154.87818,238.56674 156.76174,237.61029 156.57727,234.55519 158.13877,233.13241 161.85186,229.74918 167.21365,228.82141 171.72458,226.61123 173.17953,225.89836 174.45972,224.59715 176.07203,224.4375 178.12734,224.23398 180.79613,224.42644 182.04979,226.0678 183.58914,228.08319 182.04979,231.13983 182.04979,233.67585 182.04979,236.03072 182.49511,238.42809 182.04979,240.74047 181.68084,242.65625 181.39004,244.94427 179.87606,246.17479 177.44945,248.14707 173.73152,247.35049 170.63771,247.80508 167.56996,248.25584 164.40067,248.11324 161.39936,248.89195 158.1758,249.72832 153.66215,249.72319 152.16102,252.69597 151.15106,254.69607 152.51671,257.37438 153.79131,259.21716 155.42059,261.57273 158.06095,263.48246 160.85593,264.10805 164.08168,264.83006 167.50789,263.54124 170.63771,262.47775 173.55343,261.48701 175.89663,257.07388 178.7892,258.1303 181.53808,259.13424 181.68377,263.37829 182.04979,266.28178 182.5753,270.45039 181.57322,274.74062 180.41949,278.78072 179.81847,280.88536 179.35101,283.31883 177.70233,284.75847 174.85325,287.2463 170.43969,286.87746 166.83369,288.01907 163.01089,289.22932 159.21193,290.51469 155.42161,291.82309 152.8761,292.70178 148.0898,291.86156 147.81356,294.54025 147.42157,298.34133 154.10932,298.9529 157.59534,300.51801 161.56829,302.30174 165.80863,305.09614 170.09428,304.32203 173.9092,303.63294 175.47719,296.85242 179.33263,297.25742 180.99356,297.43189 180.92808,300.93335 182.59322,301.06144 184.25837,301.18953 185.46537,299.18675 186.39725,297.80085 187.67578,295.89941 186.80497,292.73958 188.57097,291.27966 190.68372,289.53309 194.05167,290.81013 196.72246,290.1928 200.62925,289.28978 205.34245,289.26674 208.13453,286.38877 209.4514,285.03139 209.67592,282.84356 209.76483,280.95445 209.85168,279.10918 210.23897,276.50798 208.67797,275.52013 206.1535,273.92256 202.85142,276.85859 199.98305,277.69386 197.78312,278.33448 195.72359,279.50055 193.46186,279.86758 192.03142,280.09971 190.32018,280.67142 189.11441,279.86758 187.15504,278.56133 186.75397,275.6741 186.39725,273.3464 185.79108,269.39097 186.81571,265.33628 187.48411,261.39089 187.98312,258.44535 187.48332,254.74454 189.65784,252.69597 191.8042,250.67393 195.4657,251.66605 198.35275,251.06568 204.72009,249.74158 211.11058,248.47317 217.37288,246.71822 219.02762,246.2545 220.6761,245.74555 222.26377,245.08792 223.01221,244.77791 223.65621,244.21517 224.4375,244.00106 226.88957,243.32909 229.58745,242.80807 232.04555,243.45763 234.57135,244.12508 237.33401,245.50171 238.56674,247.80508 239.93433,250.36044 238.69517,253.60454 238.56674,256.5 238.2041,264.67558 237.38753,272.83148 236.39301,280.95445 235.68003,286.77791 235.54627,292.78347 233.67585,298.34428 232.82318,300.87928 230.41732,302.79056 229.87182,305.4089 229.42693,307.54431 231.70401,310.17025 230.41525,311.93008 228.00064,315.22729 222.43976,313.71913 218.45975,314.64725 210.11605,316.59295 201.78416,318.58971 193.46186,320.625 185.48141,322.57668 177.42803,324.26893 169.55085,326.60275 163.67384,328.34397 158.18167,333.73069 152.16102,332.58051 150.52062,332.26713 148.35699,332.03708 148.35699,329.31992 148.35699,326.60275 145.9852,314.79773 144.55297,307.58263 143.57746,302.66832 141.29237,295.08369 141.29237,292.90996 141.29237,290.73623 139.17654,282.9206 136.40148,278.78072 134.1148,275.36941 130.2376,273.35204 127.16314,270.62924 123.89724,267.73691 121.22869,263.99095 117.38136,261.93432 113.58411,259.90446 106.96937,254.90755 104.88242,258.67373 102.70863,262.59662 111.69562,264.55023 114.6642,267.91208 119.12473,272.96352 123.70868,278.13726 126.6197,284.21504 129.04919,289.28746 129.46998,295.09672 130.96716,300.51801 132.72243,306.87383 135.00961,313.09297 136.40148,319.53814 137.44516,324.371 139.07298,329.29165 138.57521,334.2108 138.36175,336.32027 138.16794,339.01594 136.40148,340.18856 133.37934,342.19474 129.1526,339.40971 125.53284,339.64513 123.51186,339.77657 120.8036,339.13736 119.55508,340.73199 117.76485,343.01849 118.90404,346.77998 120.09852,349.42691 121.57373,352.69593 124.3563,355.75494 127.70657,357.03496 130.75712,358.20047 134.35262,357.40339 137.48835,356.49153 142.47224,355.04222 146.37799,351.09382 151.07415,348.88347 156.52235,346.31916 162.59261,345.16793 167.92055,342.36229 171.61046,340.41922 174.33605,336.74859 178.24576,335.29767 179.78361,334.72696 181.66673,334.02622 183.13665,334.75424 185.97619,336.16059 185.53268,339.77587 186.02754,342.90572 186.40496,345.29283 186.89176,347.60471 186.39725,349.97034 185.79387,352.85676 186.32412,356.16111 184.76695,358.66525 182.85383,361.74181 179.43606,363.84161 176.07203,365.18644 170.31374,367.48841 163.69765,366.25618 157.59534,367.36017 147.13308,369.25293 136.93416,372.38883 126.6197,374.96822 116.64621,377.46234 106.73826,380.22156 96.730932,382.57627 90.056017,384.14687 83.480865,386.98597 76.623941,386.92373 73.460526,386.89502 69.764617,382.66475 67.385593,384.75 66.016574,385.94996 67.170593,388.52936 67.929025,390.18432 70.010871,394.72709 74.209773,398.11815 78.254237,401.05297 81.664337,403.52747 87.492583,405.40042 89.666314,406.48729 91.84004,407.57415 97.752609,403.10043 101.62182,401.05297 105.93289,398.77169 109.74907,395.60776 114.12076,393.44492 121.26647,389.90967 128.95101,387.58719 136.40148,384.75 142.72196,382.34312 148.91932,379.54599 155.42161,377.68538 163.24307,375.4473 172.62716,368.18788 179.33263,372.79449 181.14901,374.04233 180.23773,377.11948 180.41949,379.31568 180.74819,383.28727 180.60862,387.29051 180.41949,391.27119 180.23814,395.08812 179.99819,398.92043 179.33263,402.68326 178.58268,406.92319 176.61992,410.91145 176.07203,415.1822 175.58798,418.9553 175.23055,422.88449 176.07203,426.59428 177.09363,431.09816 179.38239,435.32313 182.04979,439.09322 184.12124,442.021 186.43037,448.26531 189.65784,446.70127 195.23846,443.99689 187.98752,434.40549 187.48411,428.22458 187.16027,424.24846 186.79072,420.25554 186.94068,416.26907 187.16704,410.25182 188.4525,404.32082 189.11441,398.3358 189.91486,391.09803 190.3719,383.82255 191.28814,376.59852 191.58793,374.23488 190.72837,371.25591 192.375,369.5339 194.29005,367.53118 197.78097,368.27838 200.52648,367.9036 205.38571,367.24029 210.3075,367.16855 215.19915,366.81674 222.98716,366.25662 230.7637,364.90446 238.56674,365.18644 246.24702,365.46398 259.21716,369.5339 261.39089,368.44703 263.56462,367.36017 264.65148,371.16419 262.47775,372.25106 260.30403,373.33792 253.78284,377.14195 252.69597,379.31568 251.60911,381.48941 246.3934,383.29649 244.54449,386.3803 242.443,389.88539 243.32716,394.53417 241.82733,398.3358 240.90378,400.67674 239.30471,402.69113 238.02331,404.85699 236.94765,406.67511 234.59988,408.18511 234.76271,410.29131 234.98082,413.11245 237.47545,416.03828 240.19703,416.8125 242.95187,417.59618 245.81577,415.43268 248.34852,414.09534 253.37843,411.43945 257.86257,407.74186 261.93432,403.77013 267.74642,398.10081 272.19277,391.17988 277.15042,384.75 281.97298,378.49534 286.6707,372.14355 291.27966,365.72987 298.87454,355.16108 306.65934,344.70173 313.56038,333.66737 319.06475,324.86621 320.97501,313.3438 328.77648,306.49576 330.24272,305.20871 332.32774,303.81176 334.21081,304.32203 338.19774,305.4024 339.23764,310.87889 341.81886,314.10381 346.80454,320.33282 351.98133,326.4065 357.03496,332.58051 365.76174,343.24201 382.03284,362.46928 383.1197,364.64301 384.20657,366.81674 399.17902,382.29001 407.03072,391.27119 414.38897,399.68793 420.37629,409.42572 428.76801,416.8125 436.23527,423.38552 445.37585,427.77021 453.76589,433.11547 461.86289,438.27404 476.04661,447.2447 478.22034,448.33157 480.39407,449.41843 487.05716,456.71638 492.34958,455.93962 494.88419,455.56762 496.39008,452.65469 497.7839,450.5053 501.37147,444.97295 504.89898,438.62215 504.84852,432.0286 504.82612,429.10221 503.95886,425.5926 501.58792,423.87712 499.23522,422.17484 495.06674,422.79025 492.89301,423.33369 490.71928,423.87712 489.32584,425.2646 487.45869,424.96398 485.27566,424.6125 484.74153,421.15996 482.02436,421.15996 479.3072,421.15996 474.19362,417.16261 470.61229,414.63877 467.88201,412.71469 466.31122,408.58698 463.00424,408.11758 460.83719,407.80999 459.14355,410.27908 457.02648,410.83475 452.98146,411.89646 448.54857,413.07083 444.52754,411.92161 441.91499,411.17493 440.04278,408.82959 438.00636,407.03072 427.44485,397.70121 417.46227,387.60412 408.66102,376.59852 403.51495,370.16358 399.99521,362.55749 395.07521,355.94809 386.32257,344.19003 376.40411,333.34326 366.81674,322.2553 359.51602,313.81189 353.77493,303.52114 344.53602,297.25742 342.78109,296.06762 339.37377,297.04082 338.55826,295.08369 337.56068,292.68962 340.65557,290.33714 341.81886,288.01907 346.07255,279.54281 351.6682,271.52496 357.57839,264.10805 360.13773,260.89624 361.64985,257.68163 364.64301,254.8697 366.6968,252.94026 370.05417,251.65234 370.62076,248.89195 371.20917,246.02524 368.71101,243.33652 367.36017,240.74047 364.76272,235.74868 361.60717,231.02904 358.12182,226.61123 355.34395,223.09017 352.28538,219.75203 348.88347,216.82945 346.71096,214.96304 344.35585,210.6093 341.81886,211.93856 339.09115,213.36775 341.36096,218.13169 341.81886,221.17691 342.18522,223.61335 342.90572,225.52436 343.99259,228.24153 345.07945,230.95869 345.94765,239.09273 345.62288,244.54449 345.42426,247.87871 343.92506,250.28742 342.36229,253.23941 340.38371,256.97684 336.75599,259.83955 334.75424,263.56462 333.25675,266.3513 335.46888,271.51248 332.58051,272.80297 330.50821,273.72885 328.2105,271.1445 326.60275,269.54237 323.67398,266.62382 322.32576,262.44243 320.625,258.67373 315.55766,247.44506 311.53265,235.73282 308.12606,223.89407 306.48523,218.19177 305.5935,212.30009 304.32203,206.50424 302.33485,197.44585 301.02228,188.21135 298.34428,179.33263 296.60545,173.56765 292.92875,168.40536 291.82309,162.48623 291.32417,159.81527 290.15092,156.47643 291.82309,154.33475 293.66164,151.97998 297.57247,152.66003 300.51801,152.16102 306.43609,151.15842 312.45216,150.72959 318.45127,150.53072 325.87631,150.28458 333.30862,151.36639 340.73199,151.07415 346.00912,150.8664 351.23665,148.91713 356.49153,149.44386 359.51292,149.74671 364.09958,149.98729 365.18644,152.16102 366.27331,154.33475 373.55646,157.11903 378.22881,158.13877 381.94535,158.94991 387.03628,160.91125 389.64089,158.13877 391.62922,156.02229 390.18947,152.13467 389.09746,149.44386 387.84143,146.34888 385.11938,144.00124 382.57627,141.8358 379.66686,139.35846 376.33555,137.29427 372.79449,135.85805 367.45973,133.69433 361.66948,132.69196 355.94809,132.05403 351.44738,131.5522 346.83625,131.35267 342.36229,132.05403 337.09897,132.87913 332.31561,135.6563 327.14619,136.94491 320.18179,138.68097 309.21292,140.74894 305.95233,140.74894 302.32945,140.74894 298.38863,142.23307 295.08369,140.74894 293.09385,139.85537 291.54584,137.8835 290.73623,135.85805 286.76712,125.92829 289.34584,114.48488 289.64936,103.79555 289.76294,99.795559 290.46416,95.832386 290.73623,91.840042 291.00746,87.859989 292.18412,83.769935 291.27966,79.884533 290.34224,75.857512 287.55729,72.481275 285.30191,69.015889 282.69325,65.00769 279.26601,61.578784 276.60699,57.603813 273.80856,53.420445 270.31247,49.420083 268.99894,44.56144 268.00617,40.889246 270.10129,36.790166 268.99894,33.149364 268.05262,30.023864 266.44383,26.53879 263.56462,24.997881 260.051,23.117447 254.97048,22.857145 251.60911,24.997881 249.07999,26.608584 248.78158,30.314356 247.80509,33.149364 247.01804,35.43438 247.26165,38.040256 246.17479,40.213983 245.08792,42.387713 241.06376,44.722326 240.74047,47.822033 240.41231,50.968511 242.29396,54.293638 244.54449,56.516949 248.18251,60.110962 254.43241,59.637552 258.67373,62.494703 263.77288,65.92973 268.97982,70.031304 271.7161,75.537076 274.07617,80.28586 273.33139,86.023182 273.88983,91.29661 274.40629,96.173631 274.34267,101.10615 274.9767,105.96928 275.73915,111.81741 277.27661,117.54026 278.23729,123.35911 279.48917,130.94175 285.38877,139.55569 281.49788,146.18326 280.22052,148.35906 276.85158,148.18104 274.43326,148.90042 269.4614,150.3794 264.30276,151.13953 259.21716,152.16102 253.43502,153.32241 244.54449,155.42161 241.82733,155.42161 239.11017,155.42161 230.85307,157.96998 225.52436,159.76907 222.36905,160.83437 216.29299,160.24281 216.28602,163.57309 216.28109,165.92796 217.37288,166.29025 222.8072,166.29025 228.24153,166.29025 236.31355,166.42156 242.9142,165.20339 248.15333,164.23649 252.98177,161.68218 258.1303,160.3125 264.03566,158.74148 269.95323,156.5808 276.06356,156.50847 279.01216,156.47356 282.81625,155.91993 284.75847,158.13877 287.02849,160.7321 284.77,165.05877 285.30191,168.46398 286.40044,175.49653 289.13183,182.17975 290.73623,189.11441 292.40181,196.3135 293.37551,203.66259 295.08369,210.85169 297.60318,221.45527 300.69258,231.918 303.7786,242.37076 306.68235,252.20613 308.54634,262.4868 313.01695,271.7161 315.40435,276.64475 320.18075,280.23363 322.2553,285.30191 323.02249,287.17622 323.7053,289.28723 323.34216,291.27966 322.77398,294.39703 320.40134,296.93353 318.45127,299.43114 317.03238,301.24842 315.08279,302.59056 313.56038,304.32203 308.27305,310.33544 303.70113,316.9431 298.88771,323.34216 294.83674,328.72761 290.98536,334.26133 286.9322,339.64513 283.90309,343.66869 279.92632,347.08614 277.69386,351.60064 276.44733,354.12138 277.7501,358.03888 275.52013,359.75212 274.37097,360.635 272.5453,360.2168 271.17267,359.75212 267.50072,358.50904 265.53191,354.13173 261.93432,352.6875 258.88982,351.4653 255.43319,351.60707 252.15254,351.60064 247.05149,351.59064 241.9952,352.57535 236.93644,353.23093 228.57778,354.31416 220.11777,355.00001 211.93856,357.03496 208.21374,357.96168 204.85404,360.19589 201.06992,360.83898 198.74833,361.23352 196.32977,361.21619 194.0053,360.83898 192.87444,360.65547 193.21735,358.79573 192.7447,357.75212 191.20404,354.35036 192.54927,353.12162 193.09216,349.42691 193.83373,344.38004 192.70421,339.25529 193.46186,334.2108 193.66676,332.84655 190.20127,330.95021 195.09216,330.40678 199.98305,329.86335 207.5911,326.05932 210.30826,326.05932 215.56144,326.05932 221.29522,323.86424 226.0678,326.05932 227.58508,326.75717 228.04106,328.79944 229.32839,329.86335 230.45413,330.79371 231.69789,331.76324 233.13242,332.03708 234.39058,332.27725 236.93644,333.66737 236.93644,331.49364 236.93644,329.31992 236.52027,327.27156 237.47987,325.51589 238.47043,323.70357 240.41719,322.38215 242.37076,321.71186 244.08416,321.12398 245.99365,321.71186 247.80509,321.71186 252.69597,321.71186 253.6209,324.68305 256.5,323.88559 258.47505,323.33854 260.64552,321.57758 260.84746,319.53814 261.04053,317.5883 259.03858,315.96318 257.58686,314.64725 255.30527,312.57907 252.39202,311.16077 249.43538,310.29979 247.16774,309.63945 244.51651,310.74327 242.37076,309.75636 241.90528,309.54227 241.47997,309.14284 241.2839,308.66949 240.52138,306.82858 241.17371,304.68127 241.2839,302.69174 241.37461,301.05392 241.61095,299.42684 241.82733,297.80085 243.22986,287.26167 244.65394,276.71155 246.71822,266.28178 247.76745,260.98057 248.00364,255.3035 250.52225,250.52225 251.65806,248.36607 255.03138,247.49488 255.41314,245.08792 255.97208,241.56385 254.00538,237.32844 251.06568,235.30614 248.22619,233.35277 244.17267,235.0764 240.74047,234.76271 236.5563,234.38029 232.44306,233.10679 228.24153,233.13241 224.39895,233.15584 220.61893,234.12571 216.82945,234.76271 211.18891,235.71087 205.47065,236.41053 199.98305,238.0233 198.11123,238.57342 196.49154,240.01866 194.54873,240.19703 193.62894,240.28148 192.30723,240.44537 191.83157,239.6536 190.85766,238.03245 193.18723,236.09043 193.46186,234.21928 193.88273,231.35169 193.84656,228.39702 193.46186,225.52436 193.18772,223.47728 190.91092,221.39542 191.83157,219.54661 192.70123,217.80018 195.09216,217.37288 197.26589,217.37288 199.43962,217.37288 206.54839,213.91471 211.39513,213.02542 216.92988,212.0099 222.64431,212.51804 228.24153,211.93856 232.06374,211.54285 235.82062,210.58066 239.6536,210.30826 242.36393,210.11564 245.42321,211.61578 247.80509,210.30826 249.87548,209.17173 252.23956,206.60664 251.60911,204.33051 250.96038,201.98839 247.36727,201.9131 245.08792,201.06991 240.18453,199.25603 234.99041,198.33049 229.87182,197.26589 227.71428,196.81715 225.549,196.0256 223.35064,196.17903 220.03581,196.41039 216.93657,197.96107 213.84057,199.1679 209.27272,200.94846 204.93835,203.27937 200.52648,205.41737 197.61044,206.83049 195.06959,209.88919 191.83157,209.76483 190.77611,209.72429 189.88403,208.85795 189.11441,208.13453 186.55166,205.72562 185.78996,201.74841 183.13665,199.43962 181.30327,197.8443 176.61547,196.17903 176.61547,196.17903 V 196.17903 196.17903"
     id="path3789"
     inkscape:connector-curvature="0"
     sodipodi:nodetypes="csssssssssssssssssssssssssssssssssssssssssssssssssssssssssssssssssssssssssssssssssssssssssssssssssssssssssssssssssssssssssssssssssssssssssssssssssssssssssssssssssssssssssssssssssssssssssssssssssssssssssssssssssssssssssssssssssssssssssssssssssssssssssssssssssssssssssssssssssssssssssssssssssc" />
  <path
     style="fill:#000000;stroke:#000000;stroke-width:1px;stroke-linecap:butt;stroke-linejoin:miter;stroke-opacity:1"
     d="M 330.40678,86.40572 C 328.89966,90.255948 334.17367,93.780403 336.38453,97.274364 338.53516,100.67314 341.29129,103.66195 343.44915,107.05614 345.45031,110.20386 346.01321,114.45582 348.88347,116.83792 351.52825,119.03289 355.23881,119.82968 358.66525,120.09852 361.96069,120.35709 365.78806,120.43207 368.44703,118.46822 369.7503,117.50565 370.52515,115.73814 370.62076,114.12076 370.90479,109.31603 368.59042,104.40579 365.72987,100.53496 364.115,98.349751 365.72987,100.53496 358.66526,93.470338 354.28397,89.08904 347.07177,87.478285 340.18856,85.318855 338.62345,84.82784 336.92887,84.602613 335.29767,84.775423 333.58875,84.956467 331.03318,84.805466 330.40678,86.40572 Z"
     id="path3795"
     inkscape:connector-curvature="0"
     sodipodi:nodetypes="ssssssssssss" />
</svg>
