<?xml version="1.0" encoding="UTF-8" standalone="no"?>
<!-- Created with Inkscape (http://www.inkscape.org/) -->

<svg
   xmlns:dc="http://purl.org/dc/elements/1.1/"
   xmlns:cc="http://creativecommons.org/ns#"
   xmlns:rdf="http://www.w3.org/1999/02/22-rdf-syntax-ns#"
   xmlns:svg="http://www.w3.org/2000/svg"
   xmlns="http://www.w3.org/2000/svg"
   xmlns:sodipodi="http://sodipodi.sourceforge.net/DTD/sodipodi-0.dtd"
   xmlns:inkscape="http://www.inkscape.org/namespaces/inkscape"
   version="1.1"
   id="svg3840"
   width="512"
   height="512"
   viewBox="0 0 512 512"
   sodipodi:docname="U+8FB2.svg"
   inkscape:version="0.92.4 (5da689c313, 2019-01-14)">
  <metadata
     id="metadata3846">
    <rdf:RDF>
      <cc:Work
         rdf:about="">
        <dc:format>image/svg+xml</dc:format>
        <dc:type
           rdf:resource="http://purl.org/dc/dcmitype/StillImage" />
        <dc:title></dc:title>
      </cc:Work>
    </rdf:RDF>
  </metadata>
  <defs
     id="defs3844" />
  <sodipodi:namedview
     pagecolor="#ffffff"
     bordercolor="#666666"
     borderopacity="1"
     objecttolerance="10"
     gridtolerance="10"
     guidetolerance="10"
     inkscape:pageopacity="0"
     inkscape:pageshadow="2"
     inkscape:window-width="1920"
     inkscape:window-height="1017"
     id="namedview3842"
     showgrid="false"
     inkscape:zoom="1.84375"
     inkscape:cx="368.96201"
     inkscape:cy="294.49928"
     inkscape:window-x="-8"
     inkscape:window-y="-8"
     inkscape:window-maximized="1"
     inkscape:current-layer="svg3840" />
  <path
     style="fill:#000000;stroke-width:0.54237288"
     d="M 176.55121,216.51405 C 173.11389,215.5841 158.01612,208.39294 157.99619,207.67618 157.97001,206.73459 159.34397,206.39781 163.21151,206.39781 167.32403,206.39781 168.35059,205.95499 169.79668,203.55721 171.37427,200.94141 171.61511,198.43935 170.69793,194.19442 170.24675,192.10629 169.65304,187.95713 169.37857,184.97408 168.76417,178.29671 167.16571,172.06027 162.24964,157.16033 156.52941,139.82309 155.7732,138.52494 144.96154,127.48256 134.72063,117.02312 133.30951,114.79841 131.37253,106.05882 129.24452,96.457308 130.58433,91.957125 135.57093,91.957125 138.79774,91.957125 142.41097,93.770427 144.02077,96.197678 164.59704,127.22252 169.82029,136.49119 175.09949,151.34696 176.50659,155.30658 176.66848,156.53952 176.95113,165.44866 177.23901,174.52274 177.35552,175.38014 178.60296,177.60401 180.67727,181.302 181.97666,181.97886 188.5449,182.78285 194.93294,183.56479 194.06009,183.09628 201.99244,190.00103 209.63328,196.65205 210.74009,196.9056 223.02949,194.82027 229.9818,193.64057 230.3612,193.62752 231.27043,194.53675 234.30336,197.56968 242.58912,195.17823 242.58912,191.26993 242.58912,190.58447 245.79525,189.4658 257.0976,186.20769 271.2552,182.12651 279.89237,179.82154 281.0278,179.82154 281.33746,179.82154 281.74808,180.65982 281.94029,181.68439 282.41226,184.20017 283.96633,185.4918 286.52133,185.4918 289.22651,185.4918 290.62414,184.19153 291.74667,180.63045 L 292.63644,177.80777 298.31225,177.4605 C 307.5844,176.89318 312.42525,177.85301 317.42689,181.25051 319.83882,182.88888 322.59719,182.95374 323.43314,181.39175 324.11383,180.11987 323.3754,168.91964 322.25686,163.55035 L 321.63542,160.5673 325.02201,152.7029 C 330.03147,141.06983 331.83088,136.15087 335.1407,125.04188 339.09481,111.77041 340.2636,108.41142 344.34824,98.580507 349.15512,87.011303 351.0637,81.389546 351.0637,78.800038 351.0637,76.690153 350.77343,76.294551 345.36879,71.038449 339.20534,65.044412 338.72249,64.024761 340.79798,61.386201 341.71439,60.221174 342.37237,59.957125 344.35906,59.957125 345.69939,59.957125 347.24125,59.718854 347.7854,59.427633 348.32954,59.136412 349.45207,57.041082 350.27989,54.771344 351.17007,52.330624 352.24705,50.363445 352.91588,49.956531 353.7443,49.452523 355.36698,49.371833 358.98315,49.654827 367.28671,50.304646 371.55774,53.048248 377.5985,61.61286 381.92159,67.742164 382.683,69.473544 382.39116,72.510872 382.24813,73.999358 381.58501,75.942303 380.83981,77.056295 379.24693,79.437499 373.08785,84.178436 368.69082,86.407953 366.90099,87.315488 364.78699,88.752265 363.99304,89.600791 362.10198,91.621859 358.37041,100.47604 354.92485,111.11762 351.78372,120.81897 340.87232,160.25726 337.49214,174.12662 334.7152,185.52079 330.9985,195.45111 328.40797,198.39781 326.2255,200.88036 322.31794,198.48256 322.31794,194.66079 322.31794,189.46802 315.88073,187.28344 304.03418,188.45587 291.79775,189.66688 288.46765,190.20211 283.57709,191.74386 277.58283,193.63355 275.31561,194.08735 263.19929,195.82265 252.27738,197.38688 249.97943,197.82156 231.19929,201.87583 212.19997,205.97742 204.64285,208.54038 192.52604,214.99173 188.45463,217.15946 188.11387,217.24324 183.57689,217.19202 180.98277,217.16274 177.82122,216.85765 176.55121,216.51405 Z"
     id="path3862"
     inkscape:connector-curvature="0" />
  <path
     style="fill:#000000;stroke-width:0.54237288"
     d=""
     id="path3866"
     inkscape:connector-curvature="0" />
  <path
     style="fill:#000000;stroke-width:0.54237288"
     d="M 284.45306,177.56458 C 283.85645,176.96797 283.36831,175.89472 283.36831,175.17958 283.36831,174.00145 283.70541,173.82062 286.9572,173.25434 288.93109,172.91061 290.64978,172.73305 290.77651,172.85978 290.90324,172.98651 290.60126,174.10405 290.10545,175.34321 288.76477,178.69389 286.4802,179.59172 284.45306,177.56458 Z"
     id="path3868"
     inkscape:connector-curvature="0" />
  <path
     style="fill:#000000;stroke-width:0.54237288"
     d=""
     id="path3870"
     inkscape:connector-curvature="0" />
  <path
     style="fill:#000000;stroke-width:0.54237288"
     d=""
     id="path3872"
     inkscape:connector-curvature="0" />
  <path
     style="fill:#000000;stroke-width:0.54237288"
     d=""
     id="path3874"
     inkscape:connector-curvature="0" />
  <path
     style="fill:#000000;stroke-width:0.54237288"
     d="M 232.6654,191.24526 C 231.88799,190.66652 232.4285,190.40543 236.35835,189.46137 239.93856,188.60131 240.96201,188.51265 240.96201,189.06256 240.96201,191.10882 234.69638,192.7572 232.6654,191.24526 Z"
     id="path3876"
     inkscape:connector-curvature="0" />
  <path
     style="fill:#000000;stroke-width:0.54237288"
     d="M 233.01089,190.97878 C 233.39475,190.35768 237.55166,189.21136 239.4201,189.21136 240.56901,189.21136 240.59125,189.2722 239.74983,190.11361 238.74419,191.11925 232.42247,191.93086 233.01089,190.97878 Z"
     id="path3878"
     inkscape:connector-curvature="0" />
  <path
     style="fill:#000000;stroke-width:3.87083364"
     d="M 238.11455,183.90686 C 238.48743,191.57048 239.0976,191.57048 239.47048,183.90686 239.84337,176.24324 239.53828,169.97318 238.79252,169.97318 238.04676,169.97318 237.74167,176.24324 238.11455,183.90686 Z"
     id="path3880"
     inkscape:connector-curvature="0" />
  <path
     style="fill:#000000;stroke-width:0.54237288"
     d="M 231.92614,189.18217 C 230.27419,182.62166 229.35038,166.63806 229.74934,151.51927 229.87654,146.69906 226.67104,146.21291 220.42812,150.10559 215.64795,153.08619 211.88907,154.63751 209.46419,154.63049 207.15858,154.62381 202.45704,151.89194 200.63101,149.49789 199.3098,147.76568 199.1849,147.18434 199.2202,142.93095 199.29365,134.07986 201.09175,132.76501 209.52619,135.39473 213.23207,136.55016 214.97426,136.80384 218.11462,136.64526 221.94757,136.4517 222.12128,136.38057 224.53693,134.01552 228.19144,130.43758 230.45727,125.50571 230.49745,121.04175 230.51507,119.08446 230.72269,117.07256 230.95883,116.57087 231.19498,116.06918 231.30745,112.52327 231.20876,108.69107 231.00778,100.88659 230.53594,99.7401 226.51359,97.28242 222.8347,95.034625 221.48034,95.460903 213.49901,101.3787 206.45038,106.60494 203.17232,107.82656 197.01431,107.52198 193.46281,107.34632 189.00646,100.58067 185.7981,90.4935 183.05425,81.866761 183.68814,79.370072 187.91249,82.165619 190.39569,83.808917 192.40873,83.938256 197.94459,82.810191 200.03272,82.384683 205.03845,81.784721 209.06844,81.476941 218.10019,80.787167 221.6752,80.050441 222.97549,78.611021 225.03005,76.336635 223.49192,68.649952 220.303,65.255512 219.653,64.563623 217.89543,63.294161 216.39729,62.434495 213.00511,60.487989 210.8232,58.211741 205.71474,51.290072 201.06139,44.985046 200.97116,44.78595 198.78353,35.995 196.91933,28.503714 196.84226,27.797091 197.84735,27.411403 198.74682,27.066243 223.72007,43.657429 226.78994,46.639647 231.87964,51.584039 234.98162,58.309997 235.49867,65.522565 235.72757,68.715699 235.54798,70.07955 234.5123,73.013245 232.85516,77.707276 233.238,78.375902 237.70713,78.593074 240.49309,78.728456 242.30883,78.323623 249.16168,76.03917 261.71412,71.85472 275.19927,69.610218 284.22521,70.203108 L 289.26621,70.534243 290.65625,68.882278 C 292.47862,66.716512 292.51617,63.606416 290.75648,60.581536 290.04709,59.362108 288.85245,56.655919 288.10172,54.567783 287.35099,52.479647 285.8666,48.673033 284.80309,46.108639 283.73957,43.544246 282.2419,39.273059 281.47492,36.617114 280.65972,33.794183 278.93079,29.791871 277.31305,26.982745 L 274.5457,22.177368 275.14813,19.389524 C 275.47947,17.856211 275.90003,14.466088 276.08271,11.855919 276.39591,7.3806738 276.48504,7.1101558 277.6464,7.1101558 281.67886,7.1101558 294.21007,19.969229 302.54603,32.661264 307.99043,40.950705 309.51557,44.975939 309.51052,51.042359 309.50841,53.577952 309.23912,56.339604 308.91208,57.179363 308.10821,59.243528 308.14734,65.841719 308.96831,66.662698 309.99877,67.693152 311.46749,67.456732 318.30425,65.159881 329.66584,61.342888 333.29174,61.277131 337.38316,64.813879 339.18891,66.374834 339.37008,66.781478 339.32222,69.166167 339.29318,70.612914 339.17962,71.886427 339.06985,71.996187 338.4116,72.654449 326.01371,73.360591 320.15298,73.073632 312.10614,72.679637 311.97625,72.74234 311.01858,77.483401 310.17892,81.640146 305.92975,94.252371 301.56643,105.53888 299.6177,110.57961 297.89734,115.45119 297.74341,116.36463 297.18642,119.66966 299.54161,121.00847 305.9127,121.00847 311.09597,121.00847 313.86179,122.09484 314.61149,124.42522 315.26955,126.47074 314.92632,130.80836 313.99378,132.2316 313.2385,133.38431 312.84066,133.53426 311.38791,133.21383 307.34164,132.32133 301.93566,132.30493 300.24344,133.18001 297.56085,134.56723 297.01398,136.26307 297.33128,142.21062 297.56991,146.68342 297.27937,149.33668 295.259,161.13497 293.78904,169.71911 292.59532,175.23194 292.07095,175.85808 291.52291,176.5125 290.15308,176.98114 288.11408,177.2118 L 284.99543,177.56458 285.00345,174.91364 C 285.01353,171.5822 286.10262,166.86195 288.60596,159.30003 290.49086,153.60623 290.54922,153.19621 290.18838,148.18139 289.41537,137.43836 288.47278,135.47986 283.94828,135.21591 282.37493,135.12412 279.13999,135.53209 276.68116,136.1324 266.97512,138.5021 260.45423,139.50007 251.10988,140.04591 245.73337,140.35997 240.72425,140.90773 239.97848,141.26316 238.66456,141.88936 238.62106,142.08551 238.57435,147.59451 238.54784,150.72133 238.33227,156.84609 238.09532,161.20508 237.62984,169.76792 238.38834,181.21309 239.77382,186.53231 240.19922,188.16553 240.48032,189.54997 240.39848,189.60883 240.08523,189.83412 233.64146,191.51693 233.09204,191.51693 232.77414,191.51693 232.24948,190.46629 231.92614,189.18217 Z M 252.2913,130.29635 C 255.84116,128.89235 260.86045,127.61999 273.85678,124.82961 279.51357,123.61507 284.31227,122.44151 284.52055,122.22169 285.55227,121.13284 289.40772,112.64434 290.12993,109.87163 292.11267,102.25937 292.63455,90.643889 291.20944,85.845022 290.74917,84.295148 289.62559,82.176271 288.71257,81.136412 287.20608,79.42061 286.78482,79.245749 284.15769,79.245749 282.56553,79.245749 281.12386,79.470617 280.954,79.745459 280.57219,80.363249 273.4689,82.719159 268.72425,83.801638 266.78526,84.244014 261.88822,85.715759 257.84191,87.072184 250.81487,89.427829 245.19781,90.716051 242.04701,90.694601 240.24302,90.682321 237.59645,93.527468 236.69214,96.45127 236.32785,97.62908 235.94428,103.80291 235.78983,110.97457 235.48543,125.10833 235.80155,127.24508 238.61282,130.05635 240.40022,131.84375 240.41431,131.84726 244.93711,131.62997 247.77648,131.49355 250.52407,130.9953 252.2913,130.29635 Z"
     id="path3882"
     inkscape:connector-curvature="0" />
  <path
     style="fill:#000000;stroke-width:0.54237288"
     d="M 8.9057693,487.1714 C 8.5250893,486.71271 8.1921693,485.58271 8.1659393,484.66029 8.0702293,481.29407 11.597169,479.1069 22.656919,475.67396 31.198399,473.0227 33.460159,471.82082 44.002596,464.33107 56.792536,455.24461 62.391147,450.62793 70.664297,442.34556 78.026439,434.97521 96.761702,413.30447 108.89421,398.12572 131.92889,369.30747 158.19043,324.98499 174.2239,287.86662 177.94122,279.26082 178.86635,275.53118 179.36421,267.14357 179.74483,260.73119 179.04737,258.37933 176.31587,256.86453 174.38667,255.79466 174.33553,255.81099 153.36879,264.19156 139.41343,269.76963 135.35919,271.17523 132.67667,271.36548 127.76882,271.71356 125.87088,270.87981 122.96016,267.09712 120.36767,263.72799 118.82612,262.65027 115.67387,262.00318 114.6298,261.78885 112.77888,261.04076 111.56071,260.34075 108.77412,258.73947 105.08465,254.73619 105.76679,254.05404 106.29657,253.52426 111.1665,252.94897 123.53828,251.95467 140.86707,250.56198 153.39509,248.46146 175.33489,243.27018 197.39552,238.0503 237.43199,230.64619 268.89421,225.96787 279.03658,224.45973 289.5315,222.7397 292.21624,222.14558 294.90099,221.55145 298.32465,221.06007 299.82437,221.05362 303.12158,221.03942 304.66271,220.06673 305.52431,217.45606 306.4732,214.5809 305.89072,212.35419 302.75744,206.87889 300.34383,202.66118 300.02921,201.78959 300.52641,200.69834 302.23166,196.95573 314.25319,193.61829 319.22294,195.50779 321.61838,196.41853 324.40412,199.55998 326.95604,204.22832 330.06454,209.91482 331.44093,211.40922 334.99187,212.95317 338.21171,214.35315 344.64082,214.64546 347.87729,213.53904 351.07093,212.44725 354.99549,209.33613 357.04224,206.27369 359.6084,202.43408 361.45937,202.19341 365.66593,205.15239 370.03331,208.2245 371.52269,210.41887 373.35967,216.48789 375.66141,224.09237 375.8511,226.30513 374.43857,229.0739 372.92914,232.03264 371.17211,233.15881 368.56243,232.84021 367.43983,232.70315 362.61624,231.56952 357.84336,230.32102 346.79316,227.43049 335.92036,226.49821 324.48743,227.46095 320.46031,227.80006 313.87048,228.34198 309.84336,228.6652 297.03574,229.69317 281.50834,232.17137 253.97895,237.58125 245.77556,239.19332 232.5959,241.76217 224.69082,243.2898 216.78573,244.81744 208.24336,246.55131 205.70777,247.14286 203.17217,247.73441 198.36515,248.55833 195.02548,248.9738 191.68581,249.38927 188.22266,250.10705 187.32959,250.56888 185.38391,251.57503 184.01285,253.39827 184.01285,254.97949 184.01285,256.365 186.65212,260.12828 189.18099,262.34867 191.37375,264.27393 193.23319,268.87946 193.23319,272.38528 193.23319,274.27269 192.70872,275.82454 191.0637,278.80459 189.87048,280.96617 188.89421,283.23361 188.89421,283.84334 188.89421,284.45308 188.43904,286.00947 187.88272,287.30199 186.48016,290.56063 175.74519,310.00556 169.2185,321.10967 166.23781,326.18086 160.87331,335.69951 157.2974,342.26222 149.19966,357.12364 146.69761,361.33832 139.92375,371.52793 126.44389,391.80505 110.71736,411.74372 87.477867,438.02077 71.910523,455.62288 68.566881,458.40162 51.945056,467.55048 47.172175,470.17754 40.239809,474.25619 36.539789,476.61415 28.311469,481.85794 27.422799,482.31442 19.945059,485.13825 12.820249,487.82879 9.8980193,488.36699 8.9057693,487.1714 Z"
     id="path3884"
     inkscape:connector-curvature="0" />
  <path
     style="fill:#000000;stroke-width:0.54237288"
     d="M 209.50438,489.10149 C 206.16118,486.93881 202.63704,482.96663 201.06402,479.58809 199.48202,476.19025 199.34352,471.74007 200.52838,462.37719 203.5467,438.52617 207.49655,408.77008 208.15713,404.90628 210.09821,393.55262 210.73611,364.77294 209.26313,355.00798 208.10024,347.29873 204.95744,336.35703 201.671,328.57589 198.05984,320.02592 196.91619,316.136 197.13316,313.14124 197.27144,311.23255 197.53982,310.74126 198.65757,310.35063 200.75231,309.61857 203.84726,310.7215 209.23998,314.12181 211.921,315.81228 216.03041,317.89938 218.37202,318.75979 224.02296,320.83621 225.69829,321.71704 227.85699,323.74666 231.47873,327.15184 233.01125,332.304 231.74627,336.82206 231.15401,338.93739 231.18207,339.44328 231.9573,340.62642 233.61537,343.15697 237.03677,342.46605 254.73817,336.02602 270.29907,330.36474 273.44653,329.4629 284.00282,327.64084 293.84635,325.94181 303.67876,323.36387 305.504,322.00348 306.24956,321.4478 307.20315,320.0904 307.6231,318.98702 308.29593,317.21924 308.26966,316.34336 307.40205,311.6147 L 306.41745,306.24851 307.9239,300.11977 C 309.09371,295.36054 309.49107,292.21795 309.70211,286.05629 309.96073,278.50543 309.91824,278.06592 308.82387,276.97155 308.19137,276.33904 307.06459,275.82154 306.31992,275.82154 302.98612,275.82154 291.50126,278.79774 280.15861,282.60103 273.36657,284.87845 265.21231,287.33287 262.03802,288.05528 252.91071,290.13251 249.07402,292.28597 246.09622,297.00311 244.63851,299.31228 242.02495,300.69591 238.28392,301.13898 235.99403,301.41018 235.23012,301.23555 233.00676,299.93257 229.7673,298.03412 217.83397,286.21092 218.82716,285.88382 221.24666,285.08699 242.48882,278.95784 245.90788,278.07004 250.90106,276.77349 257.6758,275.68665 270.06929,274.19395 279.71949,273.03165 300.7668,268.2698 302.12679,266.9411 302.50641,266.57021 303.37853,264.16397 304.06484,261.5939 305.45114,256.40243 307.34079,253.44179 310.11121,252.12068 313.20782,250.64401 314.37077,251.37423 323.15937,260.31366 327.64928,264.88062 331.79843,268.86749 332.37971,269.17335 332.96098,269.47921 334.45981,269.89892 335.71043,270.10603 339.2555,270.69312 339.46277,271.37997 337.2957,275.35918 336.2637,277.25415 333.04714,283.93001 330.1478,290.19442 327.24846,296.45882 323.4135,303.85393 321.62567,306.62799 319.83784,309.40205 318.05259,312.57493 317.65844,313.67884 315.40578,319.98798 318.44445,323.10859 327.54718,323.83421 329.89143,324.02108 333.68701,324.81773 335.9818,325.60454 340.03567,326.99448 340.20903,327.00893 342.08721,326.11329 344.44614,324.98839 345.95206,322.63749 346.45284,319.29805 346.92019,316.18153 347.49409,315.08143 351.27943,310.04592 355.00269,305.09302 355.2739,304.30843 353.90347,302.45482 351.05265,298.59889 349.62816,293.79349 351.0715,292.90146 352.63202,291.937 362.86671,295.29775 367.60606,298.33088 371.43439,300.78097 377.90874,306.93636 378.72162,308.89883 379.61409,311.05343 379.13971,315.13954 377.7848,316.96824 376.1587,319.16298 372.97703,321.29869 365.07783,325.49786 349.58556,333.73347 336.01609,341.15609 333.16539,342.95427 328.16379,346.10918 324.41233,349.6161 323.2654,352.20893 321.69105,355.76802 322.10204,360.63288 324.23828,363.72468 326.89951,367.57631 332.36134,371.60874 340.48742,375.72132 344.66369,377.83492 353.00801,382.69969 359.03036,386.53194 376.56948,397.69274 392.98778,406.36179 422.11454,419.84107 446.17313,430.9749 485.39562,450.65973 491.53827,454.68316 497.19676,458.38948 501.27703,462.18857 502.51331,464.90191 503.1002,466.19 503.00209,466.45959 501.43773,467.85735 497.59207,471.29345 493.3823,471.2287 480.5164,467.53556 475.89457,466.20888 470.32104,464.86511 468.13076,464.5494 465.94048,464.23369 460.59822,463.37636 456.25907,462.64422 444.82389,460.71479 441.2777,460.94716 437.82533,463.85213 436.18773,465.23008 436.15536,465.34743 436.50695,468.6305 436.85137,471.84672 436.80149,472.04806 435.38392,473.16312 432.47023,475.45503 431.04021,474.88288 425.63996,469.26461 420.26041,463.66787 414.81066,459.07255 394.9959,443.42502 365.39609,420.05034 338.91863,397.78256 332.92591,391.2236 330.31659,388.36773 328.41448,385.50058 326.03361,380.83448 322.44262,373.79671 319.74481,370.60365 315.75966,368.67447 311.93232,366.82169 310.39224,367.07263 306.69207,370.15194 304.9279,371.6201 301.70391,374.76787 299.52768,377.14698 294.96411,382.13594 284.67781,391.64181 275.67386,399.19097 267.24391,406.25887 262.67561,408.46532 249.91116,411.6341 233.4587,415.71843 229.33238,416.42892 224.51817,416.00643 220.54765,415.65797 220.19041,415.71576 218.90607,416.91435 215.85856,419.75836 215.22868,421.98242 214.39614,432.83849 213.8169,440.39149 213.11095,443.18051 209.52257,452.09272 207.64996,456.74356 207.27918,458.23187 207.5001,460.21072 207.82877,463.15472 210.23501,465.65204 212.74296,465.65204 216.11295,465.65204 238.77302,458.50016 246.12456,455.11627 248.2182,454.15257 254.44193,450.32085 259.95507,446.60132 265.4682,442.8818 272.17556,438.53312 274.8603,436.9376 281.47448,433.00686 285.41532,429.73748 291.74651,422.92858 297.62987,416.60129 307.29149,408.55142 308.68566,408.81522 310.69949,409.19627 310.03241,412.20522 306.31204,419.52171 296.89634,438.03864 287.0436,447.33447 255.72846,467.24617 249.97882,470.90206 242.15268,476.12729 238.33703,478.85778 234.52138,481.58826 228.55703,485.27437 225.08292,487.04913 219.74955,489.77368 218.23548,490.30742 215.35571,490.47814 212.32453,490.65784 211.6735,490.50467 209.50438,489.10149 Z M 234.57262,405.95957 C 245.66769,400.61736 252.69483,396.79137 265.63996,389.04469 279.34443,380.84361 298.93418,367.70705 302.9281,364.03988 305.10496,362.04111 304.93794,359.90501 302.42679,357.62831 301.33073,356.63459 298.58497,354.1323 296.32509,352.06769 294.06522,350.00307 291.98437,348.11154 291.70098,347.8643 291.37678,347.58144 291.38671,347.21377 291.72778,346.8727 292.53005,346.07044 304.65557,350.34197 307.98474,352.59964 312.60827,355.73508 315.0006,354.89702 316.98828,349.44563 317.7691,347.30416 319.15836,345.03914 320.80896,343.2165 322.93727,340.86634 323.40267,339.98676 323.40267,338.31458 323.40267,334.24435 318.88131,330.05882 314.48448,330.05882 313.43367,330.05882 306.89514,331.98444 299.9544,334.33796 273.65377,343.2562 262.454,348.16579 258.17987,352.65042 255.56588,355.39314 254.2035,355.59853 250.99591,353.73343 249.80268,353.03961 246.44887,351.09001 243.54299,349.40098 237.15939,345.69054 234.81343,345.37232 232.66515,347.92541 231.92681,348.80288 231.02112,350.81644 230.6525,352.39999 230.28389,353.98353 229.12758,357.35374 228.08292,359.88933 224.91986,367.56673 223.14209,373.21308 220.35961,384.41926 215.80289,402.77104 215.64812,406.92373 219.43223,409.3014 222.32104,411.11652 225.16687,410.48838 234.57262,405.95957 Z"
     id="path3886"
     inkscape:connector-curvature="0" />
</svg>
