<?xml version="1.0" encoding="UTF-8" standalone="no"?>
<!-- Created with Inkscape (http://www.inkscape.org/) -->

<svg
   xmlns:dc="http://purl.org/dc/elements/1.1/"
   xmlns:cc="http://creativecommons.org/ns#"
   xmlns:rdf="http://www.w3.org/1999/02/22-rdf-syntax-ns#"
   xmlns:svg="http://www.w3.org/2000/svg"
   xmlns="http://www.w3.org/2000/svg"
   xmlns:sodipodi="http://sodipodi.sourceforge.net/DTD/sodipodi-0.dtd"
   xmlns:inkscape="http://www.inkscape.org/namespaces/inkscape"
   version="1.1"
   id="svg3871"
   width="512"
   height="513"
   viewBox="0 0 512 513"
   sodipodi:docname="U+9ECD.svg"
   inkscape:version="0.92.4 (5da689c313, 2019-01-14)">
  <metadata
     id="metadata3877">
    <rdf:RDF>
      <cc:Work
         rdf:about="">
        <dc:format>image/svg+xml</dc:format>
        <dc:type
           rdf:resource="http://purl.org/dc/dcmitype/StillImage" />
        <dc:title></dc:title>
      </cc:Work>
    </rdf:RDF>
  </metadata>
  <defs
     id="defs3875" />
  <sodipodi:namedview
     pagecolor="#ffffff"
     bordercolor="#666666"
     borderopacity="1"
     objecttolerance="10"
     gridtolerance="10"
     guidetolerance="10"
     inkscape:pageopacity="0"
     inkscape:pageshadow="2"
     inkscape:window-width="1920"
     inkscape:window-height="1017"
     id="namedview3873"
     showgrid="false"
     inkscape:zoom="1.8401559"
     inkscape:cx="232.37918"
     inkscape:cy="283.45394"
     inkscape:window-x="-8"
     inkscape:window-y="-8"
     inkscape:window-maximized="1"
     inkscape:current-layer="svg3871" />
  <path
     style="fill:#000000;stroke:#000000;stroke-width:1px;stroke-linecap:butt;stroke-linejoin:miter;stroke-opacity:1"
     d="M 211.93856,4.3474571 C 207.55273,8.6714056 217.64095,15.26741 220.63347,20.650423 222.5658,24.126346 225.16669,27.270333 226.61123,30.975635 227.82447,34.087634 229.14825,37.437098 228.78496,40.757415 228.45884,43.738095 226.92432,46.62547 224.98093,48.908898 221.43151,53.079368 216.23476,55.584197 211.39513,58.147245 203.13118,62.5238 193.90879,64.796253 185.31038,68.472457 176.14355,72.391685 167.61126,77.862857 158.13877,80.971398 152.16418,82.932049 145.67517,82.936246 139.66208,84.775423 136.47742,85.749489 131.59152,85.460613 130.42373,88.579449 129.8556,90.096775 131.19481,92.115967 132.59746,92.926906 137.9386,96.01487 144.92072,92.285607 151.07415,91.840042 167.93861,90.6189 184.84523,89.66776 201.61335,87.492584 210.00078,86.40456 218.26106,84.489542 226.61123,83.145127 231.49264,82.359198 236.34911,80.665374 241.2839,80.971398 244.66146,81.180853 247.68333,83.581217 251.06568,83.688559 254.58109,83.800124 258.48994,83.503562 261.39089,81.51483 264.95479,79.071615 267.62217,74.886025 268.45551,70.646186 269.20235,66.846468 267.0905,63.02114 266.28178,59.23411 264.80446,52.31619 265.26712,44.501028 261.39089,38.583686 258.41309,34.037859 252.6823,32.08066 248.34852,28.801906 241.44313,23.577573 234.95041,17.773338 227.69809,13.042372 222.67308,9.764365 216.211,0.13529688 211.93856,4.3474571 Z"
     id="path3881"
     inkscape:connector-curvature="0"
     sodipodi:nodetypes="sssssssssssssssssssssss" />
  <path
     style="fill:#000000;stroke:#000000;stroke-width:1px;stroke-linecap:butt;stroke-linejoin:miter;stroke-opacity:1"
     d="M 179.87606,98.361228 C 180.40202,102.54158 187.57541,101.80367 191.28814,103.79555 195.01115,105.79294 201.22987,106.1947 202.15678,110.31674 202.58664,112.22838 200.53947,114.1405 198.89619,115.20763 192.57729,119.31107 184.02543,117.64808 176.61547,119.01165 162.81466,121.55125 148.95627,123.87418 135.31462,127.16314 123.77649,129.94495 112.64011,134.26282 101.07839,136.94491 94.086544,138.56688 87.054641,140.42298 79.884534,140.74894 75.706813,140.93886 71.563696,139.84339 67.385593,139.66208 64.670987,139.54428 60.377349,137.19713 59.23411,139.66208 57.9362,142.46051 62.6205,145.05318 65.211864,146.72669 68.535312,148.87298 75.582624,149.88674 80.623941,151.98729 87.145127,154.70445 90.753178,157.05191 94.013771,157.59534 97.274365,158.13877 103.77494,161.84548 108.68644,160.85593 113.9091,159.80369 116.98839,154.04901 121.72881,151.61758 132.12704,146.28418 143.8698,144.12775 154.87818,140.20551 165.24357,136.51237 175.37828,132.1615 185.85381,128.79343 191.04166,127.12545 196.164,124.46931 201.61335,124.44597 204.42544,124.43393 207.77076,124.63686 209.76483,126.6197 211.22938,128.076 211.53819,130.53706 211.39513,132.59746 211.10847,136.72617 207.25678,139.93987 206.50424,144.00953 204.82313,153.10086 207.40992,162.4809 207.5911,171.72458 207.82539,183.67779 206.6655,195.67148 207.5911,207.5911 208.04532,213.44043 209.76483,222.8072 210.30826,224.98093 210.8517,227.15466 218.45153,226.69961 222.26377,225.52436 223.99482,224.99071 225.52436,220.09004 226.61123,222.26377 227.69809,224.4375 236.49471,228.63734 241.2839,232.04555 252.0284,239.69183 263.37818,246.73251 272.80297,255.95657 277.59472,260.64626 280.8409,266.71076 285.30191,271.7161 294.16513,281.6608 304.40888,290.29452 313.56038,299.97458 321.4043,308.27154 328.47702,317.27951 336.38453,325.51589 342.15127,331.52247 347.31731,338.39713 354.3178,342.90572 358.89925,345.85636 364.10328,349.33548 369.5339,348.88347 372.69171,348.62063 374.79947,345.30116 377.68538,343.99258 382.53748,341.79246 387.59706,339.59815 392.90148,339.10169 398.71778,338.55732 408.11759,340.73199 410.29131,341.27542 412.46504,341.81886 438.94179,342.19716 453.22246,341.27542 463.0656,340.6401 473.10384,340.25071 482.5678,337.4714 489.87585,335.32522 497.34491,332.53915 503.21822,327.68962 505.81646,325.54428 510.0836,322.7886 509.19598,319.53814 508.46914,316.87649 503.76165,316.82097 501.58792,316.27754 499.4142,315.73411 486.37829,317.18321 478.76377,317.36441 473.51208,317.48938 468.24356,317.74574 463.00424,317.36441 455.51803,316.81954 448.12389,315.35871 440.72352,314.10381 430.3558,312.34573 420.14044,309.73076 409.74788,308.12606 401.99805,306.92942 394.13828,306.55154 386.3803,305.4089 381.28302,304.65815 376.21742,303.69714 371.1642,302.69174 363.70663,301.20797 356.01976,300.42578 348.88347,297.80085 339.83304,294.47184 331.42592,289.47292 323.34216,284.21504 311.76867,276.68735 301.25648,267.61443 290.73623,258.67373 283.60524,252.61342 277.24036,245.68608 270.08581,239.6536 261.69279,232.57688 253.18536,225.56088 244.00106,219.54661 240.54203,217.28149 237.13711,214.59749 233.13242,213.56886 230.85158,212.98301 228.37137,214.05771 226.0678,213.56886 224.3226,213.1985 223.13945,208.80052 222.80721,207.04767 220.73758,196.12856 220.96129,191.82919 221.17691,182.04979 221.44869,169.72301 221.54652,157.36156 222.8072,145.0964 223.50145,138.3421 223.52942,131.28696 226.0678,124.98941 227.13855,122.33295 228.62447,119.58452 230.95869,117.92479 236.47457,114.00276 243.85994,113.68247 250.52225,112.49047 259.11092,110.95381 267.88353,110.15006 276.60699,110.31674 284.08755,110.45968 291.46047,112.13088 298.88771,113.0339 310.84269,114.48741 322.81809,115.78056 334.75424,117.38136 340.92414,118.20883 347.00746,119.95429 353.23093,120.09852 355.05092,120.1407 357.4437,120.90488 358.66525,119.55508 359.63764,118.4806 359.27079,116.5242 358.66525,115.20763 357.26955,112.17308 353.62351,110.82432 351.0572,108.68644 347.29682,105.55384 344.13609,101.39357 339.64513,99.448093 334.77917,97.340169 329.18609,97.114427 323.88559,97.274364 319.26941,97.413652 314.87535,99.364788 310.29979,99.991525 303.1009,100.97759 295.80216,101.00234 288.5625,101.62182 279.13402,102.42859 269.70966,103.29915 260.30403,104.33898 253.0461,105.14137 245.78877,105.97739 238.56674,107.05614 234.38429,107.68087 230.22988,109.97839 226.0678,109.22987 223.591,108.78443 221.76005,106.62319 219.54661,105.42585 215.62768,103.30595 211.90614,100.55824 207.5911,99.448093 203.20181,98.318843 198.47543,97.652297 194.0053,96.904661 190.27472,96.280715 186.84242,94.886538 183.13665,95.644067 181.75053,95.927415 179.69945,96.957515 179.87606,98.361228 Z"
     id="path3883"
     inkscape:connector-curvature="0"
     sodipodi:nodetypes="sssssssssssssssssssssssssssssssssssssssssssssssssssssssssssssssssssssssssssssss" />
  <path
     style="fill:#000000;stroke:#000000;stroke-width:1px;stroke-linecap:butt;stroke-linejoin:miter;stroke-opacity:1"
     d="M 259.21716,147.81356 C 255.58888,153.85358 268.67258,158.29399 273.88983,163.02966 278.85441,167.53598 284.07365,171.80495 289.64936,175.5286 295.85309,179.67166 302.30052,183.59192 309.21292,186.39725 315.64612,189.0081 322.5284,190.39011 329.31992,191.83157 337.38967,193.54433 345.65671,197.10467 353.77436,195.63559 357.04657,195.04341 361.06333,193.75823 362.46928,190.7447 363.71603,188.07242 362.38085,184.56338 360.83898,182.04979 359.28552,179.5173 356.41145,177.98387 353.77436,176.61547 346.19692,172.68349 331.49364,169.00741 329.31992,169.00741 327.14619,169.00741 305.12541,164.19816 293.45339,160.3125 286.90876,158.13377 280.93248,154.47171 274.43326,152.16102 269.46305,150.39394 261.93347,143.2917 259.21716,147.81356 Z"
     id="path3885"
     inkscape:connector-curvature="0"
     sodipodi:nodetypes="sssssssssssss" />
  <path
     style="fill:#000000;stroke:#000000;stroke-width:1px;stroke-linecap:butt;stroke-linejoin:miter;stroke-opacity:1"
     d="M 179.87606,143.4661 C 175.6514,143.65433 173.73284,149.33221 171.18114,152.70445 168.63178,156.07359 165.64746,158.58559 162.65996,161.57309 158.92558,165.30747 155.53683,168.90045 151.07415,171.72458 143.34759,176.61419 136.12893,182.3006 128.25,186.94068 122.80481,190.14748 118.812,194.36713 113.4036,197.63559 109.61877,199.92288 105.95419,202.43909 102.53496,205.24364 98.077262,208.89996 92.776917,211.91835 88.036017,215.19915 83.905359,218.05765 79.074779,219.75904 74.450212,221.72034 69.648622,223.75672 60.205885,221.95671 59.777542,227.15466 59.537658,230.06565 64.634036,230.52214 67.385593,231.50212 72.575536,233.35054 79.884534,234.21928 83.688559,234.21928 87.492585,234.21928 94.557208,232.04555 108.14301,224.4375 111.02714,222.82239 123.35911,213.02542 129.8803,208.13453 136.21029,203.38703 149.98729,191.11441 154.87818,188.39725 159.1799,186.00741 174.56078,177.42973 181.50636,169.55085 185.73978,164.74858 190.94793,158.43153 189.65784,152.16102 188.77871,147.88799 184.23426,143.27192 179.87606,143.4661 Z"
     id="path3887"
     inkscape:connector-curvature="0"
     sodipodi:nodetypes="ssssssssssssssssss" />
  <path
     style="fill:#000000;stroke:#000000;stroke-width:1px;stroke-linecap:butt;stroke-linejoin:miter;stroke-opacity:1"
     d="M 186.39725,213.56886 C 181.99636,215.99073 182.06028,222.63111 179.87606,227.15466 176.81131,233.50182 173.97958,239.96906 170.63771,246.17479 167.44138,252.11025 164.10539,257.99145 160.3125,263.56462 155.15487,271.14311 148.77636,277.82958 143.4661,285.30191 138.46003,292.3462 135.95542,297.08898 129.88029,303.23516 125.74807,307.41571 121.51551,315.43486 116.83793,318.9947 109.78648,324.36117 105.147,327.92151 98.904661,334.2108 94.378642,338.77086 86.939208,344.70551 82.058263,348.88347 72.853522,356.76249 61.967754,362.58193 51.082627,367.9036 42.74009,371.98221 33.537403,374.03715 24.997881,377.68538 20.006059,379.81797 9.1911038,379.44151 10.325212,384.75 11.688182,391.12973 23.366165,387.41299 29.888771,387.29343 35.514967,387.1903 46.73517,384.20657 46.73517,384.20657 51.049055,383.66733 72.276482,373.88136 74.450212,373.33792 76.62394,372.79449 107.05615,351.0572 110.86017,346.16631 114.34342,341.68784 132.92501,323.57977 142.92267,311.38665 152.29585,299.95515 160.71705,287.75964 169.00742,275.52013 175.48989,265.94972 181.32892,255.9589 187.48411,246.17479 191.47168,239.83626 193.09552,231.13337 199.43962,227.15466 200.82927,226.28314 203.23654,227.83349 204.33051,226.61123 205.5386,225.26148 205.14061,222.79711 204.33051,221.17691 202.71031,217.9365 198.99962,216.00055 195.63559,214.65572 192.75644,213.50474 189.11376,212.07393 186.39725,213.56886 Z"
     id="path3889"
     inkscape:connector-curvature="0"
     sodipodi:nodetypes="ssssssssssssssssssssssss" />
  <path
     style="fill:#000000;stroke:#000000;stroke-width:1px;stroke-linecap:butt;stroke-linejoin:miter;stroke-opacity:1"
     d="M 196.17903,263.56462 C 194.10647,268.98107 203.84841,272.31325 207.04767,277.15042 209.99851,281.61199 213.42674,286.07363 214.65572,291.27966 216.02976,297.10017 216.09688,303.23244 216.11229,309.21292 216.17813,334.7702 215.92803,343.9772 215.74259,369.53389 215.71627,373.1612 217.10389,393.17151 216.28602,396.70551 215.97497,398.04954 215.98148,400.12805 214.65572,400.50953 211.90327,401.30154 210.17532,396.85359 207.5911,395.61864 204.69493,394.23461 200.58161,390.5916 198.35275,392.90148 196.76172,394.55034 199.63142,397.31341 200.52648,399.42267 202.36217,403.74858 204.49366,407.97696 207.04767,411.92161 209.43089,415.60248 214.65572,420.07309 215.19915,422.24682 215.74258,424.42055 214.65572,432.0286 215.74258,434.74576 216.82945,437.46292 216.85462,446.4483 220.09004,451.04873 221.73768,453.3915 223.35064,457.02648 227.15466,455.93962 230.95869,454.85275 233.45755,446.6194 234.76271,441.26695 236.90838,432.46757 235.12413,423.14533 234.76271,414.09534 234.21885,400.47698 230.57325,386.92498 229.50212,373.33792 228.03137,354.68177 226.22688,336.05543 227.15466,317.36441 227.41009,312.21848 229.09916,307.24231 229.87182,302.1483 230.74787,296.37264 230.91188,290.48913 232.04555,284.75847 232.44636,282.73238 234.40008,280.71494 233.67585,278.78072 232.53074,275.72245 228.30226,275.06324 225.52436,273.3464 220.55509,270.27523 215.69174,266.91948 210.30826,264.65148 207.87765,263.62749 205.33349,262.62689 202.70021,262.47775 200.50002,262.35314 196.96658,261.50644 196.17903,263.56462 Z"
     id="path3891"
     inkscape:connector-curvature="0"
     sodipodi:nodetypes="ssssssssssssssssssssssssss" />
  <path
     style="fill:#000000;stroke:#000000;stroke-width:1px;stroke-linecap:butt;stroke-linejoin:miter;stroke-opacity:1"
     d="M 244.54449,313.56038 C 246.46616,317.34477 249.78369,320.2546 252.69597,323.34216 255.42193,326.23219 258.31856,328.97493 261.39089,331.49364 265.0061,334.4574 268.38822,338.10775 272.80297,339.64513 276.22861,340.83807 280.20277,341.24934 283.67161,340.18856 288.00225,338.86424 290.49204,334.0669 294.54025,332.03708 297.40963,330.59834 300.64192,330.00152 303.7786,329.31992 307.53361,328.50395 311.80008,329.49786 315.19068,327.68962 317.34103,326.54281 319.84749,324.68108 320.08157,322.2553 320.38593,319.10122 317.44874,316.32687 315.19068,314.10381 312.35669,311.31375 308.68652,309.22857 304.86547,308.12606 300.16306,306.76924 295.04217,306.92141 290.1928,307.58263 286.04911,308.14763 282.33273,310.53999 278.23729,311.38665 274.67173,312.12377 271.00507,312.29215 267.36864,312.47352 264.11209,312.63594 260.81013,312.96543 257.58686,312.47352 254.58509,312.01542 251.92834,309.72772 248.89195,309.75636 247.17354,309.77257 244.82801,309.88022 244.00106,311.38665 243.64166,312.04137 244.20633,312.89444 244.54449,313.56038 Z"
     id="path3893"
     inkscape:connector-curvature="0"
     sodipodi:nodetypes="ssssssssssssssssss" />
  <path
     style="fill:#000000;stroke:#000000;stroke-width:1px;stroke-linecap:butt;stroke-linejoin:miter;stroke-opacity:1"
     d="M 263.02119,363.55614 C 260.80689,366.01045 262.9895,370.48054 264.65148,373.33792 266.52906,376.56597 270.75754,377.71119 273.3464,380.40254 276.48586,383.66629 279.23124,387.35066 281.49788,391.27119 283.56935,394.85413 283.0819,400.19468 286.38877,402.68326 289.88952,405.31774 295.08912,404.89886 299.43114,404.31356 305.06534,403.55407 309.66785,399.1412 315.19068,397.79237 319.25331,396.80016 323.60495,395.80836 327.68962,396.70551 330.54248,397.3321 333.12394,399.9661 335.29767,401.05297 337.4714,402.13983 341.13961,401.01828 342.36229,398.87924 344.30282,395.48435 341.74911,390.76325 339.64513,387.46716 337.28575,383.77097 333.11572,381.51123 329.31992,379.31568 325.09787,376.87358 320.36052,375.42599 315.73411,373.88136 309.14865,371.68266 302.50954,369.3607 295.62712,368.44703 290.77877,367.80339 285.72754,369.51399 280.95445,368.44703 277.63303,367.70457 275.01273,364.94532 271.7161,364.09958 268.90323,363.37795 264.96647,361.40001 263.02119,363.55614 Z"
     id="path3895"
     inkscape:connector-curvature="0"
     sodipodi:nodetypes="sssssssssssssssss" />
  <path
     style="fill:#000000;stroke:#000000;stroke-width:1px;stroke-linecap:butt;stroke-linejoin:miter;stroke-opacity:1"
     d="M 193.46186,328.23305 C 191.05138,325.52845 186.15797,327.58664 182.59322,328.23305 176.50178,329.33764 171.09967,332.86754 165.20339,334.75424 159.84671,336.46828 154.51787,339.37764 148.90042,339.10169 147.35459,339.02575 145.92765,336.76035 144.55297,337.4714 141.39189,339.10647 142.29244,344.26711 141.83581,347.79661 141.5569,349.95237 140.81012,352.40128 141.83581,354.3178 143.6849,357.77285 147.77334,360.07849 151.61758,360.83898 156.14807,361.73522 161.001,360.03715 165.20339,358.12182 169.78618,356.03312 172.83417,351.46443 177.1589,348.88347 181.75486,346.14065 191.28814,344.53602 191.83157,342.36229 192.375,340.18856 196.61627,331.77236 193.46186,328.23305 Z"
     id="path3897"
     inkscape:connector-curvature="0"
     sodipodi:nodetypes="ssssssssssss" />
  <path
     style="fill:#000000;stroke:#000000;stroke-width:1px;stroke-linecap:butt;stroke-linejoin:miter;stroke-opacity:1"
     d="M 192.375,368.44703 C 189.07561,364.53984 183.07589,372.74492 178.24576,374.42479 173.09877,376.21486 167.73661,377.31301 162.48623,378.77225 157.9552,380.03156 153.50236,381.60765 148.90042,382.57627 147.647,382.84009 146.3721,383.23473 145.0964,383.1197 142.81435,382.91393 140.86076,380.78354 138.57521,380.94597 134.93893,381.20439 130.29079,382.51312 128.79343,385.83686 127.63836,388.4008 129.8803,391.81462 130.96716,393.98835 132.05403,396.16208 132.83078,404.55084 135.31462,409.20445 136.76715,411.92584 139.11864,416.26907 141.29237,416.26907 143.4661,416.26907 151.07415,418.4428 153.79131,417.35593 156.50847,416.26907 160.65279,406.39041 166.10182,403.44997 169.37712,396.7055 176.18511,392.60333 179.87606,388.01059 184.72365,381.9786 197.3677,374.35948 192.375,368.44703 Z"
     id="path3899"
     inkscape:connector-curvature="0"
     sodipodi:nodetypes="ssssssssssscss" />
</svg>
