<?xml version="1.0" encoding="UTF-8" standalone="no"?>
<!-- Created with Inkscape (http://www.inkscape.org/) -->

<svg
   xmlns:dc="http://purl.org/dc/elements/1.1/"
   xmlns:cc="http://creativecommons.org/ns#"
   xmlns:rdf="http://www.w3.org/1999/02/22-rdf-syntax-ns#"
   xmlns:svg="http://www.w3.org/2000/svg"
   xmlns="http://www.w3.org/2000/svg"
   xmlns:sodipodi="http://sodipodi.sourceforge.net/DTD/sodipodi-0.dtd"
   xmlns:inkscape="http://www.inkscape.org/namespaces/inkscape"
   version="1.1"
   id="svg3735"
   width="512"
   height="512"
   viewBox="0 0 512 512"
   sodipodi:docname="U+51A5.svg"
   inkscape:version="0.92.4 (5da689c313, 2019-01-14)">
  <metadata
     id="metadata3741">
    <rdf:RDF>
      <cc:Work
         rdf:about="">
        <dc:format>image/svg+xml</dc:format>
        <dc:type
           rdf:resource="http://purl.org/dc/dcmitype/StillImage" />
        <dc:title></dc:title>
      </cc:Work>
    </rdf:RDF>
  </metadata>
  <defs
     id="defs3739" />
  <sodipodi:namedview
     pagecolor="#ffffff"
     bordercolor="#666666"
     borderopacity="1"
     objecttolerance="10"
     gridtolerance="10"
     guidetolerance="10"
     inkscape:pageopacity="0"
     inkscape:pageshadow="2"
     inkscape:window-width="1920"
     inkscape:window-height="1017"
     id="namedview3737"
     showgrid="false"
     inkscape:zoom="1.84375"
     inkscape:cx="440.3259"
     inkscape:cy="290.3232"
     inkscape:window-x="-8"
     inkscape:window-y="-8"
     inkscape:window-maximized="1"
     inkscape:current-layer="svg3735" />
  <path
     style="fill:#000000;stroke:#000000;stroke-width:1px;stroke-linecap:butt;stroke-linejoin:miter;stroke-opacity:1"
     d="M 53.694915,63.457627 C 52.036258,66.421879 56.388769,69.706184 58.033898,72.677966 59.491209,75.310473 61.565822,77.581785 62.915254,80.271186 64.993485,84.413075 66.169491,88.949152 67.79661,93.288135 68.881356,96.18079 70.702157,98.896484 71.050848,101.9661 71.359641,104.68448 70.605582,107.44161 69.966102,110.10169 69.204285,113.27066 67.769611,116.23919 66.711864,119.32203 65.598617,122.56663 64.300343,125.75961 63.457627,129.08475 62.690906,132.11004 62.372881,135.59322 61.830509,138.30508 61.288136,141.01695 59.521274,145.9796 58.033898,149.69491 56.77146,152.84835 55.177721,155.85924 53.694915,158.91525 52.459593,161.46121 52.105687,164.73777 49.898305,166.50847 46.99101,168.84062 42.469581,167.73591 39.050847,169.22034 35.692986,170.67834 31.399417,171.87894 29.830509,175.18644 29.128871,176.6656 29.663693,178.59225 30.372881,180.0678 31.369688,182.14178 33.928696,183.0682 35.254237,184.94915 37.443748,188.05608 38.504963,191.82088 40.135593,195.25424 41.939619,199.0527 42.896083,203.38985 45.559322,206.64407 47.276845,208.74272 49.371862,211.23193 52.067797,211.52542 54.239471,211.76184 56.525248,210.39344 58.033898,208.81356 60.051021,206.70119 60.680774,203.53489 61.288136,200.67797 62.266323,196.07676 60.934154,191.19412 61.830509,186.57627 64.173343,174.50643 70.535029,163.56725 74.305085,151.86441 75.919406,146.85331 77.282275,141.76351 78.644068,136.67797 81.729086,125.15714 87.086,113.89049 87.322034,101.9661 87.409748,97.534824 86.272056,93.057928 84.61017,88.949152 83.086785,85.182799 80.44456,81.963268 78.101695,78.644067 76.245467,76.014299 74.549998,73.179676 72.135593,71.050847 68.182018,67.564902 63.725966,64.039178 58.576271,62.915254 56.97679,62.566166 54.494337,62.028948 53.694915,63.457627 Z"
     id="path3745"
     inkscape:connector-curvature="0"
     sodipodi:nodetypes="ssssssssssssssssssssssssssssss" />
  <path
     style="fill:#000000;stroke:#000000;stroke-width:1px;stroke-linecap:butt;stroke-linejoin:miter;stroke-opacity:1"
     d="M 79.728814,48.271186 C 75.053137,48.874591 84.422024,56.486402 87.322034,60.203389 90.232687,63.934017 93.196452,67.81206 97.084746,70.508474 101.27889,73.416983 106.08275,76.424215 111.18644,76.474576 113.13352,76.493789 116.21866,76.212497 116.61017,74.305084 117.12425,71.800528 110.65568,71.382428 111.18644,68.881355 111.70918,66.418083 115.52542,66.711864 118.23729,66.169491 120.94915,65.627118 136.13559,62.915254 140.47458,61.830508 144.81356,60.745762 159.45763,55.864406 164.88136,55.322033 170.30508,54.779661 194.43502,48.007294 209.35593,45.016949 219.96379,42.890997 230.64755,41.134976 241.35593,39.59322 262.61963,36.531744 283.97741,34.115762 305.35593,31.999999 316.72603,30.874737 328.12062,29.978062 339.52542,29.288135 352.52989,28.501437 365.55085,27.932261 378.57627,27.661016 382.55281,27.578207 386.74635,26.370205 390.50847,27.661016 392.45823,28.329994 394.23609,29.749412 395.38983,31.457627 396.1265,32.548335 396.55783,33.940694 396.47458,35.254237 396.3004,38.002449 394.37897,40.349339 393.22034,42.847457 391.68951,46.148085 391.24966,50.42716 388.33898,52.610169 386.72194,53.822951 384.00222,54.891129 382.37288,53.694915 381.19795,52.832312 382.30612,50.733736 381.83051,49.355932 381.14255,47.362964 380.67988,44.073695 378.57627,43.932203 376.26624,43.776827 374.80436,47.111197 374.23729,49.355932 372.75208,55.235149 376.66095,61.247475 377.49153,67.254237 378.01391,71.032082 376.34866,75.548464 378.57627,78.644067 379.6163,80.089345 381.81457,80.127379 383.45763,80.813559 387.57796,82.534304 391.47614,85.409316 395.9322,85.694915 399.65167,85.933304 403.56289,84.86552 406.77966,82.98305 414.50621,78.461432 419.14342,70.031484 425.22034,63.457627 428.69578,59.69798 433.1149,56.584772 435.52542,52.067796 436.57827,50.09489 437.93518,47.654158 437.15254,45.559322 436.3802,43.49205 433.28268,43.32975 431.72881,41.762711 429.25713,39.270085 427.97527,35.80999 425.76271,33.084745 418.99235,24.745584 411.49289,16.966793 403.52542,9.7627113 401.99643,8.3802194 400.38797,7.065146 398.64407,5.9661012 396.59202,4.6728569 394.54766,2.4563282 392.13559,2.7118639 389.83322,2.9557781 388.73924,5.9327514 386.71186,7.0508469 382.35613,9.4530223 377.35365,10.434818 372.61017,11.932203 367.58966,13.517037 362.59671,15.292677 357.42373,16.271186 331.3692,21.199601 304.61167,21.122184 278.23729,23.864406 257.2474,26.046787 236.26375,28.310916 215.32203,30.915254 190.15229,34.045394 165.09406,38.027501 139.9322,41.220338 119.88797,43.763789 99.250678,45.751852 79.728814,48.271186 Z"
     id="path3747"
     inkscape:connector-curvature="0"
     sodipodi:nodetypes="sssssssssssssssssssssssssssssssssssssssssss" />
  <path
     style="fill:#000000;stroke:#000000;stroke-width:1px;stroke-linecap:butt;stroke-linejoin:miter;stroke-opacity:1"
     d="M 153.49153,93.830508 C 147.1345,95.272451 146.84873,105.75406 146.98305,112.27119 147.08336,117.1381 150.36111,121.41326 152.40678,125.83051 155.32958,132.14174 159.5305,137.83612 162.16949,144.27119 164.31802,149.51029 166.15296,154.95147 167.05085,160.54237 168.11193,167.14942 167.3172,173.92416 167.59322,180.61017 167.99653,190.37961 168.66757,200.13617 169.22034,209.8983 169.7527,219.3 168.80102,228.90998 170.84746,238.10169 172.11694,243.80362 175.07209,248.9963 177.35593,254.37288 178.90613,258.02234 180.34646,261.73517 182.23729,265.22034 183.67219,267.86513 184.15721,272.28085 187.11864,272.81356 188.89799,273.13363 190.53651,271.11498 191.45763,269.55932 192.10896,268.4593 191.46212,266.92243 192,265.76271 192.91597,263.78778 194.261,261.53047 196.33898,260.88136 202.91015,258.82868 214.23729,266.30508 216.40678,265.76271 218.57627,265.22034 226.79463,266.62633 231.59322,268.47458 234.77642,269.70064 238.11176,271.25768 240.27119,273.8983 241.24905,275.09406 242.02204,276.69757 241.89831,278.23729 241.78155,279.69019 240.93004,281.2083 239.72881,282.0339 237.76911,283.38079 235.01745,282.69275 232.67797,283.11864 225.77084,284.37605 219.06185,286.84699 212.0678,287.45763 206.66162,287.92963 199.59322,286.91525 195.79661,286.91525 192,286.91525 71.40922,310.26266 17.355932,323.25424 12.246061,324.48239 26.714367,328.0422 31.457627,330.30508 37.372514,333.12691 49.355932,338.44068 49.355932,338.44068 L 69.966102,344.40678 77.559322,342.23729 80.271187,337.35593 C 80.271187,337.35593 115.18551,321.1371 133.42373,315.11864 155.7011,307.7673 178.80367,303.12236 201.76271,298.30508 237.86241,290.73061 274.1809,283.91464 310.77966,279.32203 338.6674,275.82252 366.74101,272.8205 394.84746,272.81356 399.56191,272.8124 404.29044,273.17546 408.94915,273.8983 415.18924,274.8665 421.23336,276.8323 427.38983,278.23729 446.16372,282.52174 464.61967,288.96239 483.79661,290.71186 488.84104,291.17205 494.83993,293.0837 498.98305,290.16949 500.5757,289.04924 500.97451,286.68478 501.15254,284.74576 501.32111,282.90977 500.89474,280.96989 500.0678,279.32203 497.88595,274.97419 494.45491,271.01292 490.30509,268.47458 475.3038,259.29865 456.66651,257.81446 439.32203,254.91525 436.81923,254.4969 434.26525,254.2988 431.72881,254.37288 427.53718,254.4953 423.41596,255.48539 419.25424,256 377.52503,261.15996 335.71526,265.64816 293.9661,270.64407 285.1044,271.70451 275.99236,276.27542 267.38983,273.8983 265.40296,273.34927 263.85231,271.66477 262.50847,270.10169 259.13135,266.17362 257.66958,260.92967 254.91525,256.54237 253.74187,254.67333 252.99265,252.28407 251.11864,251.11864 249.09934,249.86286 246.44215,250.1644 244.0678,250.0339 231.41991,249.33872 218.74959,252.35621 206.1017,251.66102 203.72735,251.53051 201.30559,251.33172 199.05085,250.57627 196.51979,249.72824 193.26355,249.13101 192,246.77966 191.05475,245.02065 192.61673,242.80908 192.54237,240.81356 192.41952,237.51672 189.18479,233.85972 190.91525,231.05085 198.26369,219.12289 217.21315,220.76571 231.05085,218.57627 245.33753,216.31579 262.26337,210.228 274.44068,218.0339 275.93972,218.99481 276.65061,221.13513 276.61017,222.91525 276.56427,224.93603 274.36271,226.37175 273.89831,228.33898 273.19218,231.33021 273.37685,234.53043 273.89831,237.55932 274.90729,243.42 275.72268,250.10537 279.86441,254.37288 282.29618,256.8785 286.13644,258.25212 289.62712,258.16949 293.18729,258.08522 297.4493,256.81652 299.38983,253.83051 301.95123,249.88912 299.48017,244.42851 299.38983,239.72881 299.29942,235.02564 300.29689,230.10229 298.84746,225.62712 298.44576,224.38685 297.26898,223.53493 296.67797,222.37288 295.01845,219.10991 293.76666,215.61987 292.88136,212.0678 291.91057,208.17274 291.63033,204.13215 291.25424,200.13559 289.30369,179.40793 288.54256,158.57488 288,137.76271 287.91519,134.50958 287.79779,131.24795 288,128 288.18114,125.09047 288.43989,122.16498 289.08475,119.32203 290.09649,114.86165 290.89106,110.11352 293.42373,106.30508 294.48794,104.7048 295.87863,102.88753 297.76271,102.50847 298.88367,102.28294 300.00701,104.12934 301.01695,103.59322 305.16264,101.3925 305.03446,94.722303 304.81356,90.033898 304.69504,87.518562 303.54337,85.047647 302.1017,82.98305 301.00142,81.407348 299.02992,80.631306 297.76271,79.18644 294.75402,75.755937 293.72656,70.654549 290.16949,67.79661 287.44756,65.609667 280.40678,64 280.40678,64 L 268.47458,64.542372 C 268.47458,64.542372 265.54429,65.962648 264.67797,67.254237 262.91918,69.876392 264.34724,73.907873 262.50847,76.474576 260.52191,79.247579 256.95949,80.539835 253.83051,81.898305 248.68158,84.133749 242.9957,84.839243 237.55932,86.237288 217.89729,91.293672 197.46039,92.486103 178.44068,100.88136 176.95212,101.5384 177.54497,104.40433 178.44068,105.76271 179.95658,108.06163 183.41293,108.17223 186.0339,109.01695 193.96616,111.57345 202.15639,113.5313 210.44068,114.44068 214.21462,114.85495 218.22367,115.626 221.83051,114.44068 225.88405,113.10856 228.31609,108.74935 232.13559,106.84746 238.38259,103.73681 245.38998,102.39086 252.20339,100.88136 257.0212,99.81398 262.409,96.555317 266.84746,98.711864 269.46951,99.985857 270.19871,103.56235 271.18644,106.30508 272.61649,110.27604 274.16631,114.63758 273.35593,118.77966 273.02845,120.4535 270.61557,121.4133 270.64407,123.11864 271.11991,151.59459 272.8793,175.20251 274.44068,201.22034 274.59269,203.7533 275.77804,206.40379 274.98305,208.81356 274.46085,210.39646 273.38978,212.4708 271.72881,212.61017 268.91466,212.84631 266.41817,209.74386 265.22034,207.18644 264.68356,206.04038 265.22034,204.65537 265.22034,203.38983 265.22034,201.22034 249.47942,197.71863 241.35593,195.79661 237.97178,194.99592 234.48753,193.6377 231.05085,194.16949 229.85233,194.35495 228.90377,195.30159 227.79661,195.79661 218.38759,200.00348 208.8844,204.09958 199.05085,207.18644 196.03841,208.13208 192.98645,209.45122 189.83051,209.35593 187.94386,209.29897 185.21463,209.43471 184.40678,207.72881 183.40087,205.60467 186.67467,203.52831 187.11864,201.22034 189.4412,189.14658 189.70175,176.2302 186.57627,164.33898 186.00042,162.14809 182.9247,160.60307 183.32203,158.37288 183.65912,156.48084 187.66102,154.57627 187.66102,154.57627 188.50505,151.16892 193.50272,158.47403 196.33898,160.54237 200.40028,163.50407 203.7718,167.52188 208.27119,169.76271 210.11635,170.68166 212.18826,171.1649 214.23729,171.38983 218.01551,171.80457 222.53129,173.05263 225.62712,170.84746 227.21309,169.71777 225.62712,166.50847 227.79661,165.42373 229.9661,164.33898 239.57483,161.1805 245.15254,158.37288 249.5007,156.18417 257.62712,152.94915 257.62712,150.77966 257.62712,148.61017 258.7319,146.01796 258.16949,143.72881 257.76256,142.07249 256.77339,140.47508 255.45763,139.38983 253.51503,137.78756 250.81765,137.40508 248.40678,136.67797 245.21516,135.71539 241.97723,134.56401 238.64407,134.50847 235.70141,134.45944 232.81507,135.39735 229.9661,136.13559 226.09207,137.13945 222.31701,138.50997 218.57627,139.9322 214.71532,141.40013 209.35593,144.81356 207.18644,144.81356 205.01695,144.81356 198.79461,147.11908 194.71186,148.61017 193.41855,149.08251 192.29211,150.23729 190.91525,150.23729 189.53839,150.23729 187.68268,149.8662 187.11864,148.61017 186.41602,147.04555 188.86734,145.43963 188.74576,143.72881 188.60247,141.71259 186.9927,140.08451 186.0339,138.30508 182.26837,131.31665 179.33582,123.66328 174.1017,117.69491 172.14661,115.46556 168.99963,114.50605 167.05085,112.27119 164.17699,108.97545 163.1966,104.35641 160.54237,100.88136 158.52484,98.239913 156.73299,93.095259 153.49153,93.830508 Z"
     id="path3749"
     inkscape:connector-curvature="0"
     sodipodi:nodetypes="ssssssssssssssssssssssssccccssssssssssssssssssssssssssssssssssssssssssssssssccsssssssssssssssssssssssssssssssssssssssssssssssssssss" />
  <path
     style="fill:#000000;stroke:#000000;stroke-width:1px;stroke-linecap:butt;stroke-linejoin:miter;stroke-opacity:1"
     d="M 180.0678,309.69492 C 178.26043,310.89497 180.26857,314.04321 180.0678,316.20339 179.79544,319.13383 179.01505,321.99489 178.44068,324.88136 177.7556,328.32418 177.72016,331.98912 176.27119,335.18644 174.77867,338.47985 172.16662,341.16341 169.76271,343.86441 166.44697,347.58992 162.55056,350.7551 158.91525,354.16949 153.87994,358.89879 148.98029,363.78314 143.72881,368.27119 138.8348,372.45374 133.68155,376.32603 128.54237,380.20339 123.3749,384.10209 118.25937,388.09382 112.81356,391.59322 107.569,394.96331 101.92746,397.67291 96.542373,400.81356 94.721114,401.87574 91.009277,401.96227 91.118644,404.0678 91.27388,407.05639 96.281593,407.51919 99.254237,407.86441 103.65679,408.37569 108.05155,406.50847 112.27119,405.15254 122.05799,402.00766 131.4535,397.60665 140.47458,392.67797 150.55141,387.17249 160.20059,380.80104 169.22034,373.69492 175.04805,369.10362 180.9224,364.35358 185.49153,358.50847 190.0769,352.64258 194.81551,346.27094 196.33898,338.98305 197.11935,335.24995 196.08747,331.31488 195.25424,327.59322 194.20473,322.90553 193.6785,317.51941 190.37288,314.0339 187.80813,311.32958 183.17279,307.63329 180.0678,309.69492 Z"
     id="path3751"
     inkscape:connector-curvature="0"
     sodipodi:nodetypes="ssssssssssssssssssss" />
  <path
     style="fill:#000000;stroke:#000000;stroke-width:1px;stroke-linecap:butt;stroke-linejoin:miter;stroke-opacity:1"
     d="M 284.74576,305.8983 C 280.62554,305.75622 302.19603,321.1487 305.35593,323.79661 314.87302,331.77169 313.51473,329.5372 322.16949,338.44068 326.63903,343.03866 330.4536,348.23107 334.64407,353.08475 342.17958,361.81287 349.99811,370.29683 357.42373,379.11864 360.56933,382.85569 363.24548,386.99992 366.64407,390.50847 370.30057,394.28327 375.32203,400.27119 378.57627,400.81356 381.83051,401.35593 386.35608,405.97061 390.50847,405.15254 393.14543,404.63302 397.01695,403.52542 396.47458,399.72881 395.9322,395.9322 396.08888,393.37188 394.84746,390.50847 393.40919,387.19101 390.39586,384.80429 388.33898,381.83051 382.97528,374.07584 379.36848,365.05598 373.15254,357.9661 368.33033,352.4659 362.30433,348.09768 356.33898,343.86441 349.99227,339.3605 342.82844,336.12368 336.27119,331.9322 329.8066,327.79995 323.44986,323.48685 317.28814,318.91525 300.47458,306.44068 311.95064,311.77838 300.47458,306.44068 292.70057,302.82486 300.47458,306.44068 284.74576,305.8983 Z"
     id="path3753"
     inkscape:connector-curvature="0"
     sodipodi:nodetypes="sssssssssssssssss" />
</svg>
