<?xml version="1.0" encoding="UTF-8" standalone="no"?>
<!-- Created with Inkscape (http://www.inkscape.org/) -->

<svg
   xmlns:dc="http://purl.org/dc/elements/1.1/"
   xmlns:cc="http://creativecommons.org/ns#"
   xmlns:rdf="http://www.w3.org/1999/02/22-rdf-syntax-ns#"
   xmlns:svg="http://www.w3.org/2000/svg"
   xmlns="http://www.w3.org/2000/svg"
   xmlns:sodipodi="http://sodipodi.sourceforge.net/DTD/sodipodi-0.dtd"
   xmlns:inkscape="http://www.inkscape.org/namespaces/inkscape"
   version="1.1"
   id="svg3888"
   width="512"
   height="512"
   viewBox="0 0 512 512"
   sodipodi:docname="U+52D9.svg"
   inkscape:version="0.92.4 (5da689c313, 2019-01-14)">
  <metadata
     id="metadata3894">
    <rdf:RDF>
      <cc:Work
         rdf:about="">
        <dc:format>image/svg+xml</dc:format>
        <dc:type
           rdf:resource="http://purl.org/dc/dcmitype/StillImage" />
        <dc:title></dc:title>
      </cc:Work>
    </rdf:RDF>
  </metadata>
  <defs
     id="defs3892" />
  <sodipodi:namedview
     pagecolor="#ffffff"
     bordercolor="#666666"
     borderopacity="1"
     objecttolerance="10"
     gridtolerance="10"
     guidetolerance="10"
     inkscape:pageopacity="0"
     inkscape:pageshadow="2"
     inkscape:window-width="1920"
     inkscape:window-height="1017"
     id="namedview3890"
     showgrid="false"
     inkscape:zoom="1.84375"
     inkscape:cx="279.80674"
     inkscape:cy="245.86749"
     inkscape:window-x="-8"
     inkscape:window-y="-8"
     inkscape:window-maximized="1"
     inkscape:current-layer="svg3888" />
  <path
     style="fill:#000000;stroke:#000000;stroke-width:1px;stroke-linecap:butt;stroke-linejoin:miter;stroke-opacity:1"
     d="M 84.61017,125.28814 C 82.327746,125.14604 83.353386,129.6998 82.440678,131.79661 81.536567,133.87367 80.729569,136.10429 79.186441,137.76271 77.136731,139.96556 74.428931,141.63779 71.59322,142.64407 70.050352,143.19157 69.612125,144.3267 68.338983,145.35593 66.560582,146.79362 65.384403,147.56873 64.542373,149.69491 63.589258,152.10158 61.737886,154.1966 61.288136,156.74576 60.909887,158.88966 60.48529,161.54258 61.830509,163.25424 63.243594,165.05225 66.206885,164.5968 68.338983,165.42373 69.999079,166.0676 71.795744,166.52504 73.220339,167.59322 75.683567,169.44018 76.922019,172.55813 79.186441,174.64407 81.474168,176.75148 83.84866,179.0266 86.779661,180.0678 89.510755,181.03799 92.840424,181.85532 95.457627,180.61017 98.266401,179.27388 99.337902,175.71743 100.88136,173.01695 101.76492,171.47105 102.01203,169.58174 103.05085,168.13559 108.35095,160.75728 116.91834,156.3347 123.11864,149.69491 127.06907,145.46447 130.33723,140.64489 133.9661,136.13559 137.02856,132.33011 139.99786,128.4462 143.18644,124.74576 147.02872,120.28668 151.57144,116.42603 155.11864,111.72881 156.78171,109.52656 157.56474,106.68611 159.45763,104.67797 160.97134,103.0721 162.87977,99.951966 164.88136,100.88136 166.69254,101.72234 165.65395,104.86387 165.42373,106.84746 165.02826,110.25485 163.31428,113.37657 162.16949,116.61017 160.10745,122.43464 157.93435,128.2208 155.66102,133.9661 153.06681,140.52236 150.68638,147.18893 147.52542,153.49153 144.98168,158.56346 141.56427,163.15423 138.84746,168.13559 136.52468,172.39448 135.54947,177.51575 132.33898,181.15254 131.47619,182.1299 130.37913,183.16646 129.08475,183.32203 126.98376,183.57455 125.21977,181.40388 123.11864,181.15254 119.86755,180.76364 116.61995,181.9785 113.35593,182.23729 109.56691,182.53771 102.75112,179.0607 101.9661,182.77966 101.04767,187.13065 110.06821,186.48634 113.89831,188.74576 116.92176,190.52933 119.96569,192.36511 122.57627,194.71186 125.05544,196.94048 126.27859,200.50549 129.08475,202.30508 132.40852,204.43662 136.58091,204.90337 140.47458,205.55932 143.68855,206.10076 147.19268,207.26493 150.23729,206.10169 152.148,205.37168 154.37472,203.79817 154.57627,201.76271 154.8332,199.168 152.06779,197.11107 150.23729,195.25424 147.77291,192.7544 142.64406,192 141.55932,189.28814 140.47457,186.57627 137.22034,186.57627 137.76271,184.40678 138.30508,182.23729 139.80847,178.35627 141.55932,175.72881 144.75016,170.9404 149.69541,167.57856 153.49153,163.25424 159.76886,156.10347 165.39405,148.40539 171.38983,141.01695 174.62809,137.02653 177.70422,132.89511 181.15254,129.08475 183.03971,126.99945 185.33558,125.29363 187.11864,123.11864 188.77171,121.10222 191.09385,119.19207 191.45763,116.61017 192.03996,112.47711 189.31548,108.50995 187.66102,104.67797 186.18539,101.2602 184.52998,97.848203 182.23729,94.915254 179.95273,91.992701 177.48762,88.837319 174.1017,87.322033 172.279,86.506326 170.01322,86.099864 168.13559,86.779661 167.17397,87.127817 166.68926,88.225988 165.9661,88.949152 163.07345,91.841807 160.1963,94.750056 157.28814,97.627118 148.8358,105.98907 140.42484,114.39593 131.79661,122.57627 123.06822,130.85157 116.51285,142.84245 105.22034,146.98305 100.97344,148.54025 95.551936,148.74758 91.661017,146.44068 89.847446,145.36543 89.087516,143.0124 88.40678,141.01695 87.407602,138.08805 88.290003,134.73597 87.322034,131.79661 86.866119,130.41216 85.663652,129.36503 85.152542,128 84.829288,127.13668 85.530244,125.34542 84.61017,125.28814 Z"
     id="path3898"
     inkscape:connector-curvature="0"
     sodipodi:nodetypes="sssssssssssssssssssssssssssssssssssssssssssssssssssssssssss" />
  <path
     style="fill:#000000;stroke:#000000;stroke-width:1px;stroke-linecap:butt;stroke-linejoin:miter;stroke-opacity:1"
     d="M 43.389831,240.81356 C 41.761803,244.04719 43.012675,248.15941 43.932203,251.66102 44.65095,254.39805 46.408591,256.75126 47.728814,259.25424 49.465603,262.54698 50.595209,266.31165 53.152542,269.01695 55.94348,271.96937 59.452231,274.84505 63.457627,275.52542 65.835616,275.92936 68.885133,275.68233 70.508475,273.8983 72.349745,271.87477 70.558073,268.29518 71.59322,265.76271 72.277265,264.08921 73.472012,262.59705 74.847458,261.42373 83.399596,254.12835 94.575818,250.62525 104.67797,245.69491 118.93127,238.73861 133.64969,232.77741 148.0678,226.16949 156.22935,222.429 164.03676,217.84647 172.47458,214.77966 175.11238,213.82093 177.82483,212.26513 180.61017,212.61017 182.45741,212.839 184.54758,213.71778 185.49153,215.32203 186.31669,216.7244 185.84059,218.61415 185.49153,220.20339 184.93623,222.73166 183.71785,225.13093 182.23729,227.25424 180.62866,229.56122 178.31745,231.29091 176.27119,233.22034 173.10332,236.20734 169.82601,239.07847 166.50847,241.8983 163.66861,244.31211 161.34281,247.70214 157.83051,248.94915 156.12679,249.55404 154.10438,249.57099 152.40678,248.94915 149.51587,247.89019 148.18386,244.20026 145.35593,242.98305 143.85218,242.3358 142.11123,242.48016 140.47458,242.44068 137.57712,242.37078 134.68228,242.71278 131.79661,242.98305 130.34538,243.11897 128.46684,242.47374 127.45763,243.52542 125.95029,245.09619 125.80585,248.16077 126.91525,250.0339 127.82263,251.56594 130.32885,251.19534 131.79661,252.20339 133.48267,253.36137 135.0983,254.77949 136.13559,256.54237 138.80547,261.07987 139.64428,266.52998 140.47458,271.72881 141.21645,276.37398 138.84746,286.37288 141.01695,285.83051 143.18644,285.28814 141.35851,305.00044 141.01695,314.57627 140.83604,319.64809 140.2896,324.70027 139.9322,329.76271 139.3834,337.53627 139.00671,345.32349 138.30508,353.08475 137.71549,359.60668 136.93963,366.11119 136.13559,372.61017 135.64272,376.59401 135.74352,380.72288 134.50847,384.54237 133.56287,387.46674 132.13297,390.31348 130.16949,392.67797 129.42994,393.56857 128.61175,394.75749 127.45763,394.84746 126.00446,394.96074 124.92656,393.40113 123.66102,392.67797 122.39548,391.9548 121.2325,391.01135 119.86441,390.50847 114.33969,388.47771 108.24518,388.57206 102.50847,387.25424 100.49946,386.79274 98.387584,384.70827 96.542373,385.62712 94.799347,386.49509 94.171226,389.11414 94.372881,391.05085 94.507896,392.34754 95.593313,393.41126 96.542373,394.30508 98.370775,396.02706 101.41061,396.19961 103.05085,398.10169 106.2299,401.78823 107.69482,406.85593 108.47458,411.66102 108.96774,414.70003 106.39123,418.216 107.9322,420.88136 108.9439,422.63126 111.58404,422.62055 113.35593,423.59322 116.12824,425.11507 118.44373,427.63039 121.49153,428.47458 124.27922,429.24673 129.08475,430.64407 130.16949,428.47458 131.25424,426.30508 138.58303,415.34832 142.1017,408.40678 145.65439,401.39814 149.22422,394.2843 151.32203,386.71186 153.41762,379.14744 154.03259,371.2203 154.57627,363.38983 155.4904,350.22379 152.94915,325.9661 154.57627,323.79661 156.20339,321.62712 151.43412,308.65167 151.86441,301.01695 152.04208,297.86457 151.59179,293.7979 154.0339,291.79661 158.23127,288.3569 164.87859,291.20198 170.30508,291.25424 173.7447,291.28737 177.35593,292.88136 180.61017,291.79661 183.86441,290.71186 187.83153,288.51933 191.45763,286.91525 199.75084,283.24659 212.61017,277.15254 216.40678,276.0678 220.20339,274.98305 236.58534,265.91506 245.15254,258.71186 253.58798,251.61945 259.93688,242.34774 266.84746,233.76271 272.92384,226.21402 277.86785,217.77321 284.20339,210.44068 285.37351,209.08643 286.22923,206.90396 288,206.64407 290.64105,206.25645 292.86701,208.90566 295.05085,210.44068 302.80157,215.88865 308.54678,223.84428 316.20339,229.42373 326.35267,236.81961 337.97366,241.95165 348.74576,248.40678 360.58162,255.49937 371.90557,263.45962 384,270.10169 390.52028,273.68252 396.71256,278.75229 404.0678,279.86441 406.41901,280.21991 408.77033,279.15383 411.11864,278.77966 427.58491,276.15598 444.08173,273.69306 460.47458,270.64407 475.3594,267.87557 493.78788,271.65352 504.94915,261.42373 506.34062,260.14838 507.12017,257.80745 506.57627,256 505.76251,253.29574 502.53489,251.95058 500.0678,250.57627 498.56946,249.74161 496.85475,249.34719 495.18644,248.94915 479.54325,245.21689 463.28955,244.72487 447.45763,241.8983 436.18312,239.88539 423.54135,238.6347 412.20339,237.01695 402.86903,235.68509 394.89179,234.43016 385.62712,232.67797 376.52395,230.95632 367.8181,227.53689 359.05085,224.54237 350.82089,221.73136 342.48231,219.08978 334.64407,215.32203 329.53014,212.86382 324.98137,209.36088 320,206.64407 315.03129,203.93416 309.70865,201.89158 304.81356,199.05085 302.55839,197.74212 299.53541,197.01074 298.30509,194.71186 297.53732,193.27727 292.88136,192.54238 298.30509,189.83051 303.72881,187.11865 314.17956,164.90794 321.08475,151.86441 327.32937,140.06865 331.65369,127.32119 337.89831,115.52542 338.88476,113.66206 339.31784,111.14048 341.15254,110.10169 341.93916,109.65631 343.09546,110.57693 343.86441,110.10169 345.58383,109.03903 346.3217,106.68318 346.57627,104.67797 346.90227,102.11005 346.4677,99.181058 344.94915,97.084745 343.47572,95.050715 340.6158,94.543974 338.44068,93.288135 337.17838,92.559329 336.01353,91.617761 334.64407,91.118644 332.74497,90.426493 330.69889,89.994672 328.67797,90.033898 327.01147,90.066245 324.90305,89.872029 323.79661,91.118644 322.59052,92.47753 323.18141,94.726906 323.25424,96.542372 323.33526,98.562051 324.0152,100.51327 324.33898,102.50847 324.74853,105.03223 325.75897,107.56699 325.42373,110.10169 324.7016,115.5616 321.2325,120.2919 318.91525,125.28814 310.75084,142.89148 302.37322,160.43139 292.88136,177.35593 291.21277,180.33113 290.21678,184.02813 287.45763,186.0339 286.25175,186.91052 284.53588,187.58129 283.11864,187.11864 281.77633,186.68045 281.44767,184.81853 280.40678,183.86441 276.67276,180.44168 272.28791,177.77214 267.9322,175.18644 263.4131,172.50375 258.70167,170.10815 253.83051,168.13559 250.49164,166.78353 247.00064,165.82947 243.52542,164.88136 238.87141,163.61165 234.20322,162.28171 229.42373,161.62712 225.47905,161.08686 221.47201,161.17517 217.49153,161.08475 212.97292,160.98211 207.12816,157.88879 203.9322,161.08475 202.2703,162.74665 203.29212,165.87415 203.9322,168.13559 204.68377,170.79093 206.23587,173.3228 208.27119,175.18644 210.06011,176.82446 212.42314,179.0153 214.77966,178.44068 217.16868,177.85813 216.94915,172.47458 219.11864,172.47458 221.28814,172.47458 228.10665,170.07186 232.67797,170.30508 238.28394,170.59108 243.96419,172.06359 248.94915,174.64407 252.71107,176.59144 255.55085,179.95968 258.71186,182.77966 262.81494,186.44008 266.71107,190.3269 270.64407,194.16949 273.02152,196.49229 277.08814,197.95239 277.69492,201.22034 278.01998,202.971 276.43624,204.57169 275.52542,206.10169 274.00865,208.64958 271.99435,210.86995 270.1017,213.15254 265.77008,218.3766 261.39909,223.59915 256.54237,228.33898 253.14614,231.65347 249.15513,234.31169 245.69492,237.55932 240.38093,242.54684 236.23295,248.7777 230.50847,253.28814 224.90685,257.70178 218.25432,260.58801 212.0678,264.13559 205.95929,267.63843 199.9552,271.35214 193.62712,274.44068 186.92822,277.71021 180.01742,280.55768 173.01695,283.11864 170.17081,284.15983 167.3349,285.3733 164.33898,285.83051 161.83688,286.21236 159.04527,286.88814 156.74576,285.83051 155.23144,285.13402 152.40678,284.20339 153.49153,282.0339 154.57627,279.86441 155.75595,272.29132 156.74576,267.38983 157.54597,263.42721 157.26518,259.14815 158.91525,255.45763 159.75662,253.57582 160.89359,251.54735 162.71186,250.57627 164.95017,249.38086 167.88024,250.78167 170.30508,250.0339 181.29828,246.64384 190.26433,238.5857 200.13559,232.67797 202.50356,231.26079 204.57672,229.23625 207.18644,228.33898 210.2828,227.2744 213.6761,227.16504 216.94915,227.25424 219.14775,227.31416 221.60558,229.5253 223.45763,228.33898 225.1934,227.22714 225.52301,224.38709 225.08475,222.37288 224.48434,219.6134 221.70842,217.8095 219.66102,215.86441 217.03959,213.37397 213.94688,211.42713 210.98305,209.35593 207.44813,206.88564 203.87807,204.44794 200.13559,202.30508 198.03065,201.09984 195.9878,199.60813 193.62712,199.05085 191.51566,198.5524 189.21732,198.5011 187.11864,199.05085 183.90809,199.89186 181.42395,202.47788 178.44068,203.9322 169.99019,208.05173 161.10578,211.21473 152.40678,214.77966 140.32258,219.73188 128.25976,224.74309 116.0678,229.42373 104.7482,233.76946 93.14822,237.37522 81.898305,241.8983 77.316791,243.74032 73.056487,246.40549 68.338983,247.86441 65.527304,248.73394 62.597239,249.6921 59.661017,249.49153 57.379488,249.33568 54.936376,248.75297 53.152542,247.32203 51.507928,246.00277 51.195821,243.56013 49.898305,241.8983 48.954225,240.68915 48.170663,238.79523 46.644068,238.64407 45.346711,238.51561 43.976092,239.64911 43.389831,240.81356 Z"
     id="path3900"
     inkscape:connector-curvature="0"
     sodipodi:nodetypes="sssssssssssssssssssssssssssssssssssssssssssssssssssssssssssssssssssssssssssssssssssssssssssssssssssssssssssssssssssssssssssssssssssssssssssssssssssss" />
  <path
     style="fill:#000000;stroke:#000000;stroke-width:1px;stroke-linecap:butt;stroke-linejoin:miter;stroke-opacity:1"
     d="M 118.77966,266.84746 C 113.83487,269.71703 115.43177,277.79171 113.35593,283.11864 111.26973,288.47215 109.20904,293.88971 106.30508,298.84746 102.77794,304.86913 98.013117,310.0747 93.830509,315.66102 87.719177,323.82336 82.153994,332.43771 75.389831,340.0678 70.724832,345.33 65.220957,349.78469 60.20339,354.71186 55.095438,359.72778 50.77554,365.64515 45.016949,369.8983 39.422283,374.03038 32.711668,376.38516 26.576271,379.66102 21.866824,382.17553 16.422905,383.66087 12.474576,387.25424 11.028312,388.57049 9.4228608,390.19055 9.220339,392.13559 8.9178568,395.04065 10.326355,398.29229 12.474576,400.27119 14.283183,401.93724 15.186442,403.52542 19.525424,402.44068 23.864408,401.35593 30.372883,395.9322 32.542373,394.84746 34.711866,393.76271 55.322034,380.20339 56.40678,376.94915 57.491525,373.69492 73.22034,355.79661 75.389831,355.25424 77.559323,354.71186 88.000721,341.78519 93.830509,334.64407 99.387068,327.83764 104.67156,320.79308 109.55932,313.49153 113.66427,307.35938 117.86567,301.21265 120.94915,294.50847 122.6214,290.87262 123.41017,286.89118 124.74576,283.11864 125.77678,280.2064 128.26121,277.51897 128,274.44068 127.78764,271.93804 126.24747,269.39166 124.20339,267.9322 122.70289,266.86085 120.37431,265.92205 118.77966,266.84746 Z"
     id="path3902"
     inkscape:connector-curvature="0"
     sodipodi:nodetypes="ssssssssssssssssssssss" />
  <path
     style="fill:#000000;stroke:#000000;stroke-width:1px;stroke-linecap:butt;stroke-linejoin:miter;stroke-opacity:1"
     d="M 252.20339,101.42373 C 248.39847,103.42119 249.74937,109.67611 248.94915,113.8983 248.10147,118.37088 247.88761,122.9407 247.32203,127.45763 246.80103,131.61855 245.38364,135.75036 245.69492,139.9322 245.98802,143.86984 247.17652,147.79376 248.94915,151.32203 250.68612,154.77932 252.53133,158.82825 256,160.54237 257.45872,161.26323 259.41483,161.24722 260.88136,160.54237 265.05485,158.53649 266.63066,153.28163 269.55932,149.69491 272.23851,146.41372 274.6861,142.91403 277.69492,139.9322 279.52001,138.12348 282.22296,137.18027 283.66102,135.05085 285.35713,132.53932 287.75372,129.07063 286.37288,126.37288 285.59141,124.84612 283.19642,124.55861 281.49153,124.74576 279.39575,124.97582 277.8976,126.95261 276.0678,128 274.10179,129.12536 272.21193,130.4305 270.1017,131.25424 268.01853,132.06741 265.66695,133.71833 263.59322,132.88136 262.0116,132.24301 261.65311,130.06336 260.88136,128.54237 259.55975,125.93772 258.17946,123.27485 257.62712,120.40678 257.01172,117.21126 257.50223,113.89591 257.62712,110.64407 257.71758,108.28858 259.44673,105.57442 258.16949,103.59322 257.0229,101.81468 254.07701,100.44014 252.20339,101.42373 Z"
     id="path3904"
     inkscape:connector-curvature="0"
     sodipodi:nodetypes="ssssssssssssssssssss" />
  <path
     style="fill:#000000;stroke:#000000;stroke-width:1px;stroke-linecap:butt;stroke-linejoin:miter;stroke-opacity:1"
     d="M 276.0678,245.69491 C 275.09758,247.63536 280.40678,251.48022 282.57627,254.37288 284.20339,256.54237 286.7846,258.25434 287.45763,260.88136 288.09217,263.35814 287.96612,266.47492 286.37288,268.47458 284.80372,270.44402 281.73692,270.47281 279.32203,271.18644 275.95562,272.18126 272.45776,272.66081 269.01695,273.35593 263.42146,274.48635 257.84703,275.7519 252.20339,276.61017 248.96635,277.10245 245.70345,277.96905 242.44068,277.69492 241.12912,277.58473 239.89404,277.02237 238.64407,276.61017 237.17709,276.12641 235.50913,274.01542 234.30508,274.98305 232.31213,276.58468 235.05046,280.04212 235.38983,282.57627 235.5833,284.02096 234.30508,284.74576 235.9322,286.91525 237.55932,289.08475 238.99615,291.41096 240.81356,293.42373 242.95711,295.79769 244.7655,299.14019 247.86441,299.9322 250.75323,300.67052 253.82627,298.99283 256.54237,297.76271 259.14632,296.58339 261.2054,294.45287 263.59322,292.88136 265.01793,291.94371 266.26875,289.79273 267.9322,290.16949 270.2312,290.69019 269.55932,296.13559 271.72881,296.13559 273.89831,296.13559 276.16309,300.36306 276.61017,303.18644 276.90538,305.05073 275.75538,306.8879 274.98305,308.61017 273.85385,311.12823 272.21672,313.39332 270.64407,315.66102 267.11999,320.74262 263.5527,325.85928 259.25424,330.30508 256.30977,333.35047 252.65784,335.62666 249.49153,338.44068 245.95471,341.58399 243.02602,345.43805 239.18644,348.20339 236.69249,349.99958 233.88854,351.36187 231.05085,352.54237 226.51005,354.43137 221.79162,356.02247 216.94915,356.88136 213.56223,357.48209 209.99974,356.66771 206.64407,357.42373 203.40154,358.15425 200.33958,359.62488 197.42373,361.22034 195.48776,362.27964 192.69244,362.92156 192,365.01695 191.46185,366.64547 192.4568,368.64449 193.62712,369.8983 195.89511,372.32809 199.59985,372.98734 202.84746,373.69492 207.44367,374.69633 212.27616,374.77688 216.94915,374.23729 224.39975,373.37696 231.73395,371.18697 238.64407,368.27119 244.24338,365.90852 249.59069,362.8012 254.37288,359.05085 261.3146,353.60692 267.05659,346.7522 272.81356,340.0678 275.92836,336.45121 278.69983,332.54942 281.49153,328.67797 284.30716,324.77334 287.18923,320.89674 289.62712,316.74576 291.6744,313.25988 293.2143,309.49966 295.05085,305.8983 297.36519,301.36002 299.95989,296.96119 302.1017,292.33898 303.90843,288.43989 304.86305,284.1448 306.98305,280.40678 307.87494,278.83418 308.89474,277.27863 310.23729,276.0678 311.80296,274.65574 313.01773,275.34831 315.11865,275.52542 318.44049,275.80546 320.23414,278.46288 321.62712,281.49152 322.83584,284.11954 325.43274,287.32643 325.9661,290.16949 326.60991,293.60128 325.88817,294.47032 327.05085,297.76271 328.44071,301.69839 330.47256,306.60915 330.30509,310.77967 330.13267,315.07356 327.77723,319.69083 326.50848,323.79662 324.98001,328.74291 323.95277,331.78741 322.71186,336.81356 321.58683,341.37034 320.33363,345.89872 318.91525,350.37288 317.11813,356.04174 315.48593,361.80775 312.94915,367.18644 311.15041,371.00028 308.34839,374.27338 306.44068,378.0339 304.75449,381.35776 303.1289,384.75623 302.1017,388.33898 300.53711,393.79607 300.1555,399.52746 299.38983,405.15254 298.72741,410.01906 296.6343,415.0166 297.76271,419.79661 298.60377,423.35942 300.46011,427.36873 303.72881,429.01695 306.31672,430.32189 310.23729,429.01695 312.40678,428.47458 314.57627,427.9322 317.42216,424.64641 318.91525,421.9661 320.45177,419.20781 320.72074,415.88209 321.08475,412.74576 321.8351,406.28069 320.24967,399.67502 321.08475,393.22034 321.99624,386.1751 324.6098,379.4557 326.50847,372.61017 328.92447,363.89946 331.81892,355.32283 334.1017,346.57627 336.53819,337.24077 337.53756,327.51875 340.61017,318.37288 342.43995,312.9264 345.14038,307.80726 347.66102,302.64407 349.18666,299.51901 350.64358,296.33717 352.54237,293.42373 354.93198,289.7572 359.24265,287.25307 360.67797,283.11864 361.68594,280.21518 361.76495,276.77311 360.67797,273.8983 359.22835,270.06439 355.71318,267.27532 352.54237,264.67797 349.47185,262.16277 346.19808,258.96968 342.23729,258.71186 339.89197,258.55919 337.89831,260.88136 335.72881,261.42373 333.55932,261.9661 327.08528,263.12102 322.71186,263.59322 319.11245,263.98185 315.14196,265.67327 311.86441,264.13559 310.22768,263.36771 309.39207,261.42669 308.61017,259.79661 305.4621,253.23363 304.2884,248.09813 300.47458,241.89831 299.46763,240.26139 297.93463,238.23528 296.1356,237.55932 292.92006,236.35113 291.89467,234.0981 288.54237,234.84746 285.22743,235.58847 281.75231,236.81333 279.32203,239.18644 277.58661,240.88104 276.0678,245.69491 276.0678,245.69491 Z"
     id="path3906"
     inkscape:connector-curvature="0"
     sodipodi:nodetypes="sssssssssssssssssssssssssssssssssssssssssssssssssssssssssssssssssssssssssssss" />
</svg>
