<?xml version="1.0" encoding="UTF-8" standalone="no"?>
<!-- Created with Inkscape (http://www.inkscape.org/) -->

<svg
   xmlns:dc="http://purl.org/dc/elements/1.1/"
   xmlns:cc="http://creativecommons.org/ns#"
   xmlns:rdf="http://www.w3.org/1999/02/22-rdf-syntax-ns#"
   xmlns:svg="http://www.w3.org/2000/svg"
   xmlns="http://www.w3.org/2000/svg"
   xmlns:sodipodi="http://sodipodi.sourceforge.net/DTD/sodipodi-0.dtd"
   xmlns:inkscape="http://www.inkscape.org/namespaces/inkscape"
   version="1.1"
   id="svg3908"
   width="512"
   height="512"
   viewBox="0 0 512 512"
   sodipodi:docname="U+8332.svg"
   inkscape:version="0.92.4 (5da689c313, 2019-01-14)">
  <metadata
     id="metadata3914">
    <rdf:RDF>
      <cc:Work
         rdf:about="">
        <dc:format>image/svg+xml</dc:format>
        <dc:type
           rdf:resource="http://purl.org/dc/dcmitype/StillImage" />
        <dc:title></dc:title>
      </cc:Work>
    </rdf:RDF>
  </metadata>
  <defs
     id="defs3912" />
  <sodipodi:namedview
     pagecolor="#ffffff"
     bordercolor="#666666"
     borderopacity="1"
     objecttolerance="10"
     gridtolerance="10"
     guidetolerance="10"
     inkscape:pageopacity="0"
     inkscape:pageshadow="2"
     inkscape:window-width="1920"
     inkscape:window-height="1017"
     id="namedview3910"
     showgrid="false"
     inkscape:zoom="1.84375"
     inkscape:cx="334.74537"
     inkscape:cy="274.47714"
     inkscape:window-x="-8"
     inkscape:window-y="-8"
     inkscape:window-maximized="1"
     inkscape:current-layer="svg3908" />
  <path
     style="fill:#000000;stroke:#000000;stroke-width:1px;stroke-linecap:butt;stroke-linejoin:miter;stroke-opacity:1"
     d="M 163.25424,63.457627 C 161.11265,64.818735 162.66927,68.513682 162.71186,71.050847 162.76983,74.504367 162.55141,78.134187 163.79661,81.355932 165.00897,84.492702 167.8475,86.727272 169.76271,89.491525 172.96118,94.107925 175.64305,99.078158 178.98305,103.59322 182.34203,108.13394 185.80842,112.64486 189.83051,116.61017 193.30898,120.03954 196.79873,123.75453 201.22034,125.83051 204.55818,127.39765 208.39365,128.31265 212.0678,128 214.57686,127.7865 217.1098,126.80652 219.11864,125.28814 222.00318,123.10786 224.58495,120.07255 225.62712,116.61017 226.5145,113.66207 225.96813,110.33914 225.08475,107.38983 223.52767,102.19127 220.12415,97.689149 216.94915,93.288135 214.40176,89.757083 211.82145,86.045972 208.27119,83.525423 202.85075,79.677116 195.9358,78.562052 189.83051,75.932203 186.18893,74.363593 182.52243,72.838153 178.98305,71.050847 176.02047,69.554813 173.30815,67.582478 170.30508,66.169491 168.02657,65.09742 165.37946,62.106924 163.25424,63.457627 Z"
     id="path3918"
     inkscape:connector-curvature="0"
     sodipodi:nodetypes="sssssssssssssssss" />
  <path
     style="fill:#000000;stroke:#000000;stroke-width:1px;stroke-linecap:butt;stroke-linejoin:miter;stroke-opacity:1"
     d="M 296.13559,49.898305 C 297.20252,52.641167 300.68014,53.829802 302.1017,56.406779 303.09736,58.211703 303.26731,60.363874 303.72881,62.372881 304.38772,65.241236 305.512,68.111924 305.35593,71.050847 305.15574,74.820561 303.60565,78.435797 302.1017,81.898305 301.10108,84.202006 299.61232,86.262151 298.30509,88.406779 295.85136,92.432353 293.5735,96.592373 290.71186,100.33898 289.08047,102.47487 286.83636,104.10815 285.28814,106.30508 283.51768,108.81737 283.12835,112.27339 280.94915,114.44068 278.19683,117.17796 274.25133,118.43068 270.64407,119.86441 263.14372,122.84547 255.14323,124.3802 247.32203,126.37288 237.9725,128.75495 228.53058,130.75925 219.11864,132.88136 199.43453,137.31954 179.65128,141.31697 160,145.8983 148.21386,148.64602 136.52671,151.80635 124.74576,154.57627 114.28497,157.0358 103.65548,158.79948 93.288136,161.62712 81.925384,164.72625 70.929462,169.04838 59.661017,172.47458 52.105478,174.77186 40.135593,178.98305 36.881356,178.98305 33.627119,178.98305 27.48353,179.56554 22.779661,179.52542 19.520524,179.49763 16.208571,178.32252 13.016949,178.98305 11.829333,179.22883 10.086444,179.44139 9.7627119,180.61017 9.1334899,182.88186 12.084341,184.73754 13.559322,186.57627 15.959084,189.56785 18.493171,192.60064 21.694915,194.71186 24.946084,196.85567 29.113897,197.20381 32.542373,199.05085 37.001776,201.45329 40.579368,205.2863 45.016949,207.72881 48.282122,209.52601 51.596908,212.18914 55.322034,212.0678 59.3625,211.93619 62.589796,208.52249 66.169492,206.64407 69.823588,204.72661 73.48906,202.81878 77.016949,200.67797 84.818767,195.94363 91.772373,189.83825 99.79661,185.49153 110.69245,179.58927 122.28661,174.98816 133.9661,170.84746 147.07355,166.2005 160.78894,163.47881 174.1017,159.45763 188.27745,155.17577 202.19741,150.06724 216.40678,145.8983 227.17922,142.73773 237.94382,139.43788 248.94915,137.22034 254.13745,136.17492 259.45401,135.90036 264.67797,135.05085 270.48778,134.10607 276.70853,134.30397 282.0339,131.79661 285.86641,129.99214 289.21166,127.01696 291.79661,123.66102 293.62278,121.29017 296.36436,119.43057 298.30508,117.15254 302.27233,112.49575 306.06461,109.11817 310.77966,105.22034 314.72086,101.96223 318.0113,97.988701 321.62712,94.372881 323.79661,92.20339 325.53994,89.500244 328.13559,87.864406 330.89294,86.126662 334.15997,85.249362 337.35593,84.610169 340.55189,83.970977 344.23571,85.588151 347.11864,84.067796 349.74146,82.684613 351.799,79.887448 352.54237,77.016949 353.459,73.477441 352.20365,69.591237 350.91525,66.169491 348.79465,60.537578 345.6064,55.030083 341.15254,50.98305 336.18557,46.469779 329.74492,43.469017 323.25424,41.762711 318.70478,40.566723 313.85171,41.434358 309.15254,41.220338 305.71632,41.063838 301.89884,39.090137 298.84746,40.677966 297.33447,41.465274 296.60579,43.377463 296.13559,45.016949 295.68702,46.581015 295.54572,48.381872 296.13559,49.898305 Z"
     id="path3920"
     inkscape:connector-curvature="0"
     sodipodi:nodetypes="sssssssssssssssssssssssssssssssssssssssssssssssss" />
  <path
     style="fill:#000000;stroke:#000000;stroke-width:1px;stroke-linecap:butt;stroke-linejoin:miter;stroke-opacity:1"
     d="M 327.05085,117.15254 C 329.01694,112.6993 336.81356,112.81356 340.61017,111.72881 344.40678,110.64407 352.54376,111.40838 358.50847,111.18644 370.80571,110.72888 383.09106,109.97358 395.38983,109.55932 403.16153,109.29755 410.9412,109.30821 418.71186,109.01695 429.20439,108.62367 439.67653,107.00836 450.16949,107.38983 453.08273,107.49574 456.03891,107.69339 458.84746,108.47458 462.27838,109.42888 465.4234,111.2241 468.61017,112.81356 473.60718,115.3059 479.18975,117.12008 483.25424,120.94915 486.68576,124.18191 490.09229,128.22778 490.84746,132.88136 491.32507,135.82454 490.3455,139.08753 488.67797,141.55932 487.30274,143.59784 485.15549,145.62358 482.71186,145.8983 479.97537,146.20594 477.6686,143.68365 475.11864,142.64407 469.55358,140.37529 463.95963,138.17114 458.30509,136.13559 450.23631,133.23095 442.32528,129.59006 433.89831,128 426.96061,126.69095 419.79142,127.36682 412.74576,126.91525 405.68856,126.46294 398.66327,125.43977 391.59322,125.28814 380.92288,125.0593 370.26593,126.41428 359.59322,126.37288 355.2505,126.35604 350.87669,126.43539 346.57627,125.83051 340.4972,124.97545 333.27322,125.56214 328.67797,121.49153 327.52171,120.46728 326.42698,118.56563 327.05085,117.15254 Z"
     id="path3922"
     inkscape:connector-curvature="0"
     sodipodi:nodetypes="sssssssssssssssssssss" />
  <path
     style="fill:#000000;stroke:#000000;stroke-width:1px;stroke-linecap:butt;stroke-linejoin:miter;stroke-opacity:1"
     d="M 167.59322,180.61017 C 163.93756,182.53316 162.84732,185.70214 162.71186,189.83051 162.60498,193.08801 162.29221,196.15956 163.79661,199.05085 165.23232,201.81013 168.2711,203.68201 169.22034,206.64407 170.37898,210.25956 169.87906,214.29487 169.22034,218.0339 168.48604,222.20192 166.37159,226.00494 164.88136,229.9661 163.65189,233.23413 162.63884,236.60208 161.08475,239.72881 158.62817,244.67128 155.62804,249.34874 152.40678,253.83051 149.93447,257.27027 147.52254,260.87789 144.27119,263.59322 139.48634,267.58924 133.8479,270.6537 128,272.81356 121.78029,275.11074 114.98546,275.35709 108.47458,276.61017 104.67936,277.3406 100.26651,276.58566 97.084746,278.77966 94.812856,280.34625 93.858371,283.30508 92.745763,285.83051 91.684478,288.23945 90.298211,290.8061 90.576271,293.42373 90.900923,296.47998 94.169834,298.57764 94.915254,301.55932 96.186854,306.64572 93.351978,312.28368 94.915254,317.28814 95.767583,320.01667 97.62712,323.79661 99.79661,324.33898 101.9661,324.88136 108.47458,325.9661 110.64407,326.50847 112.81356,327.05085 117.29315,325.10523 120.40678,323.79661 124.06591,322.25873 127.25521,319.78139 130.71186,317.83051 134.30563,315.80224 138.08021,314.08361 141.55932,311.86441 144.39455,310.05592 146.80414,307.6166 149.69492,305.8983 152.61479,304.16271 155.76181,302.82176 158.91525,301.55932 163.16132,299.85946 168.10446,294.71694 171.9322,297.22034 173.60342,298.31334 172.91987,301.23982 172.47458,303.18644 171.76937,306.26936 169.53949,308.82929 167.59322,311.32203 165.39036,314.14339 162.49665,316.35021 160,318.91525 156.69965,322.306 153.41757,325.71673 150.23729,329.22034 146.53366,333.30052 142.87919,337.43006 139.38983,341.69492 135.63453,346.28482 132.25833,351.1748 128.54237,355.79661 124.84372,360.39689 122.10539,366.14472 117.15254,369.35593 116.04817,370.07196 114.67081,370.49915 113.35593,370.44068 110.84029,370.32882 108.7296,368.409 106.30508,367.72881 104.35891,367.18282 102.32752,366.28163 100.33898,366.64407 98.264786,367.02212 96.234516,368.25369 94.915254,369.8983 93.126575,372.12809 92.715428,375.22157 92.20339,378.0339 91.360782,382.66186 91.040855,387.47261 91.661017,392.13559 92.060561,395.13975 92.803984,398.22065 94.372881,400.81356 96.358277,404.09481 99.296613,406.85335 102.50847,408.94915 105.43266,410.85724 108.82359,413.29865 112.27119,412.74576 116.20247,412.1153 118.45627,407.72929 121.49153,405.15254 125.88679,401.42123 129.79587,397.08422 134.50847,393.76271 141.78553,388.63373 155.66102,381.28814 157.83051,380.74576 160,380.20339 174.32409,372.46125 182.23729,367.72881 185.03449,366.05596 187.90755,364.43696 190.37288,362.30508 192.21269,360.71412 194.07629,359.00938 195.25424,356.88136 197.1665,353.42677 197.83098,349.38151 198.50847,345.49153 198.97481,342.81395 201.26881,338.92678 199.05085,337.35593 195.68004,334.96858 191.30434,340.29102 187.66102,342.23729 183.85721,344.26929 180.65814,347.33437 176.81356,349.28814 173.19165,351.12875 169.29963,352.40912 165.42373,353.62712 161.86806,354.74449 158.23795,357.03422 154.57627,356.33898 153.04835,356.04887 151.09635,355.14976 150.77966,353.62712 149.92101,349.49873 155.05127,346.35419 157.28814,342.77966 159.9216,338.57138 162.48358,334.30512 165.42373,330.30508 170.9761,322.75113 177.21894,315.72657 183.32203,308.61017 190.57432,300.15377 197.30109,291.13818 205.55932,283.66102 211.02789,278.70967 218.42752,276.04028 223.45763,270.64407 225.78356,268.14886 228.06749,265.27875 228.88136,261.9661 229.44377,259.67695 228.72843,257.24008 228.33898,254.91525 227.62899,250.67696 227.52136,245.98047 225.08475,242.44068 224.20293,241.15962 222.83009,239.93156 221.28814,239.72881 219.75664,239.52743 218.15915,240.39576 216.94915,241.35593 215.4173,242.5715 214.26161,244.36565 213.69492,246.23729 212.96146,248.65976 214.45586,251.41653 213.69492,253.83051 213.03146,255.93525 211.36878,257.60869 209.89831,259.25424 207.16716,262.31056 204.1472,265.20701 200.67797,267.38983 196.358,270.10793 191.55402,272.228 186.57627,273.35593 182.6932,274.23581 178.59844,273.43423 174.64407,273.8983 170.80554,274.34878 165.29986,279.34692 163.25424,276.0678 161.81889,273.76694 166.2482,271.50662 168.13559,269.55932 172.96967,264.57181 179.82239,261.76032 184.40678,256.54237 188.31554,252.09343 192.1613,247.09377 193.62712,241.35593 194.61261,237.49831 193.49032,233.38453 193.08475,229.42373 192.6185,224.87028 192.58466,220.12638 190.91525,215.86441 188.77558,210.40186 183.94686,206.37878 181.15254,201.22034 178.52932,196.37775 177.12103,190.95291 174.64407,186.0339 173.51447,183.79062 172.89154,180.98488 170.84746,179.52542 169.34696,178.45407 169.22495,179.75183 167.59322,180.61017 Z"
     id="path3924"
     inkscape:connector-curvature="0"
     sodipodi:nodetypes="sssssssssssssssssssssssssssssssssssssssssssssssssssssssssssssssssssssssssssssss" />
  <path
     style="fill:#000000;stroke:#000000;stroke-width:1px;stroke-linecap:butt;stroke-linejoin:miter;stroke-opacity:1"
     d="M 197.42373,303.18644 C 193.90312,307.83382 203.67087,313.07346 206.1017,318.37288 208.58113,323.77825 209.79202,329.69222 212.0678,335.18644 215.28623,342.95643 217.91546,351.20346 222.91525,357.9661 226.41451,362.69914 230.44648,367.76444 235.9322,369.8983 237.28014,370.42263 239.07604,370.71285 240.27119,369.8983 244.76543,366.83528 244.63571,359.90948 246.23729,354.71186 247.4384,350.81389 249.65501,346.79695 248.94915,342.77966 248.42844,339.8161 245.92234,337.55594 244.0678,335.18644 241.30896,331.66154 238.22701,328.35882 234.84746,325.42373 230.83291,321.93715 226.39121,318.93704 221.83051,316.20339 218.01633,313.9172 213.77171,312.42165 209.89831,310.23729 206.35947,308.2416 203.32869,305.32643 199.59322,303.72881 198.90785,303.43569 197.87385,302.59226 197.42373,303.18644 Z"
     id="path3926"
     inkscape:connector-curvature="0"
     sodipodi:nodetypes="ssssssssssssss" />
  <path
     style="fill:#000000;stroke:#000000;stroke-width:1px;stroke-linecap:butt;stroke-linejoin:miter;stroke-opacity:1"
     d="M 334.64407,156.74576 C 332.2943,157.83162 333.36984,161.77462 333.01695,164.33898 332.62182,167.21022 332.47458,170.30508 332.47458,173.01695 332.47458,175.72881 330.59524,179.9925 329.22034,183.32203 326.96738,188.77792 324.34938,194.13304 321.08475,199.05085 317.96097,203.75648 314.25938,208.10249 310.23729,212.0678 306.75882,215.49717 303.1139,218.90952 298.84746,221.28814 295.50145,223.15361 291.06446,222.78588 288,225.08475 285.51185,226.95129 283.82716,229.83014 282.57627,232.67797 281.16456,235.89192 280.02294,239.49378 280.40678,242.98305 280.88452,247.32586 283.81911,251.03678 285.83051,254.91525 288.6284,260.31027 290.02339,267.22953 295.05085,270.64407 297.01798,271.9801 299.75246,272.09709 302.1017,271.72881 305.69615,271.16533 308.48231,268.18872 311.86441,266.84746 315.37356,265.45581 319.09125,264.66186 322.71186,263.59322 328.30908,261.94117 333.96698,260.49002 339.52542,258.71186 343.17416,257.54462 346.55127,255.18181 350.37288,254.91525 352.21213,254.78696 355.07688,254.30257 355.79661,256 356.97121,258.77023 352.82725,261.26983 350.91525,263.59322 346.93401,268.43107 341.73894,272.13308 337.35593,276.61017 333.05954,280.99879 329.25192,285.85473 324.88136,290.16949 319.87033,295.11654 314.43097,299.61051 309.15254,304.27119 305.02188,307.91843 301.0202,311.72605 296.67797,315.11864 294.93897,316.47732 293.15025,317.78597 291.25424,318.91525 288.47567,320.5702 284.27653,320.50316 282.57627,323.25424 280.86542,326.02246 282.43518,329.76577 282.57627,333.01695 282.75723,337.18691 282.81444,341.4044 283.66102,345.49153 284.35677,348.8505 284.74576,354.1695 286.91525,355.25424 289.08475,356.33899 292.38301,360.27003 295.05085,362.84746 298.91233,366.57808 303.72881,374.23729 306.44068,374.23729 309.15254,374.23729 315.49447,373.05592 319.45763,370.98305 322.86356,369.20163 325.12463,365.77895 328.13559,363.38983 334.935,357.99466 342.39659,353.48035 349.28814,348.20339 356.3276,342.81318 362.72708,336.60345 369.89831,331.38983 375.29298,327.4678 380.91817,323.8466 386.71186,320.54237 390.22351,318.53962 394.27978,317.48239 397.55932,315.11864 399.63348,313.62367 400.58228,310.57434 402.98305,309.69492 405.02723,308.94612 407.62574,309.11558 409.49153,310.23729 412.07033,311.78766 412.77304,315.2821 414.37288,317.83051 417.86791,323.39781 421.60968,328.83067 424.67797,334.64407 427.35986,339.72538 429.08802,345.27009 431.72881,350.37288 435.97558,358.57892 441.07104,366.31759 445.83051,374.23729 447.79501,377.50619 449.83211,380.7311 451.79661,384 454.17634,387.95985 455.8438,392.42199 458.84746,395.9322 461.43606,398.95735 465.89831,402.98305 468.0678,403.52542 470.23729,404.0678 477.07514,404.14661 480,401.35593 481.74514,399.69085 481.9548,396.69477 481.62712,394.30508 481.01162,389.81647 476.79903,386.58034 475.11864,382.37288 473.0367,377.15999 472.63311,371.40013 470.77966,366.10169 468.69458,360.1411 466.18013,354.30579 463.18644,348.74576 459.40648,341.72544 454.85634,335.12828 450.16949,328.67797 445.1073,321.71109 439.51593,315.13746 433.89831,308.61017 430.22531,304.3424 426.25096,300.34257 422.50848,296.13559 417.73812,290.77315 413.58069,284.83863 408.40678,279.86441 404.23422,275.85289 399.87235,271.88974 394.84746,269.01695 391.32042,267.0005 387.52039,264.68855 383.45763,264.67797 381.91296,264.67395 379.50811,264.81031 379.11864,266.30508 378.34238,269.28437 383.06037,271.0363 385.08475,273.35593 388.28336,277.02105 392.10781,280.18362 394.84746,284.20339 396.66884,286.87582 399.18644,289.64727 399.18644,292.88136 399.18644,294.90266 398.00953,296.98994 396.47458,298.30508 392.87087,301.39272 387.37726,301.02829 382.91525,302.64407 376.12846,305.1017 369.49097,307.95758 362.84746,310.77966 357.9309,312.86815 353.15713,315.28943 348.20339,317.28814 344.2786,318.87169 340.369,320.56904 336.27119,321.62712 332.90404,322.49654 329.41268,322.79091 325.9661,323.25424 324.34357,323.47236 322.39052,324.78411 321.08475,323.79661 319.3305,322.46994 319.60308,319.45144 320,317.28814 320.90654,312.34736 324.45665,308.19484 327.59322,304.27119 334.38246,295.77829 343.63481,289.58549 351.45763,282.0339 355.87247,277.77213 360.29302,273.50784 364.47458,269.01695 366.92003,266.39059 367.98782,261.48417 371.52542,260.88136 372.96229,260.63652 373.91328,262.67674 375.32203,263.05085 377.59358,263.65409 380.28308,264.1263 382.37288,263.05085 383.75573,262.33921 384.61013,260.73527 385.08475,259.25424 386.35374,255.29441 383.3352,250.55188 385.08475,246.77966 386.38013,243.98668 389.37233,242.17119 392.13559,240.81356 396.78213,238.53065 403.28878,240.80508 407.32203,237.55932 409.02389,236.18975 409.80716,233.76593 410.0339,231.59322 410.3799,228.27761 409.25739,224.85915 407.86441,221.83051 406.35351,218.54549 404.05986,215.55315 401.35593,213.15254 398.38776,210.51734 394.71358,208.71573 391.05085,207.18644 387.24647,205.59801 382.28812,201.29577 379.11864,203.9322 377.44497,205.32439 379.66102,207.72881 379.66102,210.44068 379.66102,213.15254 377.26401,217.24701 376.40678,220.74576 375.66409,223.77704 376.08126,227.12954 374.77966,229.9661 373.70803,232.30149 371.53437,233.95085 369.89831,235.9322 368.99925,237.02101 368.5515,238.82529 367.18644,239.18644 364.19984,239.9766 361.54826,236.48342 358.50847,235.9322 353.88333,235.0935 349.10648,236.02254 344.40678,235.9322 339.70361,235.84179 335.00879,235.33344 330.30509,235.38983 327.407,235.42457 324.50109,236.30696 321.62712,235.9322 319.92638,235.71043 317.55506,235.81727 316.74576,234.30508 315.7731,232.48765 317.33824,230.12185 318.37288,228.33898 320.9395,223.91623 325.51678,221.01742 329.22034,217.49153 334.8751,212.10804 341.85687,207.98248 346.57627,201.76271 349.01988,198.54224 350.82852,194.7844 352,190.91525 353.26715,186.73013 354.54763,182.17306 353.62712,177.8983 352.82428,174.16997 349.83724,171.26753 347.66102,168.13559 345.82426,165.49219 344.15814,162.61452 341.69492,160.54237 339.65223,158.82399 337.0672,155.626 334.64407,156.74576 Z"
     id="path3928"
     inkscape:connector-curvature="0"
     sodipodi:nodetypes="sssssssssssssssssssssssssssssssssssssssssssssssssssssssssssssssssssssssssssssssssssssssssssssssssssss" />
</svg>
